<?xml version="1.0" encoding="UTF-8" standalone="no"?>
<!-- Created with Inkscape (http://www.inkscape.org/) -->

<svg
   width="1919.9998"
   height="1080"
   viewBox="0 0 507.99992 285.74999"
   version="1.1"
   id="svg1"
   xml:space="preserve"
   inkscape:version="1.3.2 (091e20e, 2023-11-25, custom)"
   sodipodi:docname="idea 4.svg"
   inkscape:export-filename="idea 4.png"
   inkscape:export-xdpi="96"
   inkscape:export-ydpi="96"
   xmlns:inkscape="http://www.inkscape.org/namespaces/inkscape"
   xmlns:sodipodi="http://sodipodi.sourceforge.net/DTD/sodipodi-0.dtd"
   xmlns:xlink="http://www.w3.org/1999/xlink"
   xmlns="http://www.w3.org/2000/svg"
   xmlns:svg="http://www.w3.org/2000/svg"><sodipodi:namedview
     id="namedview1"
     pagecolor="#ffffff"
     bordercolor="#cccccc"
     borderopacity="1"
     inkscape:showpageshadow="0"
     inkscape:pageopacity="1"
     inkscape:pagecheckerboard="0"
     inkscape:deskcolor="#d1d1d1"
     inkscape:document-units="px"
     inkscape:zoom="0.4894542"
     inkscape:cx="964.33947"
     inkscape:cy="519.96694"
     inkscape:window-width="1920"
     inkscape:window-height="991"
     inkscape:window-x="-9"
     inkscape:window-y="-9"
     inkscape:window-maximized="1"
     inkscape:current-layer="layer1" /><defs
     id="defs1"><linearGradient
       id="linearGradient70"
       inkscape:collect="always"><stop
         style="stop-color:#282051;stop-opacity:1;"
         offset="0"
         id="stop70" /><stop
         style="stop-color:#373374;stop-opacity:0;"
         offset="1"
         id="stop71" /></linearGradient><filter
       style="color-interpolation-filters:sRGB"
       inkscape:label="Noise Fill"
       id="filter45"
       x="0"
       y="0"
       width="1"
       height="1"><feTurbulence
         type="fractalNoise"
         baseFrequency="21.5873 40"
         numOctaves="5"
         seed="1"
         result="turbulence"
         id="feTurbulence44" /><feComposite
         in="SourceGraphic"
         in2="turbulence"
         operator="in"
         result="composite1"
         id="feComposite44" /><feColorMatrix
         values="1 0 0 0 0 0 1 0 0 0 0 0 1 0 0 0 0 0 3.73065 -1 "
         result="color"
         id="feColorMatrix44" /><feFlood
         flood-opacity="0"
         flood-color="rgb(21,40,57)"
         result="flood"
         id="feFlood44" /><feMerge
         result="merge"
         id="feMerge45"><feMergeNode
           in="flood"
           id="feMergeNode44" /><feMergeNode
           in="color"
           id="feMergeNode45" /></feMerge><feComposite
         in2="SourceGraphic"
         operator="in"
         result="composite2"
         id="feComposite45" /></filter><linearGradient
       inkscape:collect="always"
       xlink:href="#linearGradient70"
       id="linearGradient29"
       gradientUnits="userSpaceOnUse"
       x1="107.53365"
       y1="53.887745"
       x2="260.95001"
       y2="45.123402"
       gradientTransform="translate(-1080.0586)" /></defs><g
     inkscape:label="Layer 1"
     inkscape:groupmode="layer"
     id="layer1"
     transform="translate(1091.2622)"><rect
       style="fill:none;fill-opacity:1;stroke-width:0.529167"
       id="rect34"
       width="507.99997"
       height="285.75"
       x="-1091.2622"
       y="0" /><path
       style="opacity:1;fill:#373374;fill-opacity:1;stroke:none;stroke-width:0.529166"
       d="m -1073.268,67.743724 254.15935,-0.270284 c 0,0 -10.8974,-1.86603 -16.40376,-1.97636 -1.65188,-0.0331 -3.30502,0.62738 -4.94086,0.39527 -2.58033,-0.36613 -4.71155,-2.60259 -7.31255,-2.7669 -1.69037,-0.10672 -3.70736,2.34648 -4.94089,1.18581 -0.41414,-0.38967 0.33374,-1.1125 0.29647,-1.6799 -0.12905,-1.9647 -0.39755,-4.22936 -1.7787,-5.63261 -1.38829,-1.4105 -3.67387,-2.16051 -5.63262,-1.87754 -1.31136,0.18945 -2.40905,1.25806 -3.26098,2.27282 -1.30765,1.55757 -0.54204,5.37174 -2.5693,5.53378 -1.46619,0.11727 -1.30881,-2.75396 -2.47043,-3.65624 -1.46462,-1.13765 -3.38723,-1.74892 -5.23732,-1.87754 -1.61114,-0.1121 -3.409,0.0782 -4.74325,0.98817 -0.84535,0.57655 -0.6567,2.56927 -1.67993,2.56927 -1.02324,0 -0.98398,-1.81911 -1.67989,-2.56927 -0.84683,-0.91287 -1.77088,-1.91836 -2.96453,-2.27281 -1.23512,-0.36677 -2.71489,-0.30582 -3.85388,0.29646 -1.11873,0.59156 -1.10752,3.02325 -2.37166,2.96453 -1.49665,-0.0695 -1.16284,-3.02356 -2.47041,-3.75508 -0.92036,-0.51489 -2.15539,0.21493 -3.16221,-0.0989 -1.16014,-0.36156 -1.90423,-1.61145 -3.06333,-1.97636 -0.84889,-0.26725 -1.80226,-0.30483 -2.66807,-0.0989 -1.06135,0.25251 -1.91198,2.11084 -2.86572,1.58109 -1.09575,-0.60862 0.396,-2.65119 -0.19772,-3.75508 -0.44623,-0.82972 -1.37805,-1.38513 -2.27283,-1.67991 -0.71954,-0.23705 -1.6299,0.40082 -2.27277,0 -1.58758,-0.98983 -1.12001,-3.7449 -2.47047,-5.03969 -1.06464,-1.02075 -2.61676,-1.43694 -4.05154,-1.77872 -1.1873,-0.28283 -2.47525,-0.50592 -3.65622,-0.19772 -1.1318,0.29535 -1.79763,1.79692 -2.96454,1.87754 -0.79412,0.0548 -1.74307,-0.31892 -2.17402,-0.98818 -0.94514,-1.46781 0.6681,-3.62446 0,-5.23735 -0.40998,-0.98986 -1.40928,-1.63852 -2.27277,-2.2728 -1.31802,-0.96813 -2.8622,-1.58944 -4.34798,-2.27281 -1.7727,-0.81532 -4.27662,-0.60381 -5.435,-2.17399 -0.72589,-0.98396 0.15264,-2.51895 -0.29647,-3.65627 -0.52517,-1.33017 -1.4595,-2.5952 -2.66806,-3.35979 -2.45782,-1.55492 -5.59104,-2.05575 -8.49831,-1.97638 -1.88606,0.0515 -3.92714,0.44692 -5.43497,1.58109 -1.52633,1.14809 -2.36179,3.06569 -3.06338,4.84208 -0.25867,0.65493 0.16401,1.64739 -0.39525,2.07518 -1.02345,0.78272 -2.61467,-0.649 -3.85392,-0.29646 -1.02024,0.29023 -1.921,1.03796 -2.56925,1.87754 -0.71398,0.92473 -1.03492,2.11969 -1.28463,3.26098 -0.12699,0.5801 0.38369,1.43265 -0.0989,1.77872 -1.0001,0.71725 -2.32758,-1.03349 -3.55745,-0.98816 -1.36397,0.0503 -2.73439,0.60263 -3.85388,1.38343 -1.30411,0.90959 -2.28777,2.26828 -3.06338,3.65627 -0.35568,0.6365 -0.65088,1.34717 -0.69172,2.07517 -0.0887,1.5803 2.03547,3.45764 0.9882,4.64443 -1.02804,1.16501 -3.16809,-0.87954 -4.64443,-0.39528 -1.33082,0.43654 -2.27241,1.68525 -3.1622,2.76691 -0.91883,1.11696 -1.60351,2.426 -2.17393,3.75508 -0.46042,1.07275 0.09,2.91201 -0.9882,3.35981 -1.21144,0.50321 -2.22794,-1.42343 -3.45863,-1.87754 -1.48494,-0.54793 -3.30606,-0.14312 -4.64443,-0.98818 -1.05287,-0.66478 -1.26943,-2.22721 -2.27283,-2.96454 -1.15883,-0.85153 -2.63276,-1.24749 -4.05155,-1.48227 -1.4302,-0.23668 -2.9126,-0.10486 -4.3479,0.0989 -1.6533,0.23472 -3.2005,1.59039 -4.8421,1.28463 -2.1521,-3.330275 -17.9556,-4.231365 -29.1513,10.660623 z"
       id="path11"
       sodipodi:nodetypes="ccssssssssssssssssssssssssssssssssssssssssssssssssssssssssssscc" /><path
       style="opacity:1;fill:url(#linearGradient29);fill-opacity:1;stroke:none;stroke-width:0.529166;filter:url(#filter45)"
       d="m -1073.268,67.743724 254.15936,-0.270284 c 0,0 -10.8974,-1.86603 -16.40376,-1.97636 -1.65188,-0.0331 -3.30502,0.62738 -4.94086,0.39527 -2.58033,-0.36613 -4.71155,-2.60259 -7.31255,-2.7669 -1.69037,-0.10672 -3.70736,2.34648 -4.94089,1.18581 -0.41414,-0.38967 0.33374,-1.1125 0.29647,-1.6799 -0.12905,-1.9647 -0.39755,-4.22936 -1.7787,-5.63261 -1.38829,-1.4105 -3.67387,-2.16051 -5.63262,-1.87754 -1.31136,0.18945 -2.40905,1.25806 -3.26098,2.27282 -1.30765,1.55757 -0.54204,5.37174 -2.5693,5.53378 -1.46619,0.11727 -1.30881,-2.75396 -2.47043,-3.65624 -1.46462,-1.13765 -3.38723,-1.74892 -5.23732,-1.87754 -1.61114,-0.1121 -3.409,0.0782 -4.74325,0.98817 -0.84535,0.57655 -0.6567,2.56927 -1.67993,2.56927 -1.02324,0 -0.98398,-1.81911 -1.67989,-2.56927 -0.84683,-0.91287 -1.77088,-1.91836 -2.96453,-2.27281 -1.23512,-0.36677 -2.71489,-0.30582 -3.85388,0.29646 -1.11873,0.59156 -1.10752,3.02325 -2.37166,2.96453 -1.49665,-0.0695 -1.16284,-3.02356 -2.47041,-3.75508 -0.92036,-0.51489 -2.15539,0.21493 -3.16221,-0.0989 -1.16014,-0.36156 -1.90423,-1.61145 -3.06333,-1.97636 -0.84889,-0.26725 -1.80226,-0.30483 -2.66807,-0.0989 -1.06135,0.25251 -1.91198,2.11084 -2.86572,1.58109 -1.09575,-0.60862 0.396,-2.65119 -0.19772,-3.75508 -0.44623,-0.82972 -1.37805,-1.38513 -2.27283,-1.67991 -0.71954,-0.23705 -1.6299,0.40082 -2.27277,0 -1.58758,-0.98983 -1.12001,-3.7449 -2.47047,-5.03969 -1.06464,-1.02075 -2.61676,-1.43694 -4.05154,-1.77872 -1.1873,-0.28283 -2.47525,-0.50592 -3.65622,-0.19772 -1.1318,0.29535 -1.79763,1.79692 -2.96454,1.87754 -0.79412,0.0548 -1.74307,-0.31892 -2.17402,-0.98818 -0.94514,-1.46781 0.6681,-3.62446 0,-5.23735 -0.40998,-0.98986 -1.40928,-1.63852 -2.27277,-2.2728 -1.31802,-0.96813 -2.8622,-1.58944 -4.34798,-2.27281 -1.7727,-0.81532 -4.27662,-0.60381 -5.435,-2.17399 -0.72589,-0.98396 0.15264,-2.51895 -0.29647,-3.65627 -0.52517,-1.33017 -1.4595,-2.5952 -2.66806,-3.35979 -2.45782,-1.55492 -5.59104,-2.05575 -8.49831,-1.97638 -1.88606,0.0515 -3.92714,0.44692 -5.43497,1.58109 -1.52633,1.14809 -2.36179,3.06569 -3.06338,4.84208 -0.25867,0.65493 0.16401,1.64739 -0.39525,2.07518 -1.02345,0.78272 -2.61467,-0.649 -3.85392,-0.29646 -1.02024,0.29023 -1.921,1.03796 -2.56925,1.87754 -0.71398,0.92473 -1.03492,2.11969 -1.28463,3.26098 -0.12699,0.5801 0.38369,1.43265 -0.0989,1.77872 -1.0001,0.71725 -2.32758,-1.03349 -3.55745,-0.98816 -1.36397,0.0503 -2.73439,0.60263 -3.85388,1.38343 -1.30411,0.90959 -2.28777,2.26828 -3.06338,3.65627 -0.35568,0.6365 -0.65088,1.34717 -0.69172,2.07517 -0.0887,1.5803 2.03547,3.45764 0.9882,4.64443 -1.02804,1.16501 -3.16809,-0.87954 -4.64443,-0.39528 -1.33082,0.43654 -2.27241,1.68525 -3.1622,2.76691 -0.91883,1.11696 -1.60351,2.426 -2.17393,3.75508 -0.46042,1.07275 0.09,2.91201 -0.9882,3.35981 -1.21144,0.50321 -2.22794,-1.42343 -3.45863,-1.87754 -1.48494,-0.54793 -3.30606,-0.14312 -4.64443,-0.98818 -1.05287,-0.66478 -1.26943,-2.22721 -2.27283,-2.96454 -1.15883,-0.85153 -2.63276,-1.24749 -4.05156,-1.48227 -1.4302,-0.23668 -2.9126,-0.10486 -4.3479,0.0989 -1.6533,0.23472 -3.2005,1.59039 -4.8421,1.28463 -2.1521,-3.330275 -17.9556,-4.231365 -29.1513,10.660623 z"
       id="path16"
       sodipodi:nodetypes="ccssssssssssssssssssssssssssssssssssssssssssssssssssssssssssscc" /></g></svg>
