<?xml version="1.0" encoding="UTF-8" standalone="no"?>
<!-- Created with Inkscape (http://www.inkscape.org/) -->

<svg
   width="1919.9998"
   height="1080"
   viewBox="0 0 507.99992 285.74999"
   version="1.1"
   id="svg1"
   xml:space="preserve"
   inkscape:version="1.3.2 (091e20e, 2023-11-25, custom)"
   sodipodi:docname="idea 4.svg"
   inkscape:export-filename="idea 4.png"
   inkscape:export-xdpi="96"
   inkscape:export-ydpi="96"
   xmlns:inkscape="http://www.inkscape.org/namespaces/inkscape"
   xmlns:sodipodi="http://sodipodi.sourceforge.net/DTD/sodipodi-0.dtd"
   xmlns:xlink="http://www.w3.org/1999/xlink"
   xmlns="http://www.w3.org/2000/svg"
   xmlns:svg="http://www.w3.org/2000/svg"><sodipodi:namedview
     id="namedview1"
     pagecolor="#ffffff"
     bordercolor="#cccccc"
     borderopacity="1"
     inkscape:showpageshadow="0"
     inkscape:pageopacity="1"
     inkscape:pagecheckerboard="0"
     inkscape:deskcolor="#d1d1d1"
     inkscape:document-units="px"
     inkscape:zoom="0.4894542"
     inkscape:cx="964.33947"
     inkscape:cy="519.96694"
     inkscape:window-width="1920"
     inkscape:window-height="991"
     inkscape:window-x="-9"
     inkscape:window-y="-9"
     inkscape:window-maximized="1"
     inkscape:current-layer="layer1" /><defs
     id="defs1"><linearGradient
       id="linearGradient70"
       inkscape:collect="always"><stop
         style="stop-color:#282051;stop-opacity:1;"
         offset="0"
         id="stop70" /><stop
         style="stop-color:#373374;stop-opacity:0;"
         offset="1"
         id="stop71" /></linearGradient><filter
       style="color-interpolation-filters:sRGB"
       inkscape:label="Noise Fill"
       id="filter45"
       x="0"
       y="0"
       width="1"
       height="1"><feTurbulence
         type="fractalNoise"
         baseFrequency="21.5873 40"
         numOctaves="5"
         seed="1"
         result="turbulence"
         id="feTurbulence44" /><feComposite
         in="SourceGraphic"
         in2="turbulence"
         operator="in"
         result="composite1"
         id="feComposite44" /><feColorMatrix
         values="1 0 0 0 0 0 1 0 0 0 0 0 1 0 0 0 0 0 3.73065 -1 "
         result="color"
         id="feColorMatrix44" /><feFlood
         flood-opacity="0"
         flood-color="rgb(21,40,57)"
         result="flood"
         id="feFlood44" /><feMerge
         result="merge"
         id="feMerge45"><feMergeNode
           in="flood"
           id="feMergeNode44" /><feMergeNode
           in="color"
           id="feMergeNode45" /></feMerge><feComposite
         in2="SourceGraphic"
         operator="in"
         result="composite2"
         id="feComposite45" /></filter><linearGradient
       inkscape:collect="always"
       xlink:href="#linearGradient70"
       id="linearGradient27"
       gradientUnits="userSpaceOnUse"
       x1="350.75812"
       y1="282.30551"
       x2="262.58206"
       y2="145.17548"
       gradientTransform="translate(-1091.2622)" /><linearGradient
       inkscape:collect="always"
       xlink:href="#linearGradient70"
       id="linearGradient28"
       gradientUnits="userSpaceOnUse"
       x1="112.24076"
       y1="272.74954"
       x2="262.58206"
       y2="145.17548"
       gradientTransform="translate(-1091.2622)" /></defs><g
     inkscape:label="Layer 1"
     inkscape:groupmode="layer"
     id="layer1"
     transform="translate(1091.4596)"><rect
       style="fill:none;fill-opacity:1;stroke-width:0.529167"
       id="rect34"
       width="507.80267"
       height="285.75"
       x="-1091.2623"
       y="0" /><path
       id="path15"
       style="opacity:1;fill:#373374;fill-opacity:1;stroke:none;stroke-width:0.529166"
       d="m -583.45962,104.06548 c 0,0 -3.72429,7.46016 -7.26392,7.82639 -2.72452,0.2819 -3.98742,-4.41328 -6.70551,-4.75164 -4.35929,-0.54267 -8.90982,1.94867 -12.29317,4.75164 -3.1249,2.58884 -2.85808,8.40858 -6.42606,10.34097 -3.6863,1.99651 -8.77456,-2.05353 -12.57264,-0.27905 -2.16123,1.00973 -3.68079,3.33812 -4.47035,5.58984 -0.55486,1.58245 0.8813,3.60417 0,5.0307 -0.98531,1.59493 -4.0039,0.94581 -5.02874,2.51561 -1.01977,1.56202 0.50441,3.89699 -0.27946,5.58984 -0.8585,1.85404 -3.65837,2.3176 -4.47034,4.19251 -0.48129,1.11134 -0.0999,2.42686 0,3.63389 0.18689,2.25911 2.32275,4.78814 1.11733,6.7076 -1.23855,1.9722 -5.1592,0.21476 -6.70499,1.95647 -1.12835,1.27131 -0.60478,3.34723 -0.83839,5.03121 -0.3478,2.50696 -1.02736,5.02244 -0.83786,7.54631 0.21657,2.88454 3.94123,6.04989 2.23465,8.38502 -1.15556,1.58117 -4.28485,-0.87407 -5.86713,0.27957 -1.2861,0.93767 -0.48449,3.41702 -1.67625,4.47208 -2.08062,1.84195 -5.8519,0.32649 -8.1023,1.95647 -1.86309,1.34945 -2.80056,3.72394 -3.63196,5.86941 -0.54798,1.41408 -0.31133,3.05007 -0.83839,4.47207 -0.71083,1.91783 -2.7398,3.29222 -3.07303,5.31027 -0.23216,1.40612 0.4102,2.83307 0.83786,4.19251 0.48825,1.55203 1.55684,2.8947 1.95571,4.47208 0.27503,1.08762 0.86904,2.39948 0.27946,3.3538 -1.58196,2.56071 -6.16741,1.31602 -8.38175,3.35432 -0.4675,0.43032 -0.87919,0.91897 -1.24493,1.44591 -0.65477,-0.0861 -1.31109,-0.18107 -1.9588,-0.21188 -3.51039,-0.16685 -7.07981,0.90343 -10.2729,2.37195 -2.82422,1.29888 -6.33894,2.65194 -7.50722,5.53351 -0.6022,1.48537 1.04457,3.16087 0.78983,4.74338 -0.4496,2.79297 -3.27287,4.76379 -3.9512,7.51014 -0.60026,2.43027 2.21959,6.35406 0,7.51013 -1.42597,0.74273 -2.4179,-2.28323 -3.95119,-2.76675 -2.51227,-0.79224 -5.34993,-0.65113 -7.90239,0 -1.5991,0.40793 -2.70119,2.23576 -4.34585,2.37143 -3.19641,0.26378 -5.90844,-2.74069 -9.0879,-3.16208 -1.83257,-0.24289 -4.15896,-0.84303 -5.53188,0.39532 -1.68858,1.52307 0.7785,5.57276 -1.185,6.71949 -2.05052,1.19754 -4.34302,-2.42043 -6.71688,-2.37143 -2.12733,0.0439 -4.15069,1.19966 -5.92705,2.37143 -1.39947,0.92317 -1.88608,3.41118 -3.55603,3.5574 -1.60153,0.14029 -2.473,-2.13444 -3.95119,-2.76675 -2.46993,-1.05653 -5.38724,-2.52509 -7.90239,-1.5813 -2.02254,0.75895 -2.01326,4.18409 -3.9512,5.1387 -0.82711,0.40743 -1.84769,-0.0854 -2.76567,0 -2.13482,0.19848 -4.22819,1.64872 -6.32171,1.18598 -2.2126,-0.48904 -3.34908,-3.34429 -5.53188,-3.95273 -1.65423,-0.46111 -3.43977,0.13191 -5.13671,0.39532 -2.27294,0.35281 -4.4848,2.1364 -6.71687,1.58078 -2.71725,-0.67638 -3.70054,-4.54825 -6.3217,-5.53351 -2.21924,-0.83416 -5.08255,-1.22577 -7.11206,0 -2.42085,1.46212 -1.53034,6.04802 -3.9512,7.51014 -0.90201,0.54478 -2.29834,-0.60471 -3.16136,0 -1.26265,0.88475 -0.39478,3.36215 -1.58017,4.34805 -1.84811,1.5371 -5.41258,-0.51467 -7.11205,1.18546 -1.13299,1.13341 0.54157,3.85236 -0.79034,4.74338 -1.46067,0.97716 -3.48624,-1.78913 -5.13671,-1.18597 -1.85565,0.67813 -1.83521,3.77257 -3.55603,4.74337 -2.30586,1.30086 -5.29473,1.2471 -7.90238,0.79065 -3.3076,-0.57897 -5.73602,-4.13956 -9.08738,-4.34805 -2.90856,-0.18095 -5.44184,2.16591 -8.29343,2.76676 -4.88481,1.02926 -10.98569,1.88901 -17.40097,2.64014 -0.13036,-0.72063 -0.27432,-1.43945 -0.62763,-1.98437 -0.78589,-1.21219 -1.76801,-2.35141 -2.96351,-3.16208 -1.49308,-1.01244 -3.26031,-1.66779 -5.03754,-1.97611 -2.14216,-0.37164 -4.44046,-0.43872 -6.51954,0.19741 -1.41514,0.433 -2.67809,1.35533 -3.75388,2.37194 -1.02952,0.9729 -1.05778,3.57525 -2.46917,3.45819 -1.64363,-0.13639 -1.18315,-3.12716 -2.17318,-4.44676 -0.88149,-1.17492 -1.88514,-2.44817 -3.26004,-2.96416 -1.54171,-0.57858 -3.34596,-0.3188 -4.93886,0.0987 -1.48202,0.38844 -2.98226,1.07476 -4.04985,2.17402 -0.76958,0.79241 -0.38033,2.88048 -1.48151,2.96468 -0.96557,0.0739 -1.01691,-1.66529 -1.67934,-2.37195 -0.60854,-0.64918 -1.26786,-1.30474 -2.07453,-1.68 -0.79048,-0.36772 -1.69662,-0.50203 -2.56835,-0.49403 -1.41423,0.0149 -2.76866,0.57909 -4.14852,0.88936 -1.12207,0.25229 -2.26361,1.14209 -3.3587,0.79064 -1.66641,-0.53479 -2.05454,-2.90598 -3.45736,-3.95273 -0.69679,-0.51992 -1.5031,-1.02965 -2.37051,-1.08675 -1.34066,-0.0881 -2.56273,0.80907 -3.85253,1.18546 -0.9509,0.27749 -1.9535,1.18003 -2.86435,0.79065 -1.78818,-0.76444 -1.5062,-3.65598 -2.76567,-5.13819 -1.39906,-1.6465 -3.06449,-3.34251 -5.13672,-3.95273 -1.52141,-0.44801 -3.39511,-0.44359 -4.74154,0.39481 -1.95595,1.21794 -1.25965,5.74301 -3.55601,5.92935 -2.23553,0.18136 -2.51273,-3.84664 -4.34638,-5.1387 -1.83996,-1.29653 -4.0742,-2.48954 -6.3217,-2.37144 -1.76459,0.0926 -3.20387,3.24239 -4.74154,2.37144 -1.49434,-0.84641 0.228,-3.53739 -0.39516,-5.13819 -0.85098,-2.18595 -2.23733,-4.50856 -4.34637,-5.53403 -1.65838,-0.80635 -3.92175,0.8998 -5.53137,0 -1.755,-0.98107 -1.64382,-3.81896 -3.16085,-5.1387 -1.73564,-1.50994 -4.02899,-2.58848 -6.32222,-2.76676 -2.57984,-0.20053 -5.19608,3.14084 -7.50721,1.97662 -2.53392,-1.27644 -1.73246,-5.45329 -3.16087,-7.90546 -1.27378,-2.18677 -2.46125,-4.83297 -4.74155,-5.92935 -2.018,-0.97029 -4.6041,-0.74143 -6.7169,0 -1.5916,0.55851 -2.3374,3.6528 -3.9511,3.16208 -2.511,-0.76347 -0.9236,-5.32004 -2.3705,-7.51014 -0.6696,-1.01339 -2.2285,-1.28233 -2.7662,-2.37143 -1.0516,-2.12961 0.646,-4.97986 -0.3947,-7.11481 -0.6137,-1.25888 -2.4849,-1.54052 -3.1614,-2.76675 -1.2242,-2.21891 -0.1493,-5.19721 -1.185,-7.51014 -0.7653,-1.70899 -2.0063,-3.29771 -3.556,-4.34806 -2.1726,-1.47247 -4.8938,-2.134 -7.5072,-2.37194 -2.115,-0.19257 -4.1996,0.72485 -6.3222,0.79065 -2.1104,0.0654 -4.3056,0.23174 -6.3218,-0.39533 -3.6667,-1.1404 -6.0916,-5.28836 -9.8777,-5.92884 -3.1836,-0.53853 -6.7372,3.67552 -9.4831,1.97611 -2.2005,-1.36194 -0.4595,-5.41221 -1.9753,-7.51013 -1.8404,-2.54716 -4.8037,-4.6198 -7.9023,-5.13819 -2.6781,-0.44803 -5.3563,2.91963 -7.9025,1.9761 -3.6323,-1.34606 -6.7173,-9.48624 -6.7173,-9.48624 l -0.3947,103.95593 0.1973,0.0124 v 14.32419 h 507.80268 l -0.12707,-1.12758 0.12707,-5.2e-4 z" /><path
       id="path17"
       style="opacity:1;fill:url(#linearGradient28);fill-opacity:1;stroke:none;stroke-width:0.529269;filter:url(#filter45)"
       d="m -583.26224,104.06548 c 0,0 -3.72574,7.46016 -7.26674,7.82639 -2.72558,0.2819 -3.98897,-4.41328 -6.70812,-4.75164 -4.36098,-0.54267 -8.91328,1.94867 -12.29795,4.75164 -3.12611,2.58884 -2.85919,8.40858 -6.42855,10.34097 -3.68774,1.99651 -8.77797,-2.05353 -12.57753,-0.27905 -2.16207,1.00973 -3.68222,3.33812 -4.47208,5.58984 -0.55508,1.58245 0.88164,3.60417 0,5.0307 -0.9857,1.59493 -4.00546,0.94581 -5.0307,2.51561 -1.02016,1.56202 0.50461,3.89699 -0.27957,5.58984 -0.85883,1.85404 -3.65979,2.3176 -4.47207,4.19251 -0.48148,1.11134 -0.0999,2.42686 0,3.63389 0.18696,2.25911 2.32365,4.78814 1.11776,6.7076 -1.23903,1.9722 -5.1612,0.21476 -6.7076,1.95647 -1.12878,1.27131 -0.60501,3.34723 -0.83871,5.03121 -0.34794,2.50696 -1.02776,5.02244 -0.83819,7.54631 0.21666,2.88454 3.94276,6.04989 2.23552,8.38502 -1.15601,1.58117 -4.28651,-0.87407 -5.86941,0.27957 -1.2866,0.93767 -0.48468,3.41702 -1.6769,4.47208 -2.08143,1.84195 -5.85417,0.32649 -8.10545,1.95647 -1.86381,1.34945 -2.80165,3.72394 -3.63337,5.86941 -0.54819,1.41408 -0.31145,3.05007 -0.83871,4.47207 -0.71111,1.91783 -2.74087,3.29222 -3.07423,5.31027 -0.23225,1.40612 0.41036,2.83307 0.83819,4.19251 0.48844,1.55203 1.55744,2.8947 1.95647,4.47208 0.27513,1.08762 0.86937,2.39948 0.27957,3.3538 -1.58258,2.56071 -6.16981,1.31602 -8.38501,3.35432 -0.46768,0.43032 -0.87953,0.91897 -1.24541,1.44591 -0.65503,-0.0861 -1.3116,-0.18107 -1.95957,-0.21188 -3.51175,-0.16685 -7.08256,0.90343 -10.27689,2.37195 -2.82531,1.29888 -6.3414,2.65194 -7.51013,5.53351 -0.60244,1.48537 1.04497,3.16087 0.79013,4.74338 -0.44977,2.79297 -3.27414,4.76379 -3.95273,7.51014 -0.6005,2.43027 2.22045,6.35406 0,7.51013 -1.42653,0.74273 -2.41884,-2.28323 -3.95273,-2.76675 -2.51324,-0.79224 -5.35201,-0.65113 -7.90546,0 -1.59972,0.40793 -2.70224,2.23576 -4.34754,2.37143 -3.19765,0.26378 -5.91073,-2.74069 -9.09143,-3.16208 -1.83328,-0.24289 -4.16057,-0.84303 -5.53403,0.39532 -1.68923,1.52307 0.7788,5.57276 -1.18546,6.71949 -2.05131,1.19754 -4.34471,-2.42043 -6.71949,-2.37143 -2.12815,0.0439 -4.1523,1.19966 -5.92935,2.37143 -1.40001,0.92317 -1.88681,3.41118 -3.55741,3.5574 -1.60215,0.14029 -2.47396,-2.13444 -3.95273,-2.76675 -2.47089,-1.05653 -5.38933,-2.52509 -7.90546,-1.5813 -2.02332,0.75895 -2.01404,4.18409 -3.95273,5.1387 -0.82744,0.40743 -1.84841,-0.0854 -2.76675,0 -2.13565,0.19848 -4.22983,1.64872 -6.32416,1.18598 -2.21346,-0.48904 -3.35039,-3.34429 -5.53403,-3.95273 -1.65488,-0.46111 -3.44111,0.13191 -5.13871,0.39532 -2.27382,0.35281 -4.48654,2.1364 -6.71948,1.58078 -2.71831,-0.67638 -3.70198,-4.54825 -6.32416,-5.53351 -2.2201,-0.83416 -5.08452,-1.22577 -7.11482,0 -2.42179,1.46212 -1.53093,6.04802 -3.95273,7.51014 -0.90237,0.54478 -2.29924,-0.60471 -3.16259,0 -1.26314,0.88475 -0.39494,3.36215 -1.58079,4.34805 -1.84883,1.5371 -5.41468,-0.51467 -7.11481,1.18546 -1.13343,1.13341 0.54178,3.85236 -0.79065,4.74338 -1.46123,0.97716 -3.48759,-1.78913 -5.1387,-1.18597 -1.85637,0.67813 -1.83593,3.77257 -3.55741,4.74337 -2.30676,1.30086 -5.29679,1.2471 -7.90546,0.79065 -3.30888,-0.57897 -5.73824,-4.13956 -9.09091,-4.34805 -2.90969,-0.18095 -5.44395,2.16591 -8.29665,2.76676 -4.88671,1.02926 -10.98996,1.88901 -17.40773,2.64014 -0.13041,-0.72063 -0.27443,-1.43945 -0.62787,-1.98437 -0.7862,-1.21219 -1.7687,-2.35141 -2.96467,-3.16208 -1.49366,-1.01244 -3.26157,-1.66779 -5.03949,-1.97611 -2.14299,-0.37164 -4.44219,-0.43872 -6.52208,0.19741 -1.41569,0.433 -2.67913,1.35533 -3.75533,2.37194 -1.02992,0.9729 -1.0582,3.57525 -2.47013,3.45819 -1.64427,-0.13639 -1.18361,-3.12716 -2.17403,-4.44676 -0.88183,-1.17492 -1.88587,-2.44817 -3.2613,-2.96416 -1.54231,-0.57858 -3.34726,-0.3188 -4.94078,0.0987 -1.4826,0.38844 -2.98342,1.07476 -4.05143,2.17402 -0.76988,0.79241 -0.38048,2.88048 -1.48208,2.96468 -0.96595,0.0739 -1.01731,-1.66529 -1.68,-2.37195 -0.60877,-0.64918 -1.26835,-1.30474 -2.07533,-1.68 -0.79079,-0.36772 -1.69728,-0.50203 -2.56935,-0.49403 -1.41478,0.0149 -2.76974,0.57909 -4.15013,0.88936 -1.12251,0.25229 -2.26449,1.14209 -3.36001,0.79064 -1.66705,-0.53479 -2.05533,-2.90598 -3.4587,-3.95273 -0.69706,-0.51992 -1.50368,-1.02965 -2.37143,-1.08675 -1.34118,-0.0881 -2.56373,0.80907 -3.85403,1.18546 -0.95127,0.27749 -1.95426,1.18003 -2.86546,0.79065 -1.78888,-0.76444 -1.50679,-3.65598 -2.76675,-5.13819 -1.3996,-1.6465 -3.06568,-3.34251 -5.13871,-3.95273 -1.522,-0.44801 -3.39643,-0.44359 -4.74338,0.39481 -1.95671,1.21794 -1.26014,5.74301 -3.5574,5.92935 -2.23639,0.18136 -2.5137,-3.84664 -4.34806,-5.1387 -1.84068,-1.29653 -4.07579,-2.48954 -6.32416,-2.37144 -1.76528,0.0926 -3.20512,3.24239 -4.74338,2.37144 -1.49492,-0.84641 0.22809,-3.53739 -0.39532,-5.13819 -0.85131,-2.18595 -2.2382,-4.50856 -4.34806,-5.53403 -1.65902,-0.80635 -3.92327,0.8998 -5.53351,0 -1.75569,-0.98107 -1.64446,-3.81896 -3.16208,-5.1387 -1.73632,-1.50994 -4.03056,-2.58848 -6.32468,-2.76676 -2.58084,-0.20053 -5.1981,3.14084 -7.51013,1.97662 -2.5349,-1.27644 -1.73313,-5.45329 -3.16209,-7.90546 -1.27428,-2.18677 -2.46218,-4.83297 -4.74338,-5.92935 -2.0188,-0.97029 -4.6059,-0.74143 -6.7195,0 -1.5922,0.55851 -2.3383,3.6528 -3.9527,3.16208 -2.5119,-0.76347 -0.9239,-5.32004 -2.3714,-7.51014 -0.6698,-1.01339 -2.2293,-1.28233 -2.7673,-2.37143 -1.052,-2.12961 0.6463,-4.97986 -0.3948,-7.11481 -0.6139,-1.25888 -2.4859,-1.54052 -3.1626,-2.76675 -1.2247,-2.21891 -0.1494,-5.19721 -1.1855,-7.51014 -0.7656,-1.70899 -2.0071,-3.29771 -3.5574,-4.34806 -2.1734,-1.47247 -4.8957,-2.134 -7.5101,-2.37194 -2.1158,-0.19257 -4.2012,0.72485 -6.3247,0.79065 -2.1112,0.0654 -4.3072,0.23174 -6.3242,-0.39533 -3.6681,-1.1404 -6.094,-5.28836 -9.8815,-5.92884 -3.1849,-0.53853 -6.7399,3.67552 -9.4868,1.97611 -2.2014,-1.36194 -0.4597,-5.41221 -1.9761,-7.51013 -1.8411,-2.54716 -4.8056,-4.6198 -7.9054,-5.13819 -2.6791,-0.44803 -5.3584,2.91963 -7.9055,1.9761 -3.6338,-1.34606 -6.72,-9.48624 -6.72,-9.48624 l -0.3948,103.95593 0.1974,0.0124 v 14.32419 h 507.99996 l -0.12712,-1.12758 0.12712,-5.2e-4 z"
       transform="matrix(0.9996116,0,0,1,-0.42391751,0)" /><path
       id="path18"
       style="opacity:1;fill:url(#linearGradient27);fill-opacity:1;stroke:none;stroke-width:0.529269;filter:url(#filter45)"
       d="m -583.26224,104.06548 c 0,0 -3.72574,7.46016 -7.26674,7.82639 -2.72558,0.2819 -3.98897,-4.41328 -6.70812,-4.75164 -4.36098,-0.54267 -8.91328,1.94867 -12.29795,4.75164 -3.12611,2.58884 -2.85919,8.40858 -6.42855,10.34097 -3.68774,1.99651 -8.77797,-2.05353 -12.57753,-0.27905 -2.16207,1.00973 -3.68222,3.33812 -4.47208,5.58984 -0.55508,1.58245 0.88164,3.60417 0,5.0307 -0.9857,1.59493 -4.00546,0.94581 -5.0307,2.51561 -1.02016,1.56202 0.50461,3.89699 -0.27957,5.58984 -0.85883,1.85404 -3.65979,2.3176 -4.47207,4.19251 -0.48148,1.11134 -0.0999,2.42686 0,3.63389 0.18696,2.25911 2.32365,4.78814 1.11776,6.7076 -1.23903,1.9722 -5.1612,0.21476 -6.7076,1.95647 -1.12878,1.27131 -0.60501,3.34723 -0.83871,5.03121 -0.34794,2.50696 -1.02776,5.02244 -0.83819,7.54631 0.21666,2.88454 3.94276,6.04989 2.23552,8.38502 -1.15601,1.58117 -4.28651,-0.87407 -5.86941,0.27957 -1.2866,0.93767 -0.48468,3.41702 -1.6769,4.47208 -2.08143,1.84195 -5.85417,0.32649 -8.10545,1.95647 -1.86381,1.34945 -2.80165,3.72394 -3.63337,5.86941 -0.54819,1.41408 -0.31145,3.05007 -0.83871,4.47207 -0.71111,1.91783 -2.74087,3.29222 -3.07423,5.31027 -0.23225,1.40612 0.41036,2.83307 0.83819,4.19251 0.48844,1.55203 1.55744,2.8947 1.95647,4.47208 0.27513,1.08762 0.86937,2.39948 0.27957,3.3538 -1.58258,2.56071 -6.16981,1.31602 -8.38501,3.35432 -0.46768,0.43032 -0.87953,0.91897 -1.24541,1.44591 -0.65503,-0.0861 -1.3116,-0.18107 -1.95957,-0.21188 -3.51175,-0.16685 -7.08256,0.90343 -10.27689,2.37195 -2.82531,1.29888 -6.3414,2.65194 -7.51013,5.53351 -0.60244,1.48537 1.04497,3.16087 0.79013,4.74338 -0.44977,2.79297 -3.27414,4.76379 -3.95273,7.51014 -0.6005,2.43027 2.22045,6.35406 0,7.51013 -1.42653,0.74273 -2.41884,-2.28323 -3.95273,-2.76675 -2.51324,-0.79224 -5.35201,-0.65113 -7.90546,0 -1.59972,0.40793 -2.70224,2.23576 -4.34754,2.37143 -3.19765,0.26378 -5.91073,-2.74069 -9.09143,-3.16208 -1.83328,-0.24289 -4.16057,-0.84303 -5.53403,0.39532 -1.68923,1.52307 0.7788,5.57276 -1.18546,6.71949 -2.05131,1.19754 -4.34471,-2.42043 -6.71949,-2.37143 -2.12815,0.0439 -4.1523,1.19966 -5.92935,2.37143 -1.40001,0.92317 -1.88681,3.41118 -3.55741,3.5574 -1.60215,0.14029 -2.47396,-2.13444 -3.95273,-2.76675 -2.47089,-1.05653 -5.38933,-2.52509 -7.90546,-1.5813 -2.02332,0.75895 -2.01404,4.18409 -3.95273,5.1387 -0.82744,0.40743 -1.84841,-0.0854 -2.76675,0 -2.13565,0.19848 -4.22983,1.64872 -6.32416,1.18598 -2.21346,-0.48904 -3.35039,-3.34429 -5.53403,-3.95273 -1.65488,-0.46111 -3.44111,0.13191 -5.13871,0.39532 -2.27382,0.35281 -4.48654,2.1364 -6.71948,1.58078 -2.71831,-0.67638 -3.70198,-4.54825 -6.32416,-5.53351 -2.2201,-0.83416 -5.08452,-1.22577 -7.11482,0 -2.42179,1.46212 -1.53093,6.04802 -3.95273,7.51014 -0.90237,0.54478 -2.29924,-0.60471 -3.16259,0 -1.26314,0.88475 -0.39494,3.36215 -1.58079,4.34805 -1.84883,1.5371 -5.41468,-0.51467 -7.11481,1.18546 -1.13343,1.13341 0.54178,3.85236 -0.79065,4.74338 -1.46123,0.97716 -3.48759,-1.78913 -5.1387,-1.18597 -1.85637,0.67813 -1.83593,3.77257 -3.55741,4.74337 -2.30676,1.30086 -5.29679,1.2471 -7.90546,0.79065 -3.30888,-0.57897 -5.73824,-4.13956 -9.09091,-4.34805 -2.90969,-0.18095 -5.44395,2.16591 -8.29665,2.76676 -4.88671,1.02926 -10.98996,1.88901 -17.40773,2.64014 -0.13041,-0.72063 -0.27443,-1.43945 -0.62787,-1.98437 -0.7862,-1.21219 -1.7687,-2.35141 -2.96467,-3.16208 -1.49366,-1.01244 -3.26157,-1.66779 -5.03949,-1.97611 -2.14299,-0.37164 -4.44219,-0.43872 -6.52208,0.19741 -1.41569,0.433 -2.67913,1.35533 -3.75533,2.37194 -1.02992,0.9729 -1.0582,3.57525 -2.47013,3.45819 -1.64427,-0.13639 -1.18361,-3.12716 -2.17403,-4.44676 -0.88183,-1.17492 -1.88587,-2.44817 -3.2613,-2.96416 -1.54231,-0.57858 -3.34726,-0.3188 -4.94078,0.0987 -1.4826,0.38844 -2.98342,1.07476 -4.05143,2.17402 -0.76988,0.79241 -0.38048,2.88048 -1.48208,2.96468 -0.96595,0.0739 -1.01731,-1.66529 -1.68,-2.37195 -0.60877,-0.64918 -1.26835,-1.30474 -2.07533,-1.68 -0.79079,-0.36772 -1.69728,-0.50203 -2.56935,-0.49403 -1.41478,0.0149 -2.76974,0.57909 -4.15013,0.88936 -1.12251,0.25229 -2.26449,1.14209 -3.36001,0.79064 -1.66705,-0.53479 -2.05533,-2.90598 -3.4587,-3.95273 -0.69706,-0.51992 -1.50368,-1.02965 -2.37143,-1.08675 -1.34118,-0.0881 -2.56373,0.80907 -3.85403,1.18546 -0.95127,0.27749 -1.95426,1.18003 -2.86546,0.79065 -1.78888,-0.76444 -1.50679,-3.65598 -2.76675,-5.13819 -1.3996,-1.6465 -3.06568,-3.34251 -5.13871,-3.95273 -1.522,-0.44801 -3.39643,-0.44359 -4.74338,0.39481 -1.95671,1.21794 -1.26014,5.74301 -3.5574,5.92935 -2.23639,0.18136 -2.5137,-3.84664 -4.34806,-5.1387 -1.84068,-1.29653 -4.07579,-2.48954 -6.32416,-2.37144 -1.76528,0.0926 -3.20512,3.24239 -4.74338,2.37144 -1.49492,-0.84641 0.22809,-3.53739 -0.39532,-5.13819 -0.85131,-2.18595 -2.2382,-4.50856 -4.34806,-5.53403 -1.65902,-0.80635 -3.92327,0.8998 -5.53351,0 -1.75569,-0.98107 -1.64446,-3.81896 -3.16208,-5.1387 -1.73632,-1.50994 -4.03056,-2.58848 -6.32468,-2.76676 -2.58084,-0.20053 -5.1981,3.14084 -7.51013,1.97662 -2.5349,-1.27644 -1.73313,-5.45329 -3.16209,-7.90546 -1.27428,-2.18677 -2.46218,-4.83297 -4.74338,-5.92935 -2.0188,-0.97029 -4.6059,-0.74143 -6.7195,0 -1.5922,0.55851 -2.3383,3.6528 -3.9527,3.16208 -2.5119,-0.76347 -0.9239,-5.32004 -2.3714,-7.51014 -0.6698,-1.01339 -2.2293,-1.28233 -2.7673,-2.37143 -1.052,-2.12961 0.6463,-4.97986 -0.3948,-7.11481 -0.6139,-1.25888 -2.4859,-1.54052 -3.1626,-2.76675 -1.2247,-2.21891 -0.1494,-5.19721 -1.1855,-7.51014 -0.7656,-1.70899 -2.0071,-3.29771 -3.5574,-4.34806 -2.1734,-1.47247 -4.8957,-2.134 -7.5101,-2.37194 -2.1158,-0.19257 -4.2012,0.72485 -6.3247,0.79065 -2.1112,0.0654 -4.3072,0.23174 -6.3242,-0.39533 -3.6681,-1.1404 -6.094,-5.28836 -9.8815,-5.92884 -3.1849,-0.53853 -6.7399,3.67552 -9.4868,1.97611 -2.2014,-1.36194 -0.4597,-5.41221 -1.9761,-7.51013 -1.8411,-2.54716 -4.8056,-4.6198 -7.9054,-5.13819 -2.6791,-0.44803 -5.3584,2.91963 -7.9055,1.9761 -3.6338,-1.34606 -6.72,-9.48624 -6.72,-9.48624 l -0.3948,103.95593 0.1974,0.0124 v 14.32419 h 507.99996 l -0.12712,-1.12758 0.12712,-5.2e-4 z"
       transform="matrix(0.9996116,0,0,1,-0.42391751,0)" /></g></svg>
