<?xml version="1.0" encoding="UTF-8" standalone="no"?>
<!-- Created with Inkscape (http://www.inkscape.org/) -->

<svg
   width="1919.9998"
   height="1080"
   viewBox="0 0 507.99992 285.74999"
   version="1.1"
   id="svg1"
   xml:space="preserve"
   inkscape:version="1.3.2 (091e20e, 2023-11-25, custom)"
   sodipodi:docname="idea 4.svg"
   inkscape:export-filename="idea 4.png"
   inkscape:export-xdpi="96"
   inkscape:export-ydpi="96"
   xmlns:inkscape="http://www.inkscape.org/namespaces/inkscape"
   xmlns:sodipodi="http://sodipodi.sourceforge.net/DTD/sodipodi-0.dtd"
   xmlns:xlink="http://www.w3.org/1999/xlink"
   xmlns="http://www.w3.org/2000/svg"
   xmlns:svg="http://www.w3.org/2000/svg"><sodipodi:namedview
     id="namedview1"
     pagecolor="#ffffff"
     bordercolor="#cccccc"
     borderopacity="1"
     inkscape:showpageshadow="0"
     inkscape:pageopacity="1"
     inkscape:pagecheckerboard="0"
     inkscape:deskcolor="#d1d1d1"
     inkscape:document-units="px"
     inkscape:zoom="0.4894542"
     inkscape:cx="964.33947"
     inkscape:cy="519.96694"
     inkscape:window-width="1920"
     inkscape:window-height="991"
     inkscape:window-x="-9"
     inkscape:window-y="-9"
     inkscape:window-maximized="1"
     inkscape:current-layer="layer1" /><defs
     id="defs1"><linearGradient
       id="linearGradient48"
       inkscape:collect="always"><stop
         style="stop-color:#af5d8b;stop-opacity:1;"
         offset="0"
         id="stop48" /><stop
         style="stop-color:#925daf;stop-opacity:0;"
         offset="1"
         id="stop49" /></linearGradient><filter
       style="color-interpolation-filters:sRGB"
       inkscape:label="Noise Fill"
       id="filter45"
       x="0"
       y="0"
       width="1"
       height="1"><feTurbulence
         type="fractalNoise"
         baseFrequency="21.5873 40"
         numOctaves="5"
         seed="1"
         result="turbulence"
         id="feTurbulence44" /><feComposite
         in="SourceGraphic"
         in2="turbulence"
         operator="in"
         result="composite1"
         id="feComposite44" /><feColorMatrix
         values="1 0 0 0 0 0 1 0 0 0 0 0 1 0 0 0 0 0 3.73065 -1 "
         result="color"
         id="feColorMatrix44" /><feFlood
         flood-opacity="0"
         flood-color="rgb(21,40,57)"
         result="flood"
         id="feFlood44" /><feMerge
         result="merge"
         id="feMerge45"><feMergeNode
           in="flood"
           id="feMergeNode44" /><feMergeNode
           in="color"
           id="feMergeNode45" /></feMerge><feComposite
         in2="SourceGraphic"
         operator="in"
         result="composite2"
         id="feComposite45" /></filter><linearGradient
       inkscape:collect="always"
       xlink:href="#linearGradient48"
       id="linearGradient34"
       gradientUnits="userSpaceOnUse"
       gradientTransform="translate(-1130.4086,90.59073)"
       x1="433.45654"
       y1="9.6528158"
       x2="448.33755"
       y2="70.619995" /></defs><g
     inkscape:label="Layer 1"
     inkscape:groupmode="layer"
     id="layer1"
     transform="translate(1091.2622)"><rect
       style="fill:none;fill-opacity:1;stroke-width:0.529167"
       id="rect34"
       width="507.99997"
       height="285.75"
       x="-1091.2622"
       y="0" /><path
       style="opacity:1;fill:#925daf;fill-opacity:1;stroke:none;stroke-width:0.529166"
       d="m -583.26224,130.63646 -246.51804,0.55901 c 0,0 46.41489,-1.52034 59.53325,-5.03099 1.8435,-0.49334 -0.40573,-3.85472 0.27952,-5.58997 0.58275,-1.47567 1.59258,-3.06677 3.07448,-3.6335 3.16278,-1.20953 7.12166,3.07707 10.06194,1.3975 2.10334,-1.20149 0.81205,-5.31676 2.79503,-6.70798 1.60344,-1.12495 4.08713,0.53276 5.86947,-0.2795 2.69828,-1.22966 3.79462,-4.62573 6.14896,-6.42849 2.78058,-2.12911 5.78987,-4.34162 9.22346,-5.03097 2.6631,-0.534662 5.92163,-0.776702 8.10547,0.83849 2.11466,1.56402 2.22787,4.77676 3.07448,7.26698 0.71282,2.0967 -0.0755,5.07456 1.67703,6.42848 1.69571,1.31009 4.5304,0.99451 6.42848,0 1.30482,-0.68366 1.47501,-2.59068 2.51546,-3.63348 1.84368,-1.84787 3.93776,-3.69085 6.42848,-4.47198 1.95574,-0.61335 4.34619,-0.97522 6.14899,0 2.54558,1.37701 1.85973,7.14836 4.75145,7.26697 1.06137,0.0436 0.93432,-2.22655 1.95654,-2.51549 3.06398,-0.8661 5.86275,4.15679 8.94394,3.35398 1.5353,-0.40003 1.63519,-2.96593 3.07448,-3.63348 2.28202,-1.05839 5.17281,-0.83265 7.5465,0 2.2517,0.78986 3.33824,3.68212 5.58994,4.47198 1.2308,0.43174 2.6382,-0.27612 3.91297,0 2.20045,0.47664 4.67274,1.09507 6.14903,2.79499 1.08251,1.24648 0.004,3.86451 1.39747,4.75148 2.62267,1.67066 6.11491,-1.47739 9.22345,-1.3975 4.18281,0.10755 8.17209,1.81932 12.29796,2.5155 16.68253,2.81486 50.30981,6.70797 50.30981,6.70797 z"
       id="path2"
       sodipodi:nodetypes="ccssssssssssssssssssssssssssc" /><path
       style="opacity:1;fill:url(#linearGradient34);fill-opacity:1;stroke:none;stroke-width:0.529166;filter:url(#filter45)"
       d="m -583.26224,130.63646 -246.51804,0.55901 c 0,0 46.41489,-1.52034 59.53325,-5.03099 1.8435,-0.49334 -0.40573,-3.85472 0.27952,-5.58997 0.58275,-1.47567 1.59258,-3.06677 3.07448,-3.6335 3.16278,-1.20953 7.12166,3.07707 10.06194,1.3975 2.10334,-1.20149 0.81205,-5.31676 2.79503,-6.70798 1.60344,-1.12495 4.08713,0.53276 5.86947,-0.2795 2.69828,-1.22966 3.79462,-4.62573 6.14896,-6.42849 2.78058,-2.12911 5.78987,-4.34162 9.22346,-5.03097 2.6631,-0.534662 5.92163,-0.776702 8.10547,0.83849 2.11466,1.56402 2.22787,4.77676 3.07448,7.26698 0.71282,2.0967 -0.0755,5.07456 1.67703,6.42848 1.69571,1.31009 4.5304,0.99451 6.42848,0 1.30482,-0.68366 1.47501,-2.59068 2.51546,-3.63348 1.84368,-1.84787 3.93776,-3.69085 6.42848,-4.47198 1.95574,-0.61335 4.34619,-0.97522 6.14899,0 2.54558,1.37701 1.85973,7.14836 4.75145,7.26697 1.06137,0.0436 0.93432,-2.22655 1.95654,-2.51549 3.06398,-0.8661 5.86275,4.15679 8.94394,3.35398 1.5353,-0.40003 1.63519,-2.96593 3.07448,-3.63348 2.28202,-1.05839 5.17281,-0.83265 7.5465,0 2.2517,0.78986 3.33824,3.68212 5.58994,4.47198 1.2308,0.43174 2.6382,-0.27612 3.91297,0 2.20045,0.47664 4.67274,1.09507 6.14903,2.79499 1.08251,1.24648 0.004,3.86451 1.39747,4.75148 2.62267,1.67066 6.11491,-1.47739 9.22345,-1.3975 4.18281,0.10755 8.17209,1.81932 12.29796,2.5155 16.68253,2.81486 50.30981,6.70797 50.30981,6.70797 z"
       id="path4"
       sodipodi:nodetypes="ccssssssssssssssssssssssssssc" /></g></svg>
