<?xml version="1.0" encoding="UTF-8" standalone="no"?>
<!-- Created with Inkscape (http://www.inkscape.org/) -->

<svg
   width="1920"
   height="1080"
   viewBox="0 0 507.99998 285.74999"
   version="1.1"
   id="svg1"
   xml:space="preserve"
   inkscape:version="1.3.2 (091e20e, 2023-11-25, custom)"
   sodipodi:docname="idea 4.svg"
   inkscape:export-filename="idea 4.png"
   inkscape:export-xdpi="96"
   inkscape:export-ydpi="96"
   xmlns:inkscape="http://www.inkscape.org/namespaces/inkscape"
   xmlns:sodipodi="http://sodipodi.sourceforge.net/DTD/sodipodi-0.dtd"
   xmlns:xlink="http://www.w3.org/1999/xlink"
   xmlns="http://www.w3.org/2000/svg"
   xmlns:svg="http://www.w3.org/2000/svg"><sodipodi:namedview
     id="namedview1"
     pagecolor="#ffffff"
     bordercolor="#cccccc"
     borderopacity="1"
     inkscape:showpageshadow="0"
     inkscape:pageopacity="1"
     inkscape:pagecheckerboard="0"
     inkscape:deskcolor="#d1d1d1"
     inkscape:document-units="px"
     inkscape:zoom="0.4894542"
     inkscape:cx="964.33947"
     inkscape:cy="519.96694"
     inkscape:window-width="1920"
     inkscape:window-height="991"
     inkscape:window-x="-9"
     inkscape:window-y="-9"
     inkscape:window-maximized="1"
     inkscape:current-layer="layer1" /><defs
     id="defs1"><linearGradient
       id="linearGradient43"
       inkscape:collect="always"><stop
         style="stop-color:#804085;stop-opacity:1;"
         offset="0"
         id="stop43" /><stop
         style="stop-color:#4f4085;stop-opacity:0;"
         offset="1"
         id="stop44" /></linearGradient><filter
       style="color-interpolation-filters:sRGB"
       inkscape:label="Noise Fill"
       id="filter45"
       x="0"
       y="0"
       width="1"
       height="1"><feTurbulence
         type="fractalNoise"
         baseFrequency="21.5873 40"
         numOctaves="5"
         seed="1"
         result="turbulence"
         id="feTurbulence44" /><feComposite
         in="SourceGraphic"
         in2="turbulence"
         operator="in"
         result="composite1"
         id="feComposite44" /><feColorMatrix
         values="1 0 0 0 0 0 1 0 0 0 0 0 1 0 0 0 0 0 3.73065 -1 "
         result="color"
         id="feColorMatrix44" /><feFlood
         flood-opacity="0"
         flood-color="rgb(21,40,57)"
         result="flood"
         id="feFlood44" /><feMerge
         result="merge"
         id="feMerge45"><feMergeNode
           in="flood"
           id="feMergeNode44" /><feMergeNode
           in="color"
           id="feMergeNode45" /></feMerge><feComposite
         in2="SourceGraphic"
         operator="in"
         result="composite2"
         id="feComposite45" /></filter><linearGradient
       inkscape:collect="always"
       xlink:href="#linearGradient43"
       id="linearGradient30"
       gradientUnits="userSpaceOnUse"
       x1="417.30768"
       y1="157.10117"
       x2="532.60706"
       y2="258.98233"
       gradientTransform="translate(-1091.2622)" /><linearGradient
       inkscape:collect="always"
       xlink:href="#linearGradient43"
       id="linearGradient31"
       gradientUnits="userSpaceOnUse"
       x1="80.984177"
       y1="192.44441"
       x2="5.918426"
       y2="271.43021"
       gradientTransform="translate(-1091.8212)" /></defs><g
     inkscape:label="Layer 1"
     inkscape:groupmode="layer"
     id="layer1"
     transform="translate(1091.8212)"><rect
       style="fill:none;fill-opacity:1;stroke-width:0.529167"
       id="rect34"
       width="507.44159"
       height="285.75"
       x="-1091.2628"
       y="0" /><path
       style="opacity:1;fill:#4f4085;fill-opacity:1;stroke:none;stroke-width:0.529166"
       d="m -775.90509,284.91068 h 192.08387 V 69.696503 c 0,0 -6.04711,0.326587 -8.09656,2.235999 -2.24091,2.087814 -2.32878,5.691339 -3.0711,8.664461 -0.4564,1.827925 0.58858,4.360441 -0.83757,5.589978 -1.69244,1.459126 -4.71952,1.032604 -6.70062,0 -2.0152,-1.05037 -2.05847,-4.269937 -3.90867,-5.589978 -4.41388,-3.149145 -10.22189,-4.190953 -15.63474,-4.471978 -3.20876,-0.166696 -6.75497,-0.0062 -9.49253,1.676989 -1.98229,1.219383 -2.41453,4.082208 -4.18787,5.589978 -1.84015,1.564583 -4.68188,1.677961 -6.42137,3.353999 -2.1624,2.083491 -3.82899,4.890124 -4.46709,7.825956 -0.43711,2.011063 1.91138,4.599443 0.55836,6.148983 -1.41005,1.61484 -4.30399,-0.0478 -6.42136,0.2795 -2.47647,0.38286 -5.12008,0.6496 -7.25898,1.95648 -2.36183,1.44312 -4.38728,3.65137 -5.58387,6.14899 -0.77414,1.61585 -0.69754,3.52388 -0.83756,5.31048 -0.29846,3.80811 2.69804,8.75844 0,11.45945 -1.90837,1.91047 -5.52862,-0.83126 -8.09654,0 -1.96612,0.63647 -3.50485,2.23282 -5.02544,3.6335 -1.8942,1.7448 -3.79135,3.60811 -5.0255,5.86947 -0.93171,1.70718 -0.73122,3.88954 -1.67513,5.58998 -1.02488,1.84629 -2.90181,3.077 -4.18789,4.75147 -1.2272,1.59778 -2.76691,3.10197 -3.35032,5.03099 -0.5933,1.96171 0.39732,4.13827 0,6.14897 -0.33203,1.68027 -1.6223,3.07121 -1.95434,4.75149 -0.32509,1.64512 -0.16505,3.36215 0,5.03099 0.14028,1.41823 0.90451,2.76888 0.83757,4.19248 -0.0913,1.94321 -1.34501,3.67289 -1.67512,5.58998 -0.31659,1.83853 -0.77453,3.79142 -0.27922,5.58997 0.71349,2.59068 2.76523,4.62976 4.46709,6.70798 0.91785,1.12083 2.88536,1.63714 3.07111,3.07449 0.16589,1.28359 -1.16499,2.3289 -1.95434,3.35397 -0.64282,0.83481 -1.72116,1.31518 -2.23354,2.236 -0.79093,1.42143 -0.0762,3.50153 -1.11677,4.75148 -1.0405,1.24997 -3.3064,0.81753 -4.46709,1.9565 -0.95155,0.93377 -1.28291,2.35864 -1.67512,3.63348 -0.33325,1.08321 0.45054,2.83968 -0.55835,3.35399 -2.96703,1.51257 -5.64292,-3.96773 -8.93417,-4.472 -2.88862,-0.44257 -5.91,0.39391 -8.65492,1.39752 -3.05831,1.11819 -6.0077,2.79396 -8.37575,5.03097 -1.8023,1.70255 -2.53986,4.29637 -4.18787,6.14899 -1.22854,1.38105 -2.99196,2.22404 -4.18789,3.63347 -0.91969,1.08385 -1.74201,2.29922 -2.23355,3.63349 -1.04298,2.8311 -1.27812,5.92877 -1.39598,8.94396 -0.0948,2.42764 1.66532,5.10492 0.55842,7.26699 -1.14293,2.23244 -3.968,3.40264 -6.42142,3.91296 -2.66742,0.55484 -5.39108,-1.43896 -8.09654,-1.11798 -2.28255,0.27081 -4.57967,1.13879 -6.42141,2.51548 -1.70046,1.27108 -2.80537,3.21615 -3.90869,5.03099 -0.69274,1.13948 -0.5528,2.91457 -1.67519,3.63349 -1.41104,0.90382 -3.43626,-0.5303 -5.02544,0 -1.32433,0.44193 -2.58623,1.34591 -3.35031,2.51549 -0.88958,1.36172 -0.87572,3.14238 -1.1167,4.75148 -1.03724,6.92557 -1.39599,20.96241 -1.39599,20.96241 z"
       id="path6"
       sodipodi:nodetypes="cccssssssssssssssssssssssssssssssssssssssssssssssssssssc" /><path
       style="opacity:1;fill:#4f4085;fill-opacity:1;stroke:none;stroke-width:0.529166"
       d="m -912.5801,269.74887 -179.2411,1.67699 1.1168,-176.643313 c 0,0 3.9636,-2.22973 6.1422,-2.236 2.767,-0.008 5.4793,1.31372 7.8174,2.79499 1.8906,1.19777 3.6287,2.81104 4.7463,4.751503 0.7216,1.25299 0.1394,3.12724 1.1167,4.19246 1.6727,1.82319 4.9136,1.15556 6.9798,2.51549 1.7055,1.12251 3.2467,2.65892 4.1879,4.472 1.052,2.02666 1.6159,4.43461 1.3959,6.70796 -0.1849,1.91173 -3.2947,3.71041 -2.2335,5.31048 1.1325,1.70754 4.1304,-0.38003 6.1422,0 2.2587,0.42665 4.7427,0.94369 6.4215,2.51549 1.277,1.19568 1.852,3.04322 2.2335,4.7515 0.3045,1.36382 -0.8796,3.10726 0,4.19246 1.1385,1.40471 3.9072,-0.0288 5.3046,1.118 1.0962,0.89968 1.5746,2.49748 1.6751,3.91299 0.1777,2.50228 -0.3174,5.36756 -1.9543,7.26698 -1.5246,1.76919 -5.1417,0.84095 -6.4214,2.79499 -0.8674,1.32453 -0.9444,3.48078 0,4.75148 1.7399,2.34112 5.7977,1.15394 8.3757,2.51549 2.7511,1.45286 5.5692,3.25533 7.259,5.86947 0.9935,1.53673 1.2649,3.48477 1.396,5.31049 0.2351,3.27361 -4.1152,8.45524 -1.1168,9.78246 1.8096,0.80099 2.107,-3.65352 3.9087,-4.47198 1.7797,-0.80845 4.0336,-0.68815 5.8631,0 1.852,0.69669 3.2048,2.38768 4.467,3.91299 1.171,1.41503 1.3448,3.62114 2.7919,4.75147 1.3002,1.01554 3.5496,0.26161 4.7463,1.3975 1.2174,1.15559 1.5221,3.07888 1.6751,4.75147 0.1633,1.78462 -1.8735,3.849 -0.8375,5.31048 0.6021,0.84947 2.1593,0.0573 3.0711,0.55901 1.4428,0.794 1.7503,3.24439 3.3503,3.63347 2.117,0.51484 3.96511,-2.31674 6.14219,-2.23597 2.03965,0.0757 3.54582,2.62663 5.58383,2.51547 1.8328,-0.0999 2.9487,-2.4233 4.74625,-2.79499 2.2044,-0.45581 4.58144,0.0788 6.70061,0.8385 1.96894,0.70577 3.63731,2.09016 5.30464,3.35398 1.99641,1.51325 3.08224,4.91908 5.58384,5.03099 1.85942,0.0831 2.6827,-2.8239 4.46706,-3.35398 2.68251,-0.79689 5.57777,0.5324 8.37576,0.55899 1.95647,0.0186 3.97,-0.77453 5.86303,-0.27949 1.69893,0.44426 3.33649,1.44998 4.46707,2.79499 1.74696,2.0783 0.60607,6.41146 3.0711,7.54646 1.33685,0.61553 2.72943,-1.59302 4.18787,-1.3975 1.6629,0.22293 3.176,1.45528 4.18788,2.79499 1.82831,2.42063 2.89567,5.63155 2.79191,8.66448 -0.0686,2.00569 -2.6631,3.62973 -2.23353,5.58998 0.52193,2.38175 4.13927,2.88977 5.30464,5.03097 0.72482,1.33179 0.83758,2.95535 0.83758,4.472 0,1.51664 -1.52576,3.12085 -0.83758,4.47197 0.88877,1.74495 4.13227,0.94738 5.30465,2.5155 1.07264,1.43472 0.80223,3.51873 0.83758,5.31046 0.0314,1.59445 -1.47267,3.44554 -0.55839,4.75149 0.93279,1.33243 3.3578,0.27222 4.74627,1.118 1.46594,0.89298 2.651,2.34421 3.35029,3.91299 1.45355,3.26089 1.39595,10.62095 1.39595,10.62095 z"
       id="path10"
       sodipodi:nodetypes="cccsssssssssssssssssssssssssssssssssssssssssssssssssssssc" /><path
       style="opacity:1;fill:url(#linearGradient31);fill-opacity:1;stroke:none;stroke-width:0.529457;filter:url(#filter45)"
       d="m -912.3829,269.74887 -179.4383,1.67699 1.118,-176.643313 c 0,0 3.968,-2.22973 6.149,-2.236 2.77,-0.008 5.4852,1.31372 7.8259,2.79499 1.8928,1.19777 3.6328,2.81104 4.7515,4.751503 0.7224,1.25299 0.1396,3.12724 1.118,4.19246 1.6745,1.82319 4.919,1.15556 6.9875,2.51549 1.7073,1.12251 3.2502,2.65892 4.1925,4.472 1.0532,2.02666 1.6177,4.43461 1.3975,6.70796 -0.1851,1.91173 -3.2984,3.71041 -2.236,5.31048 1.1337,1.70754 4.1348,-0.38003 6.1489,0 2.2612,0.42665 4.748,0.94369 6.4285,2.51549 1.2785,1.19568 1.8542,3.04322 2.236,4.7515 0.3049,1.36382 -0.8805,3.10726 0,4.19246 1.1398,1.40471 3.9115,-0.0288 5.3105,1.118 1.0974,0.89968 1.5764,2.49748 1.677,3.91299 0.1779,2.50228 -0.3178,5.36756 -1.9565,7.26698 -1.5263,1.76919 -5.1473,0.84095 -6.4285,2.79499 -0.8684,1.32453 -0.9454,3.48078 0,4.75148 1.7419,2.34112 5.8041,1.15394 8.385,2.51549 2.754,1.45286 5.5753,3.25533 7.267,5.86947 0.9944,1.53673 1.2662,3.48477 1.3975,5.31049 0.2353,3.27361 -4.1198,8.45524 -1.118,9.78246 1.8115,0.80099 2.1092,-3.65352 3.9129,-4.47198 1.7817,-0.80845 4.038,-0.68815 5.8695,0 1.8542,0.69669 3.2084,2.38768 4.472,3.91299 1.1723,1.41503 1.3462,3.62114 2.795,4.75147 1.3016,1.01554 3.5534,0.26161 4.7515,1.3975 1.2188,1.15559 1.5238,3.07888 1.677,4.75147 0.1634,1.78462 -1.8757,3.849 -0.8385,5.31048 0.6028,0.84947 2.1616,0.0573 3.0745,0.55901 1.4444,0.794 1.7523,3.24439 3.3539,3.63347 2.11938,0.51484 3.96956,-2.31674 6.14903,-2.23597 2.0419,0.0757 3.54972,2.62663 5.58998,2.51547 1.83481,-0.0999 2.95194,-2.4233 4.75147,-2.79499 2.20682,-0.45581 4.58648,0.0788 6.70798,0.8385 1.97111,0.70577 3.64131,2.09016 5.31048,3.35398 1.9986,1.51325 3.08563,4.91908 5.58998,5.03099 1.86147,0.0831 2.68565,-2.8239 4.47198,-3.35398 2.68546,-0.79689 5.5839,0.5324 8.38497,0.55899 1.95863,0.0186 3.97437,-0.77453 5.86949,-0.27949 1.70079,0.44426 3.34016,1.44998 4.47198,2.79499 1.74888,2.0783 0.60674,6.41146 3.07448,7.54646 1.33832,0.61553 2.73243,-1.59302 4.19248,-1.3975 1.66473,0.22293 3.17949,1.45528 4.19249,2.79499 1.83032,2.42063 2.89885,5.63155 2.79498,8.66448 -0.0687,2.00569 -2.66603,3.62973 -2.23599,5.58998 0.5225,2.38175 4.14383,2.88977 5.31048,5.03097 0.72562,1.33179 0.8385,2.95535 0.8385,4.472 0,1.51664 -1.52744,3.12085 -0.8385,4.47197 0.88975,1.74495 4.13681,0.94738 5.31048,2.5155 1.07382,1.43472 0.80312,3.51873 0.83851,5.31046 0.0314,1.59445 -1.47429,3.44554 -0.55901,4.75149 0.93382,1.33243 3.3615,0.27222 4.75149,1.118 1.46756,0.89298 2.65392,2.34421 3.35398,3.91299 1.45515,3.26089 1.39749,10.62095 1.39749,10.62095 z"
       id="path13"
       sodipodi:nodetypes="cccsssssssssssssssssssssssssssssssssssssssssssssssssssssc"
       transform="matrix(0.99890085,0,0,1,-1.2000726,0)" /><path
       style="opacity:1;fill:url(#linearGradient30);fill-opacity:1;stroke:none;stroke-width:0.529457;filter:url(#filter45)"
       d="m -775.55747,284.91068 h 192.29523 V 69.696503 c 0,0 -6.05376,0.326587 -8.10547,2.235999 -2.24338,2.087814 -2.33134,5.691339 -3.07448,8.664461 -0.4569,1.827925 0.58923,4.360441 -0.83849,5.589978 -1.6943,1.459126 -4.72471,1.032604 -6.70799,0 -2.01742,-1.05037 -2.06074,-4.269937 -3.91297,-5.589978 -4.41874,-3.149145 -10.23314,-4.190953 -15.65195,-4.471978 -3.21229,-0.166696 -6.7624,-0.0062 -9.50297,1.676989 -1.98447,1.219383 -2.41719,4.082208 -4.19248,5.589978 -1.84218,1.564583 -4.68703,1.677961 -6.42844,3.353999 -2.16478,2.083491 -3.8332,4.890124 -4.472,7.825956 -0.43759,2.011063 1.91348,4.599443 0.55897,6.148983 -1.4116,1.61484 -4.30872,-0.0478 -6.42842,0.2795 -2.4792,0.38286 -5.12572,0.6496 -7.26697,1.95648 -2.36443,1.44312 -4.39211,3.65137 -5.59002,6.14899 -0.77499,1.61585 -0.6983,3.52388 -0.83848,5.31048 -0.29879,3.80811 2.70101,8.75844 0,11.45945 -1.91047,1.91047 -5.5347,-0.83126 -8.10545,0 -1.96828,0.63647 -3.5087,2.23282 -5.03097,3.6335 -1.89628,1.7448 -3.79552,3.60811 -5.03103,5.86947 -0.93273,1.70718 -0.73202,3.88954 -1.67697,5.58998 -1.02601,1.84629 -2.905,3.077 -4.1925,4.75147 -1.22855,1.59778 -2.76995,3.10197 -3.354,5.03099 -0.59396,1.96171 0.39775,4.13827 0,6.14897 -0.3324,1.68027 -1.62409,3.07121 -1.95649,4.75149 -0.32545,1.64512 -0.16524,3.36215 0,5.03099 0.14043,1.41823 0.9055,2.76888 0.83849,4.19248 -0.0914,1.94321 -1.34649,3.67289 -1.67697,5.58998 -0.31693,1.83853 -0.77538,3.79142 -0.27952,5.58997 0.71427,2.59068 2.76827,4.62976 4.472,6.70798 0.91886,1.12083 2.88854,1.63714 3.07449,3.07449 0.16607,1.28359 -1.16627,2.3289 -1.95649,3.35397 -0.64353,0.83481 -1.72305,1.31518 -2.236,2.236 -0.7918,1.42143 -0.0763,3.50153 -1.118,4.75148 -1.04164,1.24997 -3.31003,0.81753 -4.472,1.9565 -0.9526,0.93377 -1.28432,2.35864 -1.67696,3.63348 -0.33362,1.08321 0.45103,2.83968 -0.55897,3.35399 -2.97029,1.51257 -5.64913,-3.96773 -8.944,-4.472 -2.8918,-0.44257 -5.9165,0.39391 -8.66444,1.39752 -3.06168,1.11819 -6.01431,2.79396 -8.38497,5.03097 -1.80428,1.70255 -2.54265,4.29637 -4.19248,6.14899 -1.22989,1.38105 -2.99525,2.22404 -4.1925,3.63347 -0.9207,1.08385 -1.74392,2.29922 -2.236,3.63349 -1.04413,2.8311 -1.27953,5.92877 -1.39752,8.94396 -0.0949,2.42764 1.66715,5.10492 0.55903,7.26699 -1.14418,2.23244 -3.97236,3.40264 -6.42848,3.91296 -2.67036,0.55484 -5.39701,-1.43896 -8.10545,-1.11798 -2.28506,0.27081 -4.58471,1.13879 -6.42848,2.51548 -1.70233,1.27108 -2.80845,3.21615 -3.91299,5.03099 -0.6935,1.13948 -0.55341,2.91457 -1.67703,3.63349 -1.41259,0.90382 -3.44004,-0.5303 -5.03097,0 -1.32579,0.44193 -2.58908,1.34591 -3.354,2.51549 -0.89056,1.36172 -0.87668,3.14238 -1.11793,4.75148 -1.03838,6.92557 -1.39752,20.96241 -1.39752,20.96241 z"
       id="path14"
       sodipodi:nodetypes="cccssssssssssssssssssssssssssssssssssssssssssssssssssssc"
       transform="matrix(0.99890085,0,0,1,-1.2000726,0)" /></g></svg>
