<?xml version="1.0" encoding="UTF-8" standalone="no"?>
<!-- Created with Inkscape (http://www.inkscape.org/) -->

<svg
   width="1919.9998"
   height="1080"
   viewBox="0 0 507.99992 285.74999"
   version="1.1"
   id="svg1"
   xml:space="preserve"
   inkscape:version="1.3.2 (091e20e, 2023-11-25, custom)"
   sodipodi:docname="idea 4.svg"
   inkscape:export-filename="idea 4.png"
   inkscape:export-xdpi="96"
   inkscape:export-ydpi="96"
   xmlns:inkscape="http://www.inkscape.org/namespaces/inkscape"
   xmlns:sodipodi="http://sodipodi.sourceforge.net/DTD/sodipodi-0.dtd"
   xmlns="http://www.w3.org/2000/svg"
   xmlns:svg="http://www.w3.org/2000/svg"><sodipodi:namedview
     id="namedview1"
     pagecolor="#ffffff"
     bordercolor="#cccccc"
     borderopacity="1"
     inkscape:showpageshadow="0"
     inkscape:pageopacity="1"
     inkscape:pagecheckerboard="0"
     inkscape:deskcolor="#d1d1d1"
     inkscape:document-units="px"
     inkscape:zoom="0.4894542"
     inkscape:cx="964.33947"
     inkscape:cy="519.96694"
     inkscape:window-width="1920"
     inkscape:window-height="991"
     inkscape:window-x="-9"
     inkscape:window-y="-9"
     inkscape:window-maximized="1"
     inkscape:current-layer="layer1" /><defs
     id="defs1" /><g
     inkscape:label="Layer 1"
     inkscape:groupmode="layer"
     id="layer1"
     transform="translate(1091.2622)"><rect
       style="fill:none;fill-opacity:1;stroke-width:0.529167"
       id="rect34"
       width="507.99997"
       height="285.75"
       x="-1091.2622"
       y="0" /><path
       id="path68"
       style="opacity:1;fill:#ffffe0;fill-opacity:1;stroke:none;stroke-width:0.529169"
       d="m -677.63808,62.496334 0.068,7.5635 c 0,0 0.0369,-2.48346 0.83499,-3.28172 0.50059,-0.50072 2.05836,-0.5243 2.05836,-0.5243 0,0 -1.53899,-0.11654 -2.03894,-0.62139 -0.76672,-0.77425 -0.92238,-3.13609 -0.92238,-3.13609 z m 0,0 0.068,7.5635 c 0,0 -0.0691,-2.4856 -0.87384,-3.28172 -0.50335,-0.49794 -2.05835,-0.5243 -2.05835,-0.5243 0,0 1.54629,-0.10941 2.03893,-0.62139 0.7495,-0.77892 0.82529,-3.13609 0.82529,-3.13609 z"
       sodipodi:nodetypes="ccscscccscsc" /><path
       id="path69"
       style="opacity:1;fill:#ffffe0;fill-opacity:1;stroke:none;stroke-width:0.529169"
       d="m -637.14321,38.628469 0.068,7.5635 c 0,0 0.0369,-2.48346 0.83499,-3.28172 0.50059,-0.50072 2.05836,-0.5243 2.05836,-0.5243 0,0 -1.53899,-0.11654 -2.03894,-0.62139 -0.76672,-0.77425 -0.92238,-3.13609 -0.92238,-3.13609 z m 0,0 0.068,7.5635 c 0,0 -0.0691,-2.4856 -0.87384,-3.28172 -0.50335,-0.49794 -2.05835,-0.5243 -2.05835,-0.5243 0,0 1.54629,-0.10941 2.03893,-0.62139 0.7495,-0.77892 0.82529,-3.13609 0.82529,-3.13609 z"
       sodipodi:nodetypes="ccscscccscsc" /><path
       id="path74"
       style="opacity:1;fill:#ffffe0;fill-opacity:1;stroke:none;stroke-width:0.529169"
       d="m -915.22234,16.08761 0.068,7.5635 c 0,0 0.0369,-2.48346 0.83499,-3.28172 0.50059,-0.50072 2.05836,-0.5243 2.05836,-0.5243 0,0 -1.53899,-0.11654 -2.03894,-0.62139 -0.76672,-0.77425 -0.92238,-3.13609 -0.92238,-3.13609 z m 0,0 0.068,7.5635 c 0,0 -0.0691,-2.4856 -0.87384,-3.28172 -0.50335,-0.49794 -2.05835,-0.5243 -2.05835,-0.5243 0,0 1.54629,-0.10941 2.03893,-0.62139 0.7495,-0.77892 0.82529,-3.13609 0.82529,-3.13609 z"
       sodipodi:nodetypes="ccscscccscsc" /><path
       id="path76"
       style="opacity:1;fill:#ffffe0;fill-opacity:1;stroke:none;stroke-width:0.529169"
       d="m -1006.5776,84.126217 0.068,7.5635 c 0,0 0.037,-2.48346 0.835,-3.28172 0.5006,-0.50072 2.0584,-0.5243 2.0584,-0.5243 0,0 -1.539,-0.11654 -2.039,-0.62139 -0.7667,-0.77425 -0.9224,-3.13609 -0.9224,-3.13609 z m 0,0 0.068,7.5635 c 0,0 -0.069,-2.4856 -0.8738,-3.28172 -0.5034,-0.49794 -2.0584,-0.5243 -2.0584,-0.5243 0,0 1.5463,-0.10941 2.039,-0.62139 0.7495,-0.77892 0.8252,-3.13609 0.8252,-3.13609 z"
       sodipodi:nodetypes="ccscscccscsc" /></g></svg>
