<?xml version="1.0" encoding="UTF-8" standalone="no"?>
<!-- Created with Inkscape (http://www.inkscape.org/) -->

<svg
   width="1919.9998"
   height="1080"
   viewBox="0 0 507.99992 285.74999"
   version="1.1"
   id="svg1"
   xml:space="preserve"
   inkscape:version="1.3.2 (091e20e, 2023-11-25, custom)"
   sodipodi:docname="idea 4.svg"
   inkscape:export-filename="idea 4.png"
   inkscape:export-xdpi="96"
   inkscape:export-ydpi="96"
   xmlns:inkscape="http://www.inkscape.org/namespaces/inkscape"
   xmlns:sodipodi="http://sodipodi.sourceforge.net/DTD/sodipodi-0.dtd"
   xmlns:xlink="http://www.w3.org/1999/xlink"
   xmlns="http://www.w3.org/2000/svg"
   xmlns:svg="http://www.w3.org/2000/svg"><sodipodi:namedview
     id="namedview1"
     pagecolor="#ffffff"
     bordercolor="#cccccc"
     borderopacity="1"
     inkscape:showpageshadow="0"
     inkscape:pageopacity="1"
     inkscape:pagecheckerboard="0"
     inkscape:deskcolor="#d1d1d1"
     inkscape:document-units="px"
     inkscape:zoom="0.4894542"
     inkscape:cx="964.33947"
     inkscape:cy="519.96694"
     inkscape:window-width="1920"
     inkscape:window-height="991"
     inkscape:window-x="-9"
     inkscape:window-y="-9"
     inkscape:window-maximized="1"
     inkscape:current-layer="layer1" /><defs
     id="defs1"><linearGradient
       id="linearGradient70"
       inkscape:collect="always"><stop
         style="stop-color:#282051;stop-opacity:1;"
         offset="0"
         id="stop70" /><stop
         style="stop-color:#373374;stop-opacity:0;"
         offset="1"
         id="stop71" /></linearGradient><linearGradient
       id="linearGradient48"
       inkscape:collect="always"><stop
         style="stop-color:#af5d8b;stop-opacity:1;"
         offset="0"
         id="stop48" /><stop
         style="stop-color:#925daf;stop-opacity:0;"
         offset="1"
         id="stop49" /></linearGradient><filter
       style="color-interpolation-filters:sRGB"
       inkscape:label="Noise Fill"
       id="filter45"
       x="0"
       y="0"
       width="1"
       height="1"><feTurbulence
         type="fractalNoise"
         baseFrequency="21.5873 40"
         numOctaves="5"
         seed="1"
         result="turbulence"
         id="feTurbulence44" /><feComposite
         in="SourceGraphic"
         in2="turbulence"
         operator="in"
         result="composite1"
         id="feComposite44" /><feColorMatrix
         values="1 0 0 0 0 0 1 0 0 0 0 0 1 0 0 0 0 0 3.73065 -1 "
         result="color"
         id="feColorMatrix44" /><feFlood
         flood-opacity="0"
         flood-color="rgb(21,40,57)"
         result="flood"
         id="feFlood44" /><feMerge
         result="merge"
         id="feMerge45"><feMergeNode
           in="flood"
           id="feMergeNode44" /><feMergeNode
           in="color"
           id="feMergeNode45" /></feMerge><feComposite
         in2="SourceGraphic"
         operator="in"
         result="composite2"
         id="feComposite45" /></filter><linearGradient
       inkscape:collect="always"
       xlink:href="#linearGradient48"
       id="linearGradient32"
       gradientUnits="userSpaceOnUse"
       x1="41.798126"
       y1="105.57935"
       x2="10.024788"
       y2="165.97318"
       gradientTransform="translate(-1087.9291)" /><linearGradient
       inkscape:collect="always"
       xlink:href="#linearGradient70"
       id="linearGradient33"
       gradientUnits="userSpaceOnUse"
       x1="53.263939"
       y1="185.07034"
       x2="196.5114"
       y2="135.33809"
       gradientTransform="translate(-1087.9291)" /></defs><g
     inkscape:label="Layer 1"
     inkscape:groupmode="layer"
     id="layer1"
     transform="translate(1091.2622)"><rect
       style="fill:none;fill-opacity:1;stroke-width:0.529167"
       id="rect34"
       width="507.99997"
       height="285.75"
       x="-1091.2622"
       y="0" /><path
       style="opacity:1;fill:#373374;fill-opacity:1;stroke:none;stroke-width:0.529166"
       d="m -864.3891,212.52219 h -211.3592 v -78.14812 l 63.0999,0.68401 3.7621,3.93305 1.881,4.61707 -0.1711,4.61706 -3.762,2.39403 8.5501,0.34202 2.90714,3.07804 1.19707,6.49809 5.81408,-1.19702 4.27506,2.56504 3.59107,4.78808 -1.19702,11.11517 2.39403,1.71 2.90703,-6.66909 5.47209,-0.85501 7.86611,0.68401 5.13007,4.78808 3.42005,7.1821 0.17107,2.90704 4.27507,-2.22304 3.07805,1.19704 3.93304,5.64307 2.86719,1.30718 2.90202,-1.57192 6.52951,-1.33008 4.83668,1.69282 2.0556,2.7811 0.48366,4.95758 3.26476,-1.93466 3.99025,0.72549 3.62752,3.14385 0.7255,2.53926 3.14386,2.29742 10.0361,0.36274 z"
       id="path7" /><path
       style="opacity:1;fill:url(#linearGradient33);fill-opacity:1;stroke:none;stroke-width:0.529166;filter:url(#filter45)"
       d="m -864.3891,212.52219 h -211.3592 v -78.14812 l 63.0999,0.68401 3.7621,3.93305 1.881,4.61707 -0.1711,4.61706 -3.762,2.39403 8.5501,0.34202 2.90714,3.07804 1.19707,6.49809 5.81408,-1.19702 4.27506,2.56504 3.59107,4.78808 -1.19702,11.11517 2.39403,1.71 2.90703,-6.66909 5.47209,-0.85501 7.86611,0.68401 5.13007,4.78808 3.42005,7.1821 0.17107,2.90704 4.27507,-2.22304 3.07805,1.19704 3.93304,5.64307 2.86719,1.30718 2.90202,-1.57192 6.52951,-1.33008 4.83668,1.69282 2.0556,2.7811 0.48366,4.95758 3.26476,-1.93466 3.99025,0.72549 3.62752,3.14385 0.7255,2.53926 3.14386,2.29742 10.0361,0.36274 z"
       id="path8" /><path
       style="opacity:1;fill:#925daf;fill-opacity:1;stroke:none;stroke-width:0.529166"
       d="m -926.91957,138.99113 h -163.93333 l 0.9168,-54.461028 c 0,0 18.7854,-3.739269 26.9555,0 1.6156,0.739427 2.4276,2.605561 3.484,4.034144 1.5025,2.031646 2.9439,4.138434 4.0342,6.417967 0.8924,1.865848 1.8456,3.806691 2.017,5.867867 0.1541,1.8526 -0.012,3.87737 -0.9168,5.50111 -0.9491,1.70257 -4.1981,1.9121 -4.4009,3.85078 -0.159,1.51979 1.2228,3.63514 2.7506,3.6674 1.737,0.0366 1.5922,-3.71804 3.3006,-4.03415 1.4537,-0.26898 2.3746,2.28146 3.8508,2.20045 0.8301,-0.0456 1.2698,-1.1027 2.0171,-1.46697 2.4,-1.16984 5.0333,-2.2945 7.7015,-2.20044 0.715,0.0252 1.3643,0.44088 2.0171,0.73349 1.6471,0.73822 3.5895,1.1998 4.7676,2.56718 1.0602,1.23038 0.2987,3.68386 1.6504,4.58425 1.0187,0.67859 2.4434,-0.18191 3.6674,-0.18337 1.285,-0.001 2.6672,0.68394 3.8508,0.18337 1.2763,-0.53979 1.4874,-2.54729 2.7505,-3.11729 1.0029,-0.45254 2.2299,-0.25279 3.3007,0 1.5962,0.37682 3.0227,1.31128 4.4009,2.20045 1.0588,0.68315 2.1217,1.42039 2.9339,2.38381 1.4465,1.71579 1.4428,4.60911 3.3007,5.86787 1.5315,1.03763 3.7331,1.27782 5.5012,0.73348 1.48944,-0.45856 2.19509,-2.24155 3.48409,-3.11731 1.80884,-1.22894 3.72992,-2.47413 5.86786,-2.93392 1.49512,-0.32154 3.12477,-0.27346 4.58425,0.18337 1.52113,0.47614 2.99733,1.3566 4.03415,2.56719 0.6944,0.81076 1.0218,1.89905 1.28359,2.93392 0.36103,1.42709 -0.35517,3.11802 0.36675,4.40089 0.40772,0.72453 1.48831,0.82541 2.01707,1.46697 0.6435,0.78077 0.4302,2.20704 1.28359,2.75054 0.87646,0.55818 2.09435,-0.18244 3.11731,0 1.21843,0.2173 2.35571,0.77502 3.48404,1.2836 0.82275,0.37085 1.51967,1.02337 2.3838,1.28359 13.51731,4.07051 42.17523,3.85079 42.17523,3.85079 z"
       id="path9"
       sodipodi:nodetypes="cccsssssssssssssssssssssssssssssssssc" /><path
       style="opacity:1;fill:url(#linearGradient32);fill-opacity:1;stroke:none;stroke-width:0.529166;filter:url(#filter45)"
       d="m -926.91957,138.99113 h -163.93333 l 0.9168,-54.461028 c 0,0 18.7854,-3.739269 26.9555,0 1.6156,0.739427 2.4276,2.605561 3.484,4.034144 1.5025,2.031646 2.9439,4.138434 4.0342,6.417967 0.8924,1.865848 1.8456,3.806691 2.017,5.867867 0.1541,1.8526 -0.012,3.87737 -0.9168,5.50111 -0.9491,1.70257 -4.1981,1.9121 -4.4009,3.85078 -0.159,1.51979 1.2228,3.63514 2.7506,3.6674 1.737,0.0366 1.5922,-3.71804 3.3006,-4.03415 1.4537,-0.26898 2.3746,2.28146 3.8508,2.20045 0.8301,-0.0456 1.2698,-1.1027 2.0171,-1.46697 2.4,-1.16984 5.0333,-2.2945 7.7015,-2.20044 0.715,0.0252 1.3643,0.44088 2.0171,0.73349 1.6471,0.73822 3.5895,1.1998 4.7676,2.56718 1.0602,1.23038 0.2987,3.68386 1.6504,4.58425 1.0187,0.67859 2.4434,-0.18191 3.6674,-0.18337 1.285,-0.001 2.6672,0.68394 3.8508,0.18337 1.2763,-0.53979 1.4874,-2.54729 2.7505,-3.11729 1.0029,-0.45254 2.2299,-0.25279 3.3007,0 1.5962,0.37682 3.0227,1.31128 4.4009,2.20045 1.0588,0.68315 2.1217,1.42039 2.9339,2.38381 1.4465,1.71579 1.4428,4.60911 3.3007,5.86787 1.5315,1.03763 3.7331,1.27782 5.5012,0.73348 1.48944,-0.45856 2.19509,-2.24155 3.48409,-3.11731 1.80884,-1.22894 3.72992,-2.47413 5.86786,-2.93392 1.49512,-0.32154 3.12477,-0.27346 4.58425,0.18337 1.52113,0.47614 2.99733,1.3566 4.03415,2.56719 0.6944,0.81076 1.0218,1.89905 1.28359,2.93392 0.36103,1.42709 -0.35517,3.11802 0.36675,4.40089 0.40772,0.72453 1.48831,0.82541 2.01707,1.46697 0.6435,0.78077 0.4302,2.20704 1.28359,2.75054 0.87646,0.55818 2.09435,-0.18244 3.11731,0 1.21843,0.2173 2.35571,0.77502 3.48404,1.2836 0.82275,0.37085 1.51967,1.02337 2.3838,1.28359 13.51731,4.07051 42.17523,3.85079 42.17523,3.85079 z"
       id="path12"
       sodipodi:nodetypes="cccsssssssssssssssssssssssssssssssssc" /></g></svg>
