<?xml version="1.0" encoding="UTF-8" standalone="no"?>
<!-- Created with Inkscape (http://www.inkscape.org/) -->

<svg
   width="1920.0002"
   height="1080"
   viewBox="0 0 508.00004 285.74999"
   version="1.1"
   id="svg1"
   xml:space="preserve"
   inkscape:version="1.3.2 (091e20e, 2023-11-25, custom)"
   sodipodi:docname="idea 2.svg"
   inkscape:export-filename="..\wallpaper.png"
   inkscape:export-xdpi="96"
   inkscape:export-ydpi="96"
   xmlns:inkscape="http://www.inkscape.org/namespaces/inkscape"
   xmlns:sodipodi="http://sodipodi.sourceforge.net/DTD/sodipodi-0.dtd"
   xmlns="http://www.w3.org/2000/svg"
   xmlns:svg="http://www.w3.org/2000/svg"><sodipodi:namedview
     id="namedview1"
     pagecolor="#ffffff"
     bordercolor="#cccccc"
     borderopacity="1"
     inkscape:showpageshadow="0"
     inkscape:pageopacity="1"
     inkscape:pagecheckerboard="0"
     inkscape:deskcolor="#d1d1d1"
     inkscape:document-units="px"
     inkscape:zoom="0.5"
     inkscape:cx="3854"
     inkscape:cy="651"
     inkscape:window-width="1920"
     inkscape:window-height="991"
     inkscape:window-x="-9"
     inkscape:window-y="-9"
     inkscape:window-maximized="1"
     inkscape:current-layer="layer1" /><defs
     id="defs1" /><g
     inkscape:label="Layer 1"
     inkscape:groupmode="layer"
     id="layer1"
     transform="translate(-739.77466,-0.3966358)"><rect
       style="fill:none;stroke:none;stroke-width:0.529167"
       id="rect1"
       width="508"
       height="285.75"
       x="739.77472"
       y="0.3966358"
       inkscape:export-filename="..\tools\website\assets\icons-svg\art\homepage\purple-mountain.svg"
       inkscape:export-xdpi="96"
       inkscape:export-ydpi="96" /><path
       style="fill:#412051;fill-opacity:1;stroke-width:1.32292"
       d="m 739.77467,172.44122 125.9524,57.84079 92.9777,17.29818 108.11363,-2.70285 108.6542,-20.54158 72.3021,-52.97567 v 114.3899 H 739.77477 Z"
       id="path16" /><path
       style="opacity:1;fill:#412051;fill-opacity:1;stroke:none;stroke-width:1.32292"
       d="m 953.06427,259.54053 -13.5695,-37.8417 17.9653,34.0193 -4.3958,-43.57528 9.556,47.5888 11.0849,-32.87259 -4.2046,32.49035 z"
       id="path27" /><path
       style="opacity:1;fill:#412051;fill-opacity:1;stroke:none;stroke-width:1.32292"
       d="m 921.91177,245.01543 -5.3513,-34.59266 8.2181,32.68146 2.1023,-14.90733 v 15.86293 l 14.9073,-34.59266 -12.0405,36.8861 z"
       id="path28" /><path
       style="opacity:1;fill:#412051;fill-opacity:1;stroke:none;stroke-width:1.32292"
       d="m 1017.6267,249.06675 -12.7033,-22.29843 14.1899,19.59559 -5.4057,-30.00153 6.8922,28.65011 2.5677,-15.54133 -0.8108,16.21704 10.0005,-17.29818 -9.1897,21.2173 z"
       id="path30" /><path
       style="opacity:1;fill:#412051;fill-opacity:1;stroke:none;stroke-width:1.32292"
       d="m 989.92257,248.39104 -9.3248,-22.56872 10.1356,19.19017 v -25.94727 l 1.892,27.83926 4.59493,-4.72998 -3.24353,6.48682 z"
       id="path32" /><path
       style="opacity:1;fill:#412051;fill-opacity:1;stroke:none;stroke-width:1.32292"
       d="m 1050.8716,246.49905 -13.6493,-21.2173 14.1899,17.29818 -2.0271,-9.05451 3.7839,8.10852 13.1088,-17.70361 -12.433,22.70386 z"
       id="path33" /><path
       style="opacity:1;fill:#412051;fill-opacity:1;stroke:none;stroke-width:1.32292"
       d="m 893.56637,238.66081 -10.0005,-26.75812 12.1627,24.73099 -2.2974,-34.7315 4.3246,32.70437 6.2165,-11.08165 -6.4868,15.81162 z"
       id="path34" /><path
       style="opacity:1;fill:#412051;fill-opacity:1;stroke:none;stroke-width:1.32292"
       d="m 1055.8594,247.20774 0.036,-35.00411 3.0909,33.55684 4.3714,-14.40623 -2.4411,15.67397 20.0531,-31.88652 -17.5734,34.59381 z"
       id="path50" /><path
       style="opacity:1;fill:#412051;fill-opacity:1;stroke:none;stroke-width:1.32292"
       d="m 1032.4923,253.12101 -12.7033,-22.29843 14.1899,19.59559 -5.4057,-30.00153 6.8922,28.65011 2.5677,-15.54133 -0.8108,16.21704 10.0005,-17.29818 -9.1897,21.2173 z"
       id="path51" /><path
       style="opacity:1;fill:#412051;fill-opacity:1;stroke:none;stroke-width:1.32292"
       d="m 940.59577,252.58044 -12.7034,-22.29843 14.1899,19.59559 -5.4056,-30.00153 6.8922,28.65011 2.5677,-15.54133 -0.8108,16.21704 10.0005,-17.29818 -9.1897,21.2173 z"
       id="path62" /><path
       style="opacity:1;fill:#412051;fill-opacity:1;stroke:none;stroke-width:1.32292"
       d="m 952.58637,261.01388 -2.0096,-40.1508 7.3251,37.76778 8.4328,-42.97692 -4.6586,48.31468 20.1435,-28.24399 -13.4481,29.8739 z"
       id="path63" /><path
       style="opacity:1;fill:#412051;fill-opacity:1;stroke:none;stroke-width:1.32292"
       d="m 922.62187,245.6882 -9.3248,-22.56872 10.1357,19.19017 v -25.94727 l 1.8919,27.83926 4.5949,-4.72998 -3.2434,6.48682 z"
       id="path64" /><path
       style="opacity:1;fill:#412051;fill-opacity:1;stroke:none;stroke-width:1.32292"
       d="m 897.44847,255.33791 -2.0097,-40.1508 7.3252,37.76778 8.4328,-42.97692 -4.6586,48.31468 20.1435,-28.24399 -13.4481,29.8739 z"
       id="path65" /><path
       style="opacity:1;fill:#412051;fill-opacity:1;stroke:none;stroke-width:1.32292"
       d="m 903.43167,241.90422 -9.3248,-22.56872 10.1357,19.19017 V 212.5784 l 1.892,27.83926 4.5948,-4.72998 -3.2434,6.48682 z"
       id="path66" /><path
       style="opacity:1;fill:#412051;fill-opacity:1;stroke:none;stroke-width:1.32292"
       d="m 998.5347,258.85161 -2.0097,-40.1508 7.3252,37.76778 8.4328,-42.97692 -4.6586,48.31468 20.1435,-28.24399 -13.4481,29.8739 z"
       id="path67" /><path
       style="opacity:1;fill:#412051;fill-opacity:1;stroke:none;stroke-width:1.32292"
       d="m 1002.8592,251.55394 -2.0096,-40.1508 7.3251,37.76778 8.4328,-42.97692 -4.6586,48.31468 20.1435,-28.24399 -13.4481,29.8739 z"
       id="path68" /><path
       style="opacity:1;fill:#412051;fill-opacity:1;stroke:none;stroke-width:1.32292"
       d="m 951.50527,246.95911 -2.0097,-40.1508 7.3252,37.76778 8.4328,-42.97692 -4.6586,48.31468 20.1435,-28.24399 -13.4481,29.8739 z"
       id="path69" /><path
       style="opacity:1;fill:#412051;fill-opacity:1;stroke:none;stroke-width:1.32292"
       d="m 1076.0081,246.49905 -13.6494,-21.2173 14.1899,17.29818 -2.0271,-9.05451 3.784,8.10852 13.1087,-17.70361 -12.433,22.70386 z"
       id="path70" /><path
       style="opacity:1;fill:#412051;fill-opacity:1;stroke:none;stroke-width:1.32292"
       d="m 1064.7543,245.06712 -2.0097,-40.1508 7.3252,37.76778 8.4328,-42.97692 -4.6586,48.31468 20.1435,-28.24399 -13.4481,29.8739 z"
       id="path71" /><path
       style="opacity:1;fill:#412051;fill-opacity:1;stroke:none;stroke-width:1.32292"
       d="m 1091.9178,252.49993 -2.0096,-40.1508 7.3251,37.76778 8.4328,-42.97692 -4.6586,48.31468 20.1435,-28.24399 -13.4481,29.8739 z"
       id="path72" /><path
       style="opacity:1;fill:#412051;fill-opacity:1;stroke:none;stroke-width:1.32292"
       d="m 1102.7662,246.76933 -12.7034,-22.29843 14.1899,19.59559 -5.4057,-30.00153 6.8923,28.65011 2.5677,-15.54133 -0.8109,16.21704 10.0006,-17.29818 -9.1897,21.2173 z"
       id="path73" /></g></svg>
