<?xml version="1.0" encoding="UTF-8" standalone="no"?>
<!-- Created with Inkscape (http://www.inkscape.org/) -->

<svg
   width="1920.0002"
   height="1080"
   viewBox="0 0 508.00004 285.74999"
   version="1.1"
   id="svg1"
   xml:space="preserve"
   inkscape:version="1.3.2 (091e20e, 2023-11-25, custom)"
   sodipodi:docname="idea 2.svg"
   inkscape:export-filename="..\wallpaper.png"
   inkscape:export-xdpi="96"
   inkscape:export-ydpi="96"
   xmlns:inkscape="http://www.inkscape.org/namespaces/inkscape"
   xmlns:sodipodi="http://sodipodi.sourceforge.net/DTD/sodipodi-0.dtd"
   xmlns="http://www.w3.org/2000/svg"
   xmlns:svg="http://www.w3.org/2000/svg"><sodipodi:namedview
     id="namedview1"
     pagecolor="#ffffff"
     bordercolor="#cccccc"
     borderopacity="1"
     inkscape:showpageshadow="0"
     inkscape:pageopacity="1"
     inkscape:pagecheckerboard="0"
     inkscape:deskcolor="#d1d1d1"
     inkscape:document-units="px"
     inkscape:zoom="0.35355339"
     inkscape:cx="3541.1908"
     inkscape:cy="782.0601"
     inkscape:window-width="1920"
     inkscape:window-height="991"
     inkscape:window-x="-9"
     inkscape:window-y="-9"
     inkscape:window-maximized="1"
     inkscape:current-layer="layer1" /><defs
     id="defs1" /><g
     inkscape:label="Layer 1"
     inkscape:groupmode="layer"
     id="layer1"
     transform="translate(-948.9137)"><rect
       style="fill:none;stroke-width:0.529167"
       id="rect102"
       width="508"
       height="285.75"
       x="948.9137"
       y="0" /><g
       id="g96"
       transform="matrix(0.38902626,0,0,0.38902626,455.33063,104.11499)"
       inkscape:export-filename="..\tools\website\assets\icons-svg\long_logo.svg"
       inkscape:export-xdpi="58.349239"
       inkscape:export-ydpi="58.349239"
       style="fill:#ffffff;fill-opacity:1;stroke-width:2.57052"><g
         id="g93"
         style="fill:#ffffff;fill-opacity:1;stroke-width:4.87718"
         transform="matrix(0.52704913,0,0,0.52704913,1764.1709,-63.767321)"><path
           style="fill:#ffffff;fill-opacity:1;stroke:none;stroke-width:2.58083"
           d="m 135.21788,147.73118 c 0,0 0.68483,2.2406 1.46601,3.05748 0.61301,0.64103 2.21994,1.46592 2.21994,1.46592 0,0 1.6644,-3.38417 2.89013,-4.60717 0.99613,-0.99392 4.48178,-3.18314 4.48178,-3.18314 0,0 -0.1394,-0.56496 -1.00526,-2.7643 -0.83575,-2.12286 -1.7592,-2.93183 -1.7592,-2.93183 0,0 -2.42831,0.97245 -4.90065,4.0208 -1.99474,2.45948 -3.39275,4.94224 -3.39275,4.94224 z"
           id="path77"
           sodipodi:nodetypes="cscscscsc" /><path
           style="fill:#ffffff;fill-opacity:1;stroke:none;stroke-width:2.58083"
           d="m 148.16061,145.13441 c 0,0 -3.77682,2.32339 -5.15196,3.7695 -1.37514,1.44612 -2.76447,4.18834 -2.76447,4.18834 0,0 3.63783,2.13366 5.6127,6.0312 1.74361,3.44113 2.13618,6.45004 2.13618,6.45004 0,0 2.59724,-3.66956 2.63881,-10.17766 0.0382,-5.989 -2.47126,-10.26142 -2.47126,-10.26142 z"
           id="path78"
           sodipodi:nodetypes="czcscsc" /><path
           style="fill:#ffffff;fill-opacity:1;stroke:none;stroke-width:2.58083"
           d="m 151.09261,147.73118 c 0,0 1.16582,4.06732 1.29846,7.12017 0.11897,2.73785 -1.21469,7.66465 -1.21469,7.66465 0,0 5.65911,-4.07714 7.1206,-7.74843 2.35019,-5.90369 0.37697,-11.76921 0.37697,-11.76921 0,0 -2.48871,0.3956 -4.60744,1.84286 -1.45354,0.99289 -2.9739,2.88996 -2.9739,2.88996 z"
           id="path79"
           sodipodi:nodetypes="cscscsc" /><path
           style="fill:#ffffff;fill-opacity:1;stroke:none;stroke-width:2.58083"
           d="m 141.50076,181.27974 c 0,0 3.96753,-4.21983 4.98441,-6.95264 0.79476,-2.13586 1.3934,-5.16099 3.09955,-7.66465 4.45845,-6.54248 20.06332,-13.19325 20.06332,-13.19325 0,0 -1.44248,11.89905 -6.74362,17.63289 -9.3071,10.06676 -12.67081,9.2025 -21.40366,10.17765 z"
           id="path80"
           sodipodi:nodetypes="csscsc" /><path
           id="path81"
           style="fill:#ffffff;fill-opacity:1;stroke:none;stroke-width:2.58083"
           d="m 134.88279,151.91951 c 0,0 -4.74443,1.42404 -7.76022,5.5286 -3.01577,4.10457 -5.78024,10.38707 -2.51314,16.50204 2.98829,5.59314 5.28692,7.87407 10.27336,7.70654 m 0,-29.73718 c 0,0 4.60744,1.42404 7.62323,5.5286 3.01578,4.10457 5.78024,10.38707 2.51314,16.50204 -2.98829,5.59314 -5.14993,7.87407 -10.13637,7.70654" /><path
           style="fill:#ffffff;fill-opacity:1;stroke:none;stroke-width:2.58083"
           d="m 134.41071,147.73118 c 0,0 -0.68483,2.2406 -1.466,3.05748 -0.61302,0.64103 -2.21995,1.46592 -2.21995,1.46592 0,0 -1.6644,-3.38417 -2.89013,-4.60717 -0.99613,-0.99392 -4.48178,-3.18314 -4.48178,-3.18314 0,0 0.1394,-0.56496 1.00526,-2.7643 0.83575,-2.12286 1.7592,-2.93183 1.7592,-2.93183 0,0 2.42832,0.97245 4.90065,4.0208 1.99475,2.45948 3.39275,4.94224 3.39275,4.94224 z"
           id="path82"
           sodipodi:nodetypes="cscscscsc" /><path
           style="fill:#ffffff;fill-opacity:1;stroke:none;stroke-width:2.58083"
           d="m 121.46799,145.13441 c 0,0 3.77681,2.32339 5.15195,3.7695 1.37515,1.44612 2.76447,4.18834 2.76447,4.18834 0,0 -3.63783,2.13366 -5.6127,6.0312 -1.7436,3.44113 -2.13618,6.45004 -2.13618,6.45004 0,0 -2.59723,-3.66956 -2.6388,-10.17766 -0.0382,-5.989 2.47126,-10.26142 2.47126,-10.26142 z"
           id="path83"
           sodipodi:nodetypes="czcscsc" /><path
           style="fill:#ffffff;fill-opacity:1;stroke:none;stroke-width:2.58083"
           d="m 118.53598,147.73118 c 0,0 -1.16582,4.06732 -1.29846,7.12017 -0.11896,2.73785 1.21469,7.66465 1.21469,7.66465 0,0 -5.6591,-4.07714 -7.1206,-7.74843 -2.35019,-5.90369 -0.37697,-11.76921 -0.37697,-11.76921 0,0 2.48871,0.3956 4.60744,1.84286 1.45354,0.99289 2.9739,2.88996 2.9739,2.88996 z"
           id="path84"
           sodipodi:nodetypes="cscscsc" /><path
           style="fill:#ffffff;fill-opacity:1;stroke:none;stroke-width:2.58083"
           d="m 128.12784,181.27974 c 0,0 -3.96753,-4.21983 -4.98442,-6.95264 -0.79476,-2.13586 -1.3934,-5.16099 -3.09955,-7.66465 -4.45845,-6.54248 -20.063314,-13.19325 -20.063314,-13.19325 0,0 1.442474,11.89905 6.743614,17.63289 9.3071,10.06676 12.67081,9.2025 21.40367,10.17765 z"
           id="path85"
           sodipodi:nodetypes="csscsc" /><path
           style="fill:#ffffff;fill-opacity:1;stroke:none;stroke-width:2.58083"
           d="m 73.087549,164.37567 c -0.565082,-0.52845 -1.028771,1.25704 -0.829297,2.16779 0.733532,3.34914 3.410879,1.10883 29.499288,30.44524 8.99995,10.12045 18.37594,19.76513 35.42284,19.90195 15.89675,0.1276 23.69421,-4.2647 23.69421,-4.2647 0,0 -2.6311,-4.43893 -4.36905,-8.23499 -2.85615,-6.23841 -2.43883,-12.86002 -2.43883,-12.86002 0,0 -20.44535,4.8353 -36.14135,1.05304 -25.936608,-6.24994 -35.114561,-19.11522 -44.837811,-28.20831 z"
           id="path86"
           sodipodi:nodetypes="sssscscss" /><path
           style="fill:#ffffff;fill-opacity:1;stroke:none;stroke-width:2.58083"
           d="m 168.16056,169.44583 c 0,0 -9.89279,4.58634 -12.14031,20.76763 -1.5369,11.06516 6.83872,21.58324 6.83872,21.58324 0,0 1.39381,0.56036 3.06378,-0.58215 1.60932,-1.10103 2.00086,-2.32021 2.00086,-2.32021 0,0 -5.57965,-8.28412 -4.6796,-17.41421 1.17371,-11.90602 9.18571,-18.29797 9.18571,-18.29797 0,0 0.42777,-1.0115 -1.13564,-2.60795 -1.05233,-1.07456 -3.13352,-1.12838 -3.13352,-1.12838 z"
           id="path87"
           sodipodi:nodetypes="cscscscsc" /><path
           id="path88"
           style="fill:#ffffff;fill-opacity:1;stroke:none;stroke-width:2.58083"
           d="m 134.84786,145.03304 -2.73182,-3.83014 0.0763,-9.88097 c 0,0 -4.19614,2.83118 -8.53522,1.75266 -9.85853,-2.81449 -5.056,-10.63583 -4.49625,-17.47587 0.0744,-3.36953 -0.57501,-10.04826 -0.57501,-10.04826 0,0 3.47165,2.90298 4.35999,4.96807 2.43796,5.66733 -2.88367,12.77249 0.15242,16.40903 1.13139,1.35514 3.57099,1.62739 5.2075,0.96524 4.30043,-1.74001 3.18494,-4.46784 2.66726,-6.88367 -1.41559,-6.60601 2.02173,-19.0613 3.87487,-28.449092 m 3e-5,52.473002 2.56566,-3.83014 -0.0763,-9.88097 c 0,0 4.19613,2.83118 8.53522,1.75266 9.85853,-2.81449 5.056,-10.63583 4.49625,-17.47587 -0.0744,-3.36953 0.57503,-10.04826 0.57503,-10.04826 0,0 -3.47165,2.90298 -4.36,4.96807 -2.43795,5.66733 2.88367,12.77249 -0.15242,16.40903 -1.13138,1.35514 -3.57099,1.62739 -5.20751,0.96524 -4.30041,-1.74001 -3.18493,-4.46784 -2.66725,-6.88367 1.41558,-6.60601 -1.85563,-19.0613 -3.70877,-28.449092" /><path
           style="fill:#ffffff;fill-opacity:1;stroke:none;stroke-width:2.58083"
           d="m 174.42302,174.14383 c 0,0 -8.69782,5.49144 -9.34053,19.39199 -0.32029,6.92709 4.64932,13.90527 4.64932,13.90527 0,0 1.09417,0.48354 2.93201,-1.08896 1.74813,-1.49575 1.88486,-2.76431 1.88486,-2.76431 0,0 -3.1759,-8.03202 -2.26184,-13.5702 1.07741,-6.52789 6.241,-12.48124 6.241,-12.48124 0,0 -0.30362,-1.29454 -1.5079,-2.55488 -0.71742,-0.75081 -2.59692,-0.83767 -2.59692,-0.83767 z"
           id="path89"
           sodipodi:nodetypes="cscscscsc" /><path
           style="fill:#ffffff;fill-opacity:1;stroke:none;stroke-width:2.58083"
           d="m 180.03573,178.62535 c 0,0 -4.97889,5.75364 -5.82213,11.35039 -0.81242,5.39216 1.80109,12.14616 1.80109,12.14616 0,0 0.67741,-0.0821 2.03146,-0.60729 1.77361,-0.68787 2.61787,-2.65959 2.61787,-2.65959 0,0 -1.23665,-4.51266 -0.67018,-8.12537 0.73755,-4.70373 3.81161,-8.37667 3.81161,-8.37667 0,0 0.16667,-1.95681 -2.09429,-3.43443 z"
           id="path90"
           sodipodi:nodetypes="cscscsccc" /><path
           style="fill:#ffffff;fill-opacity:1;stroke:none;stroke-width:2.58083"
           d="m 185.29995,183.44214 c 0,0 -2.65971,3.78331 -3.33751,7.38644 -0.43147,2.29359 0.40684,6.25133 0.40684,6.25133 0,0 0.94564,-1.08406 1.93085,-1.51137 1.96782,-0.85349 2.10076,-1.87684 2.10076,-1.87684 0,0 -0.72718,-1.76583 -0.3512,-3.12964 0.82045,-2.97616 2.97657,-5.00511 2.97657,-5.00511 0,0 -0.51267,-1.33424 -1.97614,-1.79431 z"
           id="path91"
           sodipodi:nodetypes="cscscsccc" /><path
           style="fill:#ffffff;fill-opacity:1;stroke:none;stroke-width:2.58083"
           d="m 189.96641,186.86721 c 0,0 -1.26374,1.37024 -1.59936,1.98428 -1.34011,2.4518 -0.56272,3.8945 -0.56272,3.8945 0,0 1.84221,-1.9564 3.03582,-2.38408 1.50264,-0.53839 2.91735,-0.99214 2.91735,-0.99214 0,0 -1.09179,-1.25767 -1.71913,-1.67179 -0.63635,-0.42007 -2.07196,-0.83077 -2.07196,-0.83077 z"
           id="path92"
           sodipodi:nodetypes="cscscsc" /><path
           style="fill:#ffffff;fill-opacity:1;stroke:none;stroke-width:2.58083"
           d="m 156.90159,179.67719 c -12.67261,5.57883 -36.37776,4.37441 -43.6541,-0.25725 -8.62954,-5.49302 -35.187126,-20.7262 -39.449114,-16.21346 0,0 13.77851,13.5497 20.021607,17.17728 19.795037,11.50199 34.417797,15.17286 60.212897,9.4179 0,0 0.32043,-2.71742 1.1551,-5.21242 0.88605,-2.64856 1.71361,-4.91205 1.71361,-4.91205 z"
           id="path93"
           sodipodi:nodetypes="cscscsc" /></g><path
         d="m 1873.8036,2.6189486 h 11.9822 v 3.7097757 h -7.7607 v 3.8519127 h 7.6754 v 3.596066 h -7.6754 v 3.894554 h 7.7607 v 3.709776 h -11.9822 z m 15.2371,0 h 5.6287 q 2.999,0 4.9747,1.2081645 1.9758,1.1939508 2.9565,3.3117921 0.9807,2.1178414 0.9807,4.8468718 0,2.743244 -0.9807,4.861086 -0.9807,2.117841 -2.9565,3.326005 -1.9614,1.208165 -4.9747,1.208165 h -5.6287 z m 4.2215,3.7666305 V 17.614402 h 1.0376 q 1.6061,0 2.658,-0.724898 1.066,-0.724899 1.5919,-1.989918 0.5259,-1.279233 0.5259,-2.885382 0.014,-1.606148 -0.5117,-2.8853807 -0.5259,-1.279233 -1.5919,-2.0041318 -1.0661,-0.7391124 -2.6722,-0.7391124 z m 12.9487,-3.7666305 h 4.2357 V 21.381033 h -4.2357 z m 11.442,3.8803401 0.3127,0.056855 V 21.381033 h -4.2357 V 2.6189486 h 5.785 l 7.6186,14.7964624 -0.3127,0.05685 V 2.6189486 h 4.2357 V 21.381033 h -5.8135 z m 16.7296,-3.8803401 h 6.4245 q 1.6062,0 2.9849,0.4406247 1.3787,0.4406247 2.2174,1.4497974 0.8386,0.994959 0.8386,2.7006031 0,1.1228823 -0.4264,2.0041317 -0.4122,0.8812495 -1.1087,1.4497975 -0.6823,0.554334 -1.4782,0.739112 0.7106,0.08528 1.3787,0.412198 0.668,0.312701 1.2082,0.881249 0.5543,0.554334 0.8812,1.392943 0.3269,0.824394 0.3269,1.96149 0,1.577721 -0.7107,2.785886 -0.6964,1.19395 -2.0467,1.876208 -1.3503,0.668044 -3.2976,0.668044 h -7.1921 z m 4.2356,15.3650104 h 1.9473 q 0.9239,0 1.4924,-0.270061 0.5686,-0.27006 0.8387,-0.795967 0.2842,-0.525907 0.2842,-1.250806 0,-1.137096 -0.7107,-1.677216 -0.7106,-0.540121 -1.9757,-0.540121 h -1.8762 z m 0,-7.845963 h 1.7341 q 0.7533,0 1.265,-0.2700603 0.5117,-0.2700603 0.7676,-0.7533261 0.27,-0.4974795 0.27,-1.137096 0,-1.1655235 -0.668,-1.5635071 -0.6538,-0.3979836 -1.7909,-0.3979836 h -1.5778 z m 22.3866,-7.5190474 h 4.2215 V 14.146259 q 0,2.316834 -0.9097,4.022478 -0.8955,1.69143 -2.5869,2.629534 -1.6914,0.923891 -4.0367,0.923891 -2.3594,0 -4.0651,-0.923891 -1.6914,-0.938104 -2.6011,-2.629534 -0.9097,-1.705644 -0.9097,-4.022478 V 2.6189486 h 4.2215 V 13.91884 q 0,1.293447 0.4122,2.174696 0.4122,0.88125 1.1513,1.336088 0.7533,0.440625 1.7909,0.440625 1.0092,0 1.7483,-0.440625 0.7391,-0.454838 1.1513,-1.336088 0.4122,-0.881249 0.4122,-2.174696 z m 7.1495,0 h 7.647 q 1.6345,0 2.9138,0.6822576 1.2792,0.6822576 2.0183,1.9614906 0.7391,1.279233 0.7391,3.0701593 0,1.7767129 -0.6254,2.9138089 -0.6254,1.122882 -1.5208,1.69143 -0.8813,0.554334 -1.6346,0.668044 l 4.5626,7.774894 h -4.7616 l -4.0651,-7.447979 h -1.0376 v 7.447979 h -4.2357 z m 4.2357,8.3718694 h 1.8904 q 1.1371,0 1.9899,-0.554334 0.8528,-0.5543346 0.8528,-1.9614909 0,-1.4213701 -0.8386,-1.9614907 -0.8386,-0.5401206 -1.9757,-0.5401206 h -1.9188 z m 20.5597,-0.08528 h 9.5516 v 1.179737 q 0,2.018345 -0.6822,3.766631 -0.6681,1.748285 -1.9189,3.070159 -1.2508,1.321874 -2.9849,2.060986 -1.7198,0.739113 -3.8235,0.739113 -2.1747,0 -3.9514,-0.739113 -1.7625,-0.753326 -3.0417,-2.089414 -1.2792,-1.336087 -1.9615,-3.098586 -0.6822,-1.776713 -0.6822,-3.809272 0,-2.0183454 0.6822,-3.7808442 0.6823,-1.7767126 1.9615,-3.0985867 1.2792,-1.3360878 3.0417,-2.0752002 1.7767,-0.7533262 3.9514,-0.7533262 1.7768,0 3.1271,0.38377 1.3503,0.3837699 2.331,1.0233864 0.995,0.6396165 1.6772,1.4071563 0.6823,0.7533261 1.1229,1.4782248 l -4.0083,1.8904222 q -0.5827,-0.8954631 -1.5919,-1.5635071 -1.0092,-0.6680439 -2.658,-0.6680439 -1.1655,0 -2.132,0.4548384 -0.9523,0.4548384 -1.6488,1.2508057 -0.6965,0.7959672 -1.0802,1.8335673 -0.3696,1.0376002 -0.3696,2.2173372 0,1.179737 0.3696,2.231551 0.3837,1.0376 1.0802,1.833567 0.6965,0.795968 1.6488,1.250806 0.9665,0.440625 2.132,0.440625 1.0092,0 1.8336,-0.255847 0.8386,-0.27006 1.4356,-0.753326 0.597,-0.483266 0.9523,-1.137096 0.3554,-0.668044 0.4264,-1.464011 h -4.79 z m 22.7135,2.913808 h -6.4956 v 7.561689 h -4.2215 V 2.6189486 h 4.2215 v 7.5048334 h 6.4956 V 2.6189486 h 4.2215 V 21.381033 h -4.2215 z"
         id="path94"
         style="font-size:28.4274px;font-family:'League Spartan';-inkscape-font-specification:'League Spartan, @wght=698';font-variation-settings:'wght' 698;stroke-width:1.36023"
         aria-label="EDINBURGH" /><path
         d="m 1884.4987,38.823074 h -3.9127 q -0.1948,0 -0.1948,-0.194823 V 37.80025 q 0,-0.194823 0.1948,-0.194823 h 1.2502 v -3.977649 h -6.0396 v 3.977649 h 1.2501 q 0.2111,0 0.2111,0.194823 v 0.828001 q 0,0.194823 -0.2111,0.194823 h -3.8964 q -0.2111,0 -0.2111,-0.194823 V 37.80025 q 0,-0.194823 0.2111,-0.194823 h 1.2338 v -9.221651 h -1.2338 q -0.2111,0 -0.2111,-0.194823 v -0.828001 q 0,-0.194823 0.2111,-0.194823 h 3.8964 q 0.2111,0 0.2111,0.194823 v 0.828001 q 0,0.194823 -0.2111,0.194823 h -1.2501 v 4.058825 h 6.0396 v -4.058825 h -1.2502 q -0.1948,0 -0.1948,-0.194823 v -0.828001 q 0,-0.194823 0.1948,-0.194823 h 3.9127 q 0.1949,0 0.1949,0.194823 v 0.828001 q 0,0.194823 -0.1949,0.194823 h -1.2501 v 9.221651 h 1.2501 q 0.1949,0 0.1949,0.194823 v 0.828001 q 0,0.194823 -0.1949,0.194823 z m 5.7798,0 h -3.8965 q -0.211,0 -0.211,-0.194823 V 37.80025 q 0,-0.194823 0.211,-0.194823 h 1.2339 v -9.221651 h -1.2339 q -0.211,0 -0.211,-0.194823 v -0.828001 q 0,-0.194823 0.211,-0.194823 h 3.8965 q 0.2111,0 0.2111,0.194823 v 0.828001 q 0,0.194823 -0.2111,0.194823 h -1.2501 v 9.221651 h 1.2501 q 0.2111,0 0.2111,0.194823 v 0.828001 q 0,0.194823 -0.2111,0.194823 z m 11.7868,0 h -0.8767 q -0.3084,0 -0.487,-0.113647 -0.1786,-0.129882 -0.341,-0.389647 l -4.692,-7.338356 -0.8117,-1.363765 h -0.033 v 7.987768 h 1.2501 q 0.2111,0 0.2111,0.194823 v 0.828001 q 0,0.194823 -0.2111,0.194823 h -3.8964 q -0.2111,0 -0.2111,-0.194823 V 37.80025 q 0,-0.194823 0.2111,-0.194823 h 1.2338 v -9.221651 h -1.2338 q -0.2111,0 -0.2111,-0.194823 v -0.828001 q 0,-0.194823 0.2111,-0.194823 h 2.2729 q 0.4708,0 0.828,0.552 l 4.6271,7.240944 0.9254,1.574824 h 0.032 v -8.150121 h -1.2501 q -0.1948,0 -0.1948,-0.194823 v -0.828001 q 0,-0.194823 0.1948,-0.194823 h 3.9127 q 0.1949,0 0.1949,0.194823 v 0.828001 q 0,0.194823 -0.1949,0.194823 h -1.2501 v 10.244475 q 0,0.194823 -0.2111,0.194823 z m 7.7605,0 h -4.6595 q -0.1948,0 -0.1948,-0.194823 V 37.80025 q 0,-0.194823 0.1948,-0.194823 h 1.2501 v -9.221651 h -1.2501 q -0.1948,0 -0.1948,-0.194823 v -0.828001 q 0,-0.194823 0.1948,-0.194823 h 4.3835 q 2.6951,0 4.2861,1.558589 1.5911,1.542353 1.5911,4.253648 0,2.711295 -1.5099,4.28612 -1.5099,1.558588 -4.0913,1.558588 z m -1.9969,-1.217647 h 1.6073 q 4.5134,-0.03247 4.5134,-4.59459 0,-2.191766 -1.169,-3.409413 -1.1527,-1.217648 -3.3931,-1.217648 h -1.5586 z m 17.1769,-3.003531 v -6.21812 h -1.2501 q -0.1948,0 -0.1948,-0.194823 v -0.828001 q 0,-0.194823 0.1948,-0.194823 h 3.9127 q 0.1948,0 0.1948,0.194823 v 0.828001 q 0,0.194823 -0.1948,0.194823 h -1.2501 v 6.072003 q 0,2.191765 -1.1527,3.344471 -1.1365,1.136471 -3.2308,1.136471 -2.0781,0 -3.2309,-1.136471 -1.1527,-1.152706 -1.1527,-3.344471 v -6.072003 h -1.2338 q -0.2111,0 -0.2111,-0.194823 v -0.828001 q 0,-0.194823 0.2111,-0.194823 h 3.8964 q 0.2111,0 0.2111,0.194823 v 0.828001 q 0,0.194823 -0.2111,0.194823 h -1.2501 v 6.120709 q 0,3.117177 2.9873,3.117177 1.5261,0 2.2405,-0.79553 0.7143,-0.811765 0.7143,-2.224236 z m 10.6179,4.221178 h -0.9092 q -0.211,0 -0.211,-0.194823 v -3.79906 q 0,-0.211059 0.211,-0.211059 h 1.0228 q 0.1949,0 0.1949,0.211059 v 0.340941 q 0,0.308471 0.3734,0.828 0.3734,0.503294 0.7468,0.828 0.3734,0.324706 0.9904,0.568236 0.6331,0.227294 1.3637,0.227294 1.2501,0 1.9483,-0.519529 0.7143,-0.51953 0.7143,-1.444942 0,-0.535765 -0.4059,-0.909177 -0.3896,-0.389647 -1.0228,-0.616941 -0.6332,-0.227295 -1.4125,-0.422118 -0.763,-0.194824 -1.5423,-0.438353 -0.7631,-0.259765 -1.3963,-0.600706 -0.6331,-0.357177 -1.039,-0.974118 -0.3897,-0.633177 -0.3897,-1.477413 0,-1.363765 1.0229,-2.256706 1.039,-0.892942 2.7762,-0.892942 2.1918,0 3.2146,1.282589 l -0.033,-1.006589 q 0,-0.194823 0.2111,-0.194823 h 0.9092 q 0.1948,0 0.1948,0.194823 v 3.539296 q 0,0.194823 -0.1948,0.194823 h -1.0229 q -0.1948,0 -0.1948,-0.194823 v -0.454589 q 0,-0.665647 -0.7468,-1.34753 -0.7468,-0.681882 -2.1918,-0.681882 -1.0715,0 -1.7372,0.519529 -0.6494,0.503295 -0.6494,1.298824 0,0.568236 0.4059,0.974118 0.4059,0.405883 1.0553,0.649412 0.6494,0.24353 1.4287,0.454589 0.7793,0.194823 1.5586,0.438353 0.7793,0.243529 1.4287,0.584471 0.6494,0.340941 1.0553,0.941647 0.4059,0.584471 0.4059,1.396236 0,1.428706 -1.0228,2.354118 -1.0229,0.925412 -3.0523,0.925412 -1.4936,0 -2.4677,-0.600706 -0.9742,-0.600706 -1.4125,-1.298824 l 0.016,1.59106 q 0,0.194823 -0.1948,0.194823 z m 20.7974,-5.877178 q 0,2.662589 -1.6073,4.334825 -1.591,1.656 -4.0263,1.656 -2.4191,0 -4.0426,-1.672235 -1.6235,-1.688472 -1.6235,-4.334826 0,-2.662589 1.6722,-4.253648 1.6722,-1.607295 3.9939,-1.607295 2.3216,0 3.9776,1.607295 1.656,1.591059 1.656,4.269884 z m -8.5397,3.441883 q 1.2501,1.233883 2.9061,1.233883 1.656,0 2.8899,-1.233883 1.2339,-1.250118 1.2339,-3.409413 0,-2.17553 -1.2664,-3.393177 -1.2501,-1.233883 -2.8574,-1.233883 -1.6073,0 -2.8737,1.233883 -1.2663,1.217647 -1.2663,3.393177 0,2.159295 1.2339,3.409413 z m 20.6837,-0.503294 q 0.081,0.06494 0.081,0.162353 0,0.08118 -0.081,0.24353 -0.065,0.146117 -0.2435,0.405882 -0.1623,0.24353 -0.6007,0.681883 -0.4383,0.438353 -0.9579,0.763059 -0.5195,0.30847 -1.38,0.552 -0.8442,0.243529 -1.8183,0.243529 -2.3704,0 -3.9614,-1.656 -1.5749,-1.656001 -1.5749,-4.334825 0,-2.69506 1.5911,-4.286119 1.6073,-1.59106 3.864,-1.59106 2.5165,0 3.6529,1.737177 l -0.016,-1.444942 q -0.033,-0.194823 0.1948,-0.194823 h 0.9092 q 0.2111,0 0.2111,0.194823 v 3.539296 q 0,0.211059 -0.2111,0.211059 h -1.0228 q -0.1948,0 -0.1948,-0.211059 V 30.75413 q 0,-0.746824 -1.0229,-1.542353 -1.0066,-0.811765 -2.5164,-0.811765 -1.5099,0 -2.7276,1.201412 -1.2014,1.185177 -1.2014,3.376942 0,2.175531 1.2177,3.393178 1.2176,1.201412 2.8574,1.201412 1.7696,0 2.7924,-0.795529 0.7956,-0.616942 1.169,-1.250119 0.1299,-0.243529 0.3085,-0.09741 z m 5.4389,2.938589 h -3.8965 q -0.211,0 -0.211,-0.194823 V 37.80025 q 0,-0.194823 0.211,-0.194823 h 1.2339 v -9.221651 h -1.2339 q -0.211,0 -0.211,-0.194823 v -0.828001 q 0,-0.194823 0.211,-0.194823 h 3.8965 q 0.211,0 0.211,0.194823 v 0.828001 q 0,0.194823 -0.211,0.194823 h -1.2501 v 9.221651 h 1.2501 q 0.211,0 0.211,0.194823 v 0.828001 q 0,0.194823 -0.211,0.194823 z m 10.5205,0 h -8.621 q -0.211,0 -0.211,-0.194823 V 37.80025 q 0,-0.194823 0.211,-0.194823 h 1.2339 v -9.221651 h -1.2339 q -0.211,0 -0.211,-0.194823 v -0.828001 q 0,-0.194823 0.211,-0.194823 h 8.621 q 0.211,0 0.211,0.194823 v 2.613884 q 0,0.211059 -0.211,0.211059 h -0.8767 q -0.1949,0 -0.1949,-0.211059 v -1.59106 h -4.903 v 4.026355 h 4.1075 q 0.2111,0 0.2111,0.194823 v 0.828001 q 0,0.194823 -0.2111,0.194823 h -4.1075 v 3.977649 h 4.8868 v -1.59106 q 0,-0.194823 0.2111,-0.194823 h 0.8767 q 0.211,0 0.211,0.194823 v 2.613884 q 0,0.194823 -0.211,0.194823 z m 8.7508,0 h -3.7828 q -0.2111,0 -0.2111,-0.211059 v -0.795529 q 0,-0.211059 0.2111,-0.211059 h 1.2338 v -9.221651 h -3.0684 v 1.720942 q 0,0.227294 -0.2273,0.227294 h -0.9092 q -0.2273,0 -0.2273,-0.227294 v -2.72753 q 0,-0.211059 0.2273,-0.211059 h 9.7899 q 0.2273,0 0.2273,0.211059 v 2.72753 q 0,0.227294 -0.2273,0.227294 h -0.9254 q -0.2111,0 -0.2111,-0.227294 v -1.720942 h -3.036 v 9.221651 h 1.1365 q 0.2273,0 0.2273,0.211059 v 0.795529 q 0,0.211059 -0.2273,0.211059 z m 11.5758,0 h -3.9128 q -0.1948,0 -0.1948,-0.194823 V 37.80025 q 0,-0.194823 0.1948,-0.194823 h 1.2502 v -3.474354 l -0.6494,-1.120236 q -2.1106,-3.750354 -2.7113,-4.627061 h -1.104 q -0.2111,0 -0.2111,-0.194823 v -0.828001 q 0,-0.194823 0.2111,-0.194823 h 3.6529 q 0.1948,0 0.1948,0.194823 v 0.828001 q 0,0.194823 -0.1948,0.194823 h -1.0715 l 2.5489,4.513414 h 0.097 l 2.5327,-4.513414 h -1.0715 q -0.1948,0 -0.1948,-0.194823 v -0.828001 q 0,-0.194823 0.1948,-0.194823 h 3.6692 q 0.1948,0 0.1948,0.194823 v 0.828001 q 0,0.194823 -0.1948,0.194823 h -1.1203 q -0.7955,1.168942 -2.0781,3.441884 -1.2663,2.272942 -1.2826,2.289177 v 3.49059 h 1.2502 q 0.1948,0 0.1948,0.194823 v 0.828001 q 0,0.194823 -0.1948,0.194823 z"
         id="path95"
         style="font-size:16.2353px;font-family:Sanchez;-inkscape-font-specification:'Sanchez, Normal';stroke-width:1.36023"
         aria-label="HINDU SOCIETY" /><path
         d="m 1878.1816,-6.8805321 h -0.6666 v 4.2695278 h -0.5206 v -2.9743848 q -0.1683,-0.060313 -0.3175,-0.060313 -0.1491,0 -0.2603,0.057139 -0.1111,0.053964 -0.1872,0.146021 -0.073,0.092057 -0.1111,0.2158572 -0.038,0.1238004 -0.038,0.2602984 0,0.053964 0,0.1111029 0.01,0.053964 0.013,0.1079286 h -0.4856 q -0.025,-0.1841135 -0.06,-0.3523551 -0.032,-0.1682416 -0.095,-0.2952164 -0.06,-0.1269748 -0.1587,-0.1999853 -0.098,-0.076185 -0.254,-0.076185 -0.1491,0 -0.2571,0.060313 -0.1047,0.060313 -0.1746,0.1682416 -0.07,0.1079286 -0.1047,0.2539496 -0.032,0.1428467 -0.032,0.3110883 0,0.3618782 0.1238,0.6507459 0.1238,0.2856933 0.3333,0.514248 0.2127,0.2285546 0.4889,0.4094937 0.2793,0.1777647 0.5873,0.3269601 l -0.2572,0.4380631 q -0.1142,-0.05079 -0.2952,-0.1523697 -0.1778,-0.1015799 -0.3809,-0.2507753 -0.2,-0.1491954 -0.4032,-0.3491807 -0.2031,-0.1999853 -0.3682,-0.4475862 -0.1619,-0.2476009 -0.2635,-0.5459917 -0.1015,-0.2983908 -0.1015,-0.6443971 0,-0.2666471 0.076,-0.4952017 0.076,-0.2317291 0.2158,-0.3999707 0.1429,-0.171416 0.3428,-0.2666471 0.2,-0.098406 0.4445,-0.098406 0.1841,0 0.3174,0.053964 0.1333,0.05079 0.2285,0.1301492 0.098,0.076185 0.1619,0.1682416 0.063,0.088882 0.1111,0.1682417 l 0.016,-0.00317 q 0.06,-0.1333236 0.1429,-0.2253803 0.086,-0.092057 0.1841,-0.1491954 0.1016,-0.057139 0.2127,-0.082534 0.1111,-0.028569 0.2222,-0.028569 0.098,0 0.1936,0.019046 0.098,0.015872 0.1873,0.047616 V -6.880528 h -3.6791 v -0.4666325 h 4.8663 z m 1.6888,0 h -0.6667 v 4.2663534 h -0.5206 v -4.2663534 h -0.7237 v -0.4666325 h 1.911 z m -0.7111,-0.3777501 h -0.4603 l -0.2888,-0.5428173 q -0.1842,-0.3460063 -0.3365,-0.549166 -0.1492,-0.2031597 -0.2825,-0.3079139 -0.1365,-0.1079286 -0.2667,-0.1364979 -0.1301,-0.031744 -0.273,-0.031744 h -0.6158 V -9.340669 h 0.5809 q 0.1841,0 0.3333,0.031744 0.1492,0.028569 0.2857,0.1079286 0.1333,0.076185 0.2603,0.2158571 0.1301,0.136498 0.2762,0.3555295 0.146,0.2158572 0.3174,0.5205967 0.1746,0.3015652 0.3968,0.7142333 z m 6.3233,0.3777501 h -2.6823 v 1.2507018 l 0.016,0.00635 q 0.1619,-0.2222059 0.4031,-0.3555294 0.2413,-0.1364979 0.5301,-0.1364979 0.2286,0 0.4222,0.095231 0.1968,0.092057 0.3397,0.2571239 0.1428,0.1618929 0.2222,0.3840988 0.082,0.2222059 0.082,0.4793299 0,0.2920421 -0.1015,0.539643 -0.1016,0.2444265 -0.2603,0.4444118 -0.1588,0.1999853 -0.3588,0.3555294 -0.1999,0.1523698 -0.3936,0.2602984 l -0.2825,-0.488853 q 0.063,-0.034918 0.1556,-0.092057 0.092,-0.057139 0.1904,-0.1333236 0.1016,-0.076185 0.1968,-0.171416 0.098,-0.098406 0.1746,-0.2126828 0.079,-0.1142773 0.127,-0.2476009 0.048,-0.1333235 0.048,-0.2825189 0,-0.1364979 -0.044,-0.2602984 -0.041,-0.1238004 -0.1175,-0.2158571 -0.076,-0.092057 -0.1841,-0.1460211 -0.1048,-0.053964 -0.2317,-0.053964 -0.1651,0 -0.3206,0.085708 -0.1556,0.085708 -0.2826,0.2158571 -0.1269,0.1269748 -0.2158,0.2729959 -0.086,0.146021 -0.1143,0.2698214 v 2.1458742 h -0.5206 v -1.2157837 l -0.013,-0.00635 q -0.048,0.041267 -0.1206,0.1015799 -0.073,0.057139 -0.1778,0.1111029 -0.1016,0.053964 -0.2381,0.092057 -0.1333,0.038092 -0.3015,0.038092 -0.2794,0 -0.5174,-0.1079286 -0.2349,-0.1079286 -0.4095,-0.292042 -0.1715,-0.1872879 -0.2699,-0.4380631 -0.098,-0.2507753 -0.098,-0.5364686 0,-0.2729958 0.089,-0.5047248 0.092,-0.231729 0.2476,-0.3967963 0.1587,-0.1682416 0.3682,-0.2602983 0.2127,-0.095231 0.4572,-0.095231 0.1714,0 0.3174,0.044441 0.1492,0.041267 0.2698,0.1047542 0.1238,0.060313 0.219,0.1333236 0.099,0.069836 0.1651,0.1269748 l 0.013,-0.00317 V -6.880528 h -2.6315 v -0.4666325 h 5.8344 z m -4.1108,1.2507018 q -0.1809,0 -0.3206,0.076185 -0.1365,0.07301 -0.2285,0.1904622 -0.092,0.1142773 -0.1397,0.2602983 -0.044,0.1428467 -0.044,0.282519 0,0.1523698 0.054,0.3047395 0.054,0.1491954 0.1524,0.2698215 0.1016,0.120626 0.2412,0.1968109 0.1397,0.073011 0.308,0.073011 0.1428,0 0.2984,-0.057139 0.1587,-0.060313 0.2888,-0.1841135 0.1333,-0.1238004 0.2191,-0.3142626 0.086,-0.1936366 0.086,-0.4602837 V -5.147326 q -0.076,-0.095231 -0.181,-0.1809391 -0.1016,-0.088882 -0.2222,-0.1555442 -0.1174,-0.066662 -0.2476,-0.1047542 -0.1301,-0.041267 -0.2635,-0.041267 z m 5.7996,-1.2507018 h -0.6666 v 4.2663534 h -0.5206 v -4.2663534 h -0.7238 v -0.4666325 h 1.911 z m 0.6625,3.7917724 q 0.091,0.084514 0.091,0.2145366 0,0.1300222 -0.091,0.2210378 -0.091,0.084514 -0.221,0.084514 -0.13,0 -0.221,-0.084514 -0.085,-0.091016 -0.085,-0.2210378 0,-0.1300222 0.091,-0.2145366 0.091,-0.091015 0.2145,-0.091015 0.13,0 0.221,0.091015 z m 0,-2.6069451 q 0.091,0.091015 0.091,0.2210377 0,0.1300222 -0.091,0.2210378 -0.091,0.084514 -0.221,0.084514 -0.1235,0 -0.2145,-0.084514 -0.091,-0.091016 -0.091,-0.2210378 0,-0.1300222 0.085,-0.2210377 0.091,-0.091016 0.221,-0.091016 0.13,0 0.221,0.091016 z m 7.1662,-1.6514598 v 0.4666325 h -0.6666 v 4.2663534 h -0.5269 v -2.1331767 h -1.838 q -0.1682,0.111103 -0.4031,0.1333235 l -0.01,0.015872 q 0.3079,0.4825043 0.6762,0.8983467 0.3682,0.4158425 0.838,0.771372 l -0.3397,0.3904475 q -0.2698,-0.1999853 -0.5142,-0.4317143 -0.2413,-0.231729 -0.4571,-0.4793299 -0.2127,-0.2507753 -0.4,-0.5047249 -0.1873,-0.2571239 -0.3428,-0.5047248 -0.1556,-0.2476009 -0.2794,-0.4761555 -0.1238,-0.2317291 -0.2158,-0.42854 l 0.4349,-0.2349034 q 0.06,0.1396723 0.1174,0.2349034 0.06,0.092057 0.1206,0.1491954 0.06,0.053964 0.127,0.079359 0.067,0.022221 0.1429,0.022221 0.219,0 0.3206,-0.171416 0.1047,-0.1714159 0.1047,-0.4507605 0,-0.1650673 -0.032,-0.3237858 -0.032,-0.1618929 -0.082,-0.3079139 -0.048,-0.1491954 -0.1048,-0.2793446 -0.057,-0.1301491 -0.1079,-0.2349033 h -1.4698 v -0.4666325 z m -1.1935,0.4666325 h -1.692 q 0.1334,0.2888676 0.2095,0.5809097 0.076,0.292042 0.076,0.5809097 0,0.1333236 -0.022,0.2634728 -0.019,0.1269748 -0.067,0.2412521 l 0.01,0.00635 h 1.4888 z m 5.571,0 h -0.6666 v 4.2663534 h -0.5206 v -1.7808216 h -1.7459 v 0.37775 q 0,0.098405 -0.01,0.1745904 -0.01,0.076185 -0.035,0.1269748 -0.025,0.05079 -0.076,0.079359 -0.048,0.025395 -0.1302,0.025395 -0.082,0 -0.1841,-0.047616 -0.1016,-0.05079 -0.2063,-0.1333236 -0.1048,-0.085708 -0.2032,-0.1904622 -0.098,-0.1079286 -0.1778,-0.2222059 -0.076,-0.1174517 -0.1238,-0.231729 -0.048,-0.1142774 -0.048,-0.2095085 0,-0.066662 0.022,-0.1079285 0.025,-0.044441 0.067,-0.066662 0.044,-0.022221 0.1048,-0.028569 0.06,-0.00952 0.1365,-0.00952 h 0.3428 v -2.0220737 h -1.146 V -7.347162 h 4.5997 z m -2.9331,0 v 2.0220737 h 1.7459 v -2.0220737 z m 6.4059,2.1331767 h -1.8221 q -0.1683,0.111103 -0.4032,0.1333235 l -0.01,0.015872 q 0.3079,0.4825043 0.6761,0.8983467 0.3682,0.4158425 0.8381,0.771372 l -0.3397,0.3904475 q -0.2698,-0.1999853 -0.5143,-0.4317143 -0.2412,-0.231729 -0.4571,-0.4793299 -0.2126,-0.2507753 -0.3999,-0.5047249 -0.1873,-0.2571239 -0.3429,-0.5047248 -0.1555,-0.2476009 -0.2793,-0.4761555 -0.1238,-0.2317291 -0.2159,-0.42854 l 0.4349,-0.2349034 q 0.06,0.1396723 0.1175,0.2349034 0.06,0.092057 0.1206,0.1491954 0.06,0.053964 0.127,0.079359 0.067,0.022221 0.1428,0.022221 0.2191,0 0.3206,-0.171416 0.1048,-0.1714159 0.1048,-0.4507605 0,-0.1650673 -0.032,-0.3237858 -0.032,-0.1618929 -0.082,-0.3079139 -0.048,-0.1491954 -0.1047,-0.2793446 -0.057,-0.1301491 -0.108,-0.2349033 h -1.4697 v -0.4666325 h 3.6188 v 0.4666325 h -1.5999 q 0.1333,0.2888676 0.2095,0.5809097 0.076,0.292042 0.076,0.5809097 0,0.1333236 -0.022,0.2634728 -0.019,0.1269748 -0.067,0.2412521 l 0.01,0.00635 h 1.4252 z m 3.241,-2.1331767 h -0.6666 v 4.2663534 h -0.5174 v -2.787097 h -1.0317 q -0.2127,0 -0.3841,0.028569 -0.1714,0.025395 -0.2921,0.1079286 -0.1206,0.079359 -0.1872,0.2253802 -0.064,0.1428467 -0.064,0.3777501 0,0.3047395 0.098,0.5618635 0.1016,0.257124 0.2571,0.4729812 0.1555,0.2126828 0.3428,0.3936219 0.1905,0.1809391 0.3651,0.3333088 l -0.3175,0.3618782 q -0.029,-0.015872 -0.1365,-0.092057 -0.1047,-0.079359 -0.2476,-0.2126828 -0.1396,-0.1333236 -0.2983,-0.3237858 -0.1556,-0.1904622 -0.2889,-0.4285399 -0.1302,-0.2412522 -0.219,-0.5301199 -0.086,-0.2888676 -0.086,-0.6221765 0,-0.3301345 0.092,-0.5459917 0.095,-0.2190315 0.2667,-0.3460063 0.1714,-0.1301492 0.4158,-0.1809391 0.2444,-0.05079 0.546,-0.05079 h 1.1682 v -1.0094497 h -3.0157 v -0.4666325 h 4.1997 z m 1.6888,0 h -0.6667 v 4.2663534 h -0.5206 v -4.2663534 h -0.7237 v -0.4666325 h 1.911 z m 0.6625,3.7917724 q 0.091,0.084514 0.091,0.2145366 0,0.1300222 -0.091,0.2210378 -0.091,0.084514 -0.221,0.084514 -0.1301,0 -0.2211,-0.084514 -0.085,-0.091016 -0.085,-0.2210378 0,-0.1300222 0.091,-0.2145366 0.091,-0.091015 0.2146,-0.091015 0.13,0 0.221,0.091015 z m 0,-2.6069451 q 0.091,0.091015 0.091,0.2210377 0,0.1300222 -0.091,0.2210378 -0.091,0.084514 -0.221,0.084514 -0.1236,0 -0.2146,-0.084514 -0.091,-0.091016 -0.091,-0.2210378 0,-0.1300222 0.085,-0.2210377 0.091,-0.091016 0.2211,-0.091016 0.13,0 0.221,0.091016 z m 7.1662,-1.6514598 v 0.4666325 h -0.6666 v 4.2663534 h -0.527 v -2.1331767 h -1.8379 q -0.1683,0.111103 -0.4032,0.1333235 l -0.01,0.015872 q 0.3079,0.4825043 0.6761,0.8983467 0.3682,0.4158425 0.838,0.771372 l -0.3396,0.3904475 q -0.2698,-0.1999853 -0.5143,-0.4317143 -0.2412,-0.231729 -0.4571,-0.4793299 -0.2127,-0.2507753 -0.3999,-0.5047249 -0.1873,-0.2571239 -0.3429,-0.5047248 -0.1555,-0.2476009 -0.2793,-0.4761555 -0.1238,-0.2317291 -0.2159,-0.42854 l 0.4349,-0.2349034 q 0.06,0.1396723 0.1175,0.2349034 0.06,0.092057 0.1206,0.1491954 0.06,0.053964 0.127,0.079359 0.067,0.022221 0.1428,0.022221 0.219,0 0.3206,-0.171416 0.1048,-0.1714159 0.1048,-0.4507605 0,-0.1650673 -0.032,-0.3237858 -0.032,-0.1618929 -0.082,-0.3079139 -0.048,-0.1491954 -0.1048,-0.2793446 -0.057,-0.1301491 -0.1079,-0.2349033 h -1.4697 v -0.4666325 z m -1.1936,0.4666325 h -1.6919 q 0.1333,0.2888676 0.2095,0.5809097 0.076,0.292042 0.076,0.5809097 0,0.1333236 -0.022,0.2634728 -0.019,0.1269748 -0.067,0.2412521 l 0.01,0.00635 h 1.4888 z m -0.6158,4.3615845 q 0.2032,-0.1269748 0.4508,-0.1968109 0.2444,-0.069836 0.4666,-0.069836 0.1936,0 0.3619,0.057139 0.165,0.053964 0.2888,0.1587185 0.1238,0.1079286 0.1937,0.2602984 0.07,0.1523697 0.07,0.342832 0,0.2031596 -0.082,0.3809244 -0.079,0.1777647 -0.2413,0.3110882 -0.1619,0.1333236 -0.3999,0.2095085 -0.2381,0.0793592 -0.5524,0.0793592 -0.3587,0 -0.6412,-0.0984054 -0.2857,-0.095231 -0.5111,-0.2444265 -0.2254,-0.1460211 -0.3968,-0.3237858 -0.1714,-0.1777647 -0.3015,-0.3364832 l 0.2952,-0.3460064 q 0.1809,0.196811 0.346,0.3555295 0.165,0.1587185 0.3428,0.2698214 0.1778,0.1142774 0.3841,0.1745904 0.2032,0.060313 0.4603,0.060313 0.219,0 0.3746,-0.044441 0.1523,-0.041267 0.2507,-0.1111029 0.098,-0.066662 0.1429,-0.1555441 0.044,-0.085708 0.044,-0.1745904 0,-0.1618929 -0.1206,-0.257124 -0.1238,-0.095231 -0.3333,-0.095231 -0.1365,0 -0.3143,0.047616 -0.1809,0.047616 -0.365,0.1587185 z m 3.4982,-4.3615845 h -0.6667 v 4.2663534 h -0.5206 v -4.2663534 h -0.7237 v -0.4666325 h 0.7237 q -0.1746,-0.4063193 -0.1746,-0.780895 0,-0.2507753 0.086,-0.4602837 0.089,-0.2095084 0.2888,-0.3618782 0.2,-0.1523698 0.527,-0.2349034 0.3269,-0.085708 0.8063,-0.085708 0.5936,0 1.1872,0.1428467 0.5968,0.1428466 1.1713,0.3999706 0.5778,0.257124 1.1269,0.6190022 0.5524,0.3587038 1.0634,0.7967669 h -0.6221 q -0.2,-0.1618929 -0.4476,-0.3333089 -0.2476,-0.1745903 -0.5365,-0.3364832 -0.2889,-0.1650672 -0.6222,-0.3110883 -0.3301,-0.1491954 -0.6952,-0.2571239 -0.365,-0.111103 -0.765,-0.1745904 -0.4,-0.066662 -0.8285,-0.066662 -0.3524,0 -0.5904,0.060313 -0.2381,0.060313 -0.381,0.1650672 -0.1428,0.1015798 -0.2063,0.2412521 -0.06,0.1396723 -0.06,0.2952165 0,0.3015651 0.1555,0.6824895 h 0.7048 z m 3.9171,4.1965173 q -0.146,0.053964 -0.3587,0.092057 -0.2127,0.038092 -0.4825,0.038092 -0.5047,0 -0.9015,-0.1745904 -0.3968,-0.1745903 -0.7365,-0.5110736 -0.3364,-0.3364832 -0.6444,-0.831685 -0.3047,-0.4952017 -0.6285,-1.1332501 l 0.4222,-0.2412521 q 0.1206,0.2285546 0.2254,0.3269601 0.1079,0.095231 0.2381,0.095231 0.1079,0 0.1873,-0.060313 0.082,-0.060313 0.1333,-0.1555442 0.054,-0.098406 0.079,-0.2222059 0.029,-0.1238004 0.029,-0.2476009 0,-0.1428466 -0.032,-0.2983908 -0.032,-0.1555441 -0.086,-0.3079139 -0.054,-0.1523697 -0.127,-0.2952164 -0.07,-0.146021 -0.1492,-0.2666471 v -0.00317 h -1.3079 v -0.4666325 h 5.7203 v 0.4666325 h -0.6667 v 4.2663534 h -0.5206 v -1.5427439 l -0.013,-0.00317 q -0.1745,0.171416 -0.3872,0.2539496 -0.2127,0.082534 -0.4222,0.082534 -0.2603,0 -0.4793,-0.1079286 -0.2191,-0.1079286 -0.3778,-0.2856933 -0.1587,-0.1777647 -0.2476,-0.4063194 -0.089,-0.2285546 -0.089,-0.4729811 0,-0.231729 0.079,-0.4475862 0.082,-0.2158572 0.2254,-0.3809244 0.146,-0.1682416 0.3428,-0.2666471 0.2,-0.098405 0.4381,-0.098405 0.1365,0 0.2603,0.031744 0.1238,0.031744 0.238,0.088882 0.1143,0.057139 0.2191,0.1364979 0.1047,0.076185 0.1999,0.1650672 l 0.013,-0.00317 v -1.0094497 h -2.6696 q 0.1619,0.3079139 0.2539,0.6031303 0.092,0.292042 0.092,0.5904328 0,0.2031597 -0.051,0.403145 -0.051,0.1999854 -0.1587,0.3618782 -0.1048,0.1618929 -0.2698,0.2698215 -0.1651,0.1079286 -0.3936,0.1269748 v 0.015872 q 0.219,0.4285399 0.4571,0.7078845 0.2412,0.2761702 0.4888,0.4380631 0.2476,0.1618929 0.4952,0.2253803 0.2508,0.063487 0.4889,0.063487 0.2698,0 0.4856,-0.053964 0.2159,-0.057139 0.3873,-0.1269748 z m 0.3968,-2.5934604 q -0.057,-0.073011 -0.1428,-0.1650673 -0.083,-0.095231 -0.1905,-0.1777647 -0.1047,-0.082534 -0.2349,-0.1364979 -0.127,-0.057139 -0.2762,-0.057139 -0.1523,0 -0.2761,0.063487 -0.1207,0.060313 -0.2095,0.1618929 -0.089,0.1015799 -0.1365,0.2380778 -0.048,0.1333235 -0.048,0.2793445 0,0.1523698 0.051,0.2920421 0.051,0.1364979 0.1397,0.2412521 0.092,0.1047542 0.219,0.1682416 0.127,0.060313 0.2794,0.060313 0.1174,0 0.2603,-0.044441 0.146,-0.044441 0.2698,-0.146021 0.127,-0.1015799 0.2095,-0.2698215 0.086,-0.1682416 0.086,-0.4158425 z m 5.133,-1.6030569 h -0.6666 v 4.2663534 h -0.5238 V -5.061618 h -1.4856 q 0,0.2095084 -0.01,0.3587038 0,0.1491954 -0.025,0.2476009 -0.022,0.095231 -0.067,0.1396722 -0.044,0.044441 -0.1238,0.044441 -0.1651,0 -0.3143,-0.1079286 -0.146,-0.1079285 -0.2603,-0.2602983 -0.1111,-0.1523698 -0.1778,-0.317437 -0.067,-0.1650673 -0.067,-0.2793446 0,-0.1015799 0.044,-0.1587185 0.044,-0.057139 0.1175,-0.085708 0.073,-0.028569 0.165,-0.034918 0.095,-0.00635 0.1905,-0.00635 h 2.0094 v -1.3586304 h -2.9807 V -7.347166 h 4.1711 z m 1.6887,0 h -0.6666 v 4.2663534 h -0.5206 v -4.2663534 h -0.7237 v -0.4666325 h 1.9109 z m -0.711,-0.3777501 h -0.4603 l -0.2889,-0.5428173 q -0.1841,-0.3460063 -0.3365,-0.549166 -0.1491,-0.2031597 -0.2825,-0.3079139 -0.1365,-0.1079286 -0.2666,-0.1364979 -0.1302,-0.031744 -0.273,-0.031744 h -0.6158 V -9.340669 h 0.5809 q 0.1841,0 0.3333,0.031744 0.1492,0.028569 0.2857,0.1079286 0.1333,0.076185 0.2603,0.2158571 0.1301,0.136498 0.2761,0.3555295 0.1461,0.2158572 0.3175,0.5205967 0.1746,0.3015652 0.3968,0.7142333 z m 7.1518,0.3777501 h -0.6666 v 4.2663534 h -0.5206 v -1.7808216 h -1.6665 v 0.4539349 q 0,0.047616 -0.01,0.1015799 -0.01,0.053964 -0.032,0.1015798 -0.022,0.044441 -0.063,0.076185 -0.038,0.028569 -0.098,0.028569 -0.073,0 -0.1746,-0.044441 -0.098,-0.047616 -0.2063,-0.1238004 -0.1048,-0.079359 -0.2095,-0.1777647 -0.1016,-0.1015799 -0.1841,-0.2095085 -0.079,-0.1079285 -0.1302,-0.2158571 -0.051,-0.1079286 -0.051,-0.1999853 0,-0.1333236 0.095,-0.1936366 0.095,-0.060313 0.2507,-0.060313 h 0.308 v -1.7427292 q 0,-0.1650672 -0.079,-0.2507752 -0.079,-0.088882 -0.2,-0.088882 -0.1333,0 -0.2254,0.098406 -0.089,0.098406 -0.089,0.2507752 0,0.028569 0.01,0.069836 0.01,0.041267 0.032,0.095231 0.025,0.05079 0.076,0.1174517 0.051,0.063487 0.1365,0.1364979 l -0.2825,0.3460063 q -0.146,-0.079359 -0.2381,-0.1745903 -0.092,-0.098406 -0.1428,-0.1999853 -0.051,-0.1015799 -0.07,-0.196811 -0.019,-0.098406 -0.019,-0.1809391 0,-0.1523697 0.051,-0.2983908 0.054,-0.1491954 0.1587,-0.2666471 0.1048,-0.120626 0.2603,-0.1936365 0.1587,-0.073011 0.3682,-0.073011 0.1841,0 0.327,0.060313 0.1428,0.060313 0.2381,0.1745903 0.098,0.111103 0.146,0.2698215 0.051,0.1555441 0.051,0.3491807 v 1.698288 h 1.6665 v -2.4887062 h 1.1872 z m 3.822,0 h -0.6666 v 4.2663534 h -0.5206 v -1.1332501 l -0.013,-0.00317 q -0.063,0.060313 -0.1492,0.1269748 -0.086,0.063487 -0.1968,0.1174517 -0.1111,0.05079 -0.2508,0.085708 -0.1365,0.034918 -0.3079,0.034918 -0.3143,0 -0.5746,-0.1206261 -0.2571,-0.120626 -0.4444,-0.3206114 -0.1873,-0.2031596 -0.292,-0.463458 -0.1016,-0.2634727 -0.1016,-0.549166 0,-0.2856933 0.1016,-0.5301199 0.1047,-0.2476008 0.2857,-0.4285399 0.1809,-0.1809391 0.4221,-0.282519 0.2413,-0.1047542 0.5175,-0.1047542 0.076,0 0.1904,0.012697 0.1175,0.012698 0.2508,0.057139 0.1333,0.044441 0.2762,0.1301491 0.1428,0.082534 0.273,0.2253803 l 0.013,-0.00317 v -1.1173782 h -2.857 v -0.4666325 h 4.0442 z m -1.1745,1.7109855 q -0.2,-0.2412522 -0.4349,-0.3872732 -0.2349,-0.1491954 -0.5333,-0.1491954 -0.2349,0 -0.4,0.088882 -0.1619,0.088882 -0.2666,0.2253803 -0.1048,0.1333235 -0.1524,0.2983908 -0.048,0.1650672 -0.048,0.317437 0,0.1650672 0.054,0.3269601 0.054,0.1618929 0.1588,0.292042 0.1079,0.1269749 0.2666,0.2095085 0.1587,0.079359 0.3714,0.079359 0.219,0 0.4,-0.082534 0.1809,-0.085708 0.3111,-0.2158572 0.1301,-0.1301491 0.2,-0.292042 0.073,-0.1618929 0.073,-0.3142627 z m 3.6378,-1.7109855 h -2.6855 v -0.4666325 h 2.6855 z m 0.1936,1.8189141 h -1.384 q 0,0.2095084 -0.01,0.3587038 0,0.1491954 -0.025,0.2476009 -0.022,0.095231 -0.067,0.1396722 -0.044,0.044441 -0.1238,0.044441 -0.1651,0 -0.3143,-0.1079286 -0.146,-0.1079285 -0.2603,-0.2602983 -0.1111,-0.1523698 -0.1777,-0.317437 -0.067,-0.1650673 -0.067,-0.2793446 0,-0.1015799 0.044,-0.1587185 0.044,-0.057139 0.1175,-0.085708 0.073,-0.028569 0.1651,-0.034918 0.095,-0.00635 0.1904,-0.00635 h 1.9078 z m 3.295,-1.8189141 h -0.6666 v 4.2663534 h -0.5174 v -2.787097 h -1.0317 q -0.2127,0 -0.3841,0.028569 -0.1714,0.025395 -0.292,0.1079286 -0.1207,0.079359 -0.1873,0.2253802 -0.063,0.1428467 -0.063,0.3777501 0,0.3047395 0.098,0.5618635 0.1016,0.257124 0.2571,0.4729812 0.1556,0.2126828 0.3429,0.3936219 0.1904,0.1809391 0.365,0.3333088 l -0.3174,0.3618782 q -0.029,-0.015872 -0.1365,-0.092057 -0.1048,-0.079359 -0.2476,-0.2126828 -0.1397,-0.1333236 -0.2984,-0.3237858 -0.1556,-0.1904622 -0.2889,-0.4285399 -0.1301,-0.2412522 -0.219,-0.5301199 -0.086,-0.2888676 -0.086,-0.6221765 0,-0.3301345 0.092,-0.5459917 0.095,-0.2190315 0.2667,-0.3460063 0.1714,-0.1301492 0.4158,-0.1809391 0.2444,-0.05079 0.546,-0.05079 h 1.1682 v -1.0094497 h -3.0157 v -0.4666325 h 4.1997 z m -1.8094,4.3615845 q 0.2032,-0.1269748 0.4508,-0.1968109 0.2444,-0.069836 0.4666,-0.069836 0.1937,0 0.3619,0.057139 0.1651,0.053964 0.2889,0.1587185 0.1238,0.1079286 0.1936,0.2602984 0.07,0.1523697 0.07,0.342832 0,0.2031596 -0.082,0.3809244 -0.079,0.1777647 -0.2412,0.3110882 -0.1619,0.1333236 -0.4,0.2095085 -0.2381,0.0793592 -0.5524,0.0793592 -0.3587,0 -0.6412,-0.0984054 -0.2857,-0.095231 -0.5111,-0.2444265 -0.2253,-0.1460211 -0.3967,-0.3237858 -0.1715,-0.1777647 -0.3016,-0.3364832 l 0.2952,-0.3460064 q 0.1809,0.196811 0.346,0.3555295 0.1651,0.1587185 0.3428,0.2698214 0.1778,0.1142774 0.3841,0.1745904 0.2032,0.060313 0.4603,0.060313 0.2191,0 0.3746,-0.044441 0.1524,-0.041267 0.2508,-0.1111029 0.098,-0.066662 0.1428,-0.1555441 0.044,-0.085708 0.044,-0.1745904 0,-0.1618929 -0.1207,-0.257124 -0.1238,-0.095231 -0.3333,-0.095231 -0.1365,0 -0.3142,0.047616 -0.181,0.047616 -0.3651,0.1587185 z"
         id="path96"
         style="font-size:6.50111px;font-family:Sanchez;-inkscape-font-specification:'Sanchez, Normal';stroke-width:1.36023"
         aria-label="लोका: समस्ता: सुखिनो भवन्तु" /></g></g></svg>
