<?xml version="1.0" encoding="UTF-8" standalone="no"?>
<!-- Created with Inkscape (http://www.inkscape.org/) -->

<svg
   width="1920"
   height="1080"
   viewBox="0 0 507.99998 285.74999"
   version="1.1"
   id="svg1"
   xml:space="preserve"
   inkscape:version="1.3.2 (091e20e, 2023-11-25, custom)"
   sodipodi:docname="swan.svg"
   inkscape:export-filename="..\wallpaper.png"
   inkscape:export-xdpi="96"
   inkscape:export-ydpi="96"
   xmlns:inkscape="http://www.inkscape.org/namespaces/inkscape"
   xmlns:sodipodi="http://sodipodi.sourceforge.net/DTD/sodipodi-0.dtd"
   xmlns:xlink="http://www.w3.org/1999/xlink"
   xmlns="http://www.w3.org/2000/svg"
   xmlns:svg="http://www.w3.org/2000/svg"><sodipodi:namedview
     id="namedview1"
     pagecolor="#ffffff"
     bordercolor="#cccccc"
     borderopacity="1"
     inkscape:showpageshadow="0"
     inkscape:pageopacity="1"
     inkscape:pagecheckerboard="0"
     inkscape:deskcolor="#d1d1d1"
     inkscape:document-units="px"
     inkscape:zoom="0.5"
     inkscape:cx="595"
     inkscape:cy="541"
     inkscape:window-width="1920"
     inkscape:window-height="991"
     inkscape:window-x="-9"
     inkscape:window-y="-9"
     inkscape:window-maximized="1"
     inkscape:current-layer="layer1" /><defs
     id="defs1"><linearGradient
       id="linearGradient73"
       inkscape:collect="always"><stop
         style="stop-color:#804085;stop-opacity:1;"
         offset="0"
         id="stop73" /><stop
         style="stop-color:#5b3374;stop-opacity:0;"
         offset="1"
         id="stop72" /></linearGradient><filter
       style="color-interpolation-filters:sRGB"
       inkscape:label="Noise Fill"
       id="filter29"
       x="0"
       y="0"
       width="1"
       height="1"><feTurbulence
         type="fractalNoise"
         baseFrequency="20 40"
         numOctaves="5"
         seed="223"
         result="turbulence"
         id="feTurbulence28" /><feComposite
         in="SourceGraphic"
         in2="turbulence"
         operator="in"
         result="composite1"
         id="feComposite28" /><feColorMatrix
         values="1 0 0 0 0 0 1 0 0 0 0 0 1 0 0 0 0 0 3.5 -1 "
         result="color"
         id="feColorMatrix28" /><feFlood
         flood-opacity="0"
         flood-color="rgb(21,40,57)"
         result="flood"
         id="feFlood28" /><feMerge
         result="merge"
         id="feMerge29"><feMergeNode
           in="flood"
           id="feMergeNode28" /><feMergeNode
           in="color"
           id="feMergeNode29" /></feMerge><feComposite
         in2="SourceGraphic"
         operator="in"
         result="composite2"
         id="feComposite29" /></filter><linearGradient
       inkscape:collect="always"
       xlink:href="#linearGradient73"
       id="linearGradient82"
       gradientUnits="userSpaceOnUse"
       x1="214.95052"
       y1="164.39551"
       x2="215.79593"
       y2="176.56041"
       gradientTransform="translate(730.70206,16.223526)" /></defs><g
     inkscape:label="Layer 1"
     inkscape:groupmode="layer"
     id="layer1"
     transform="translate(-739.77472,-0.3966358)"><rect
       style="fill:none;stroke:none;stroke-width:0.529167"
       id="rect1"
       width="508"
       height="285.75"
       x="739.77472"
       y="0.3966358"
       inkscape:export-filename="..\tools\website\assets\icons-svg\art\homepage\purple-mountain.svg"
       inkscape:export-xdpi="96"
       inkscape:export-ydpi="96" /><path
       id="path74"
       style="opacity:1;fill:#412051;fill-opacity:1;stroke:none;stroke-width:1.32292"
       d="m 959.41318,161.97429 c -7.703,-0.043 -7.1393,7.44564 -3.2602,12.83849 7.4177,10.31245 -9.9235,-7.05244 -11.2169,-3.00705 l -0.1912,0.59841 c 0,0 -2.2044,-0.98525 -2.8789,-0.84801 -0.6745,0.13724 -0.8718,0.71675 -0.8718,0.71675 -1.2765,-0.1054 -2.8352,-0.52909 -4.0375,-0.0119 -0.7676,0.49599 0.024,1.60042 0.024,1.60042 -1.211,0.18861 -2.3619,0.43154 -3.4881,0.95549 -2.1259,0.88973 -3.57,0.23738 -5.5661,-0.83612 1.4781,2.49034 2.8444,4.8607 5.1124,6.74894 h 28.0825 c 1.2401,-6.32109 -6.2177,-11.4302 -4.0303,-14.49834 1.0519,-1.4753 3.667,-0.87017 4.7563,1.78077 0,0.003 -0.01,0.006 -0.01,0.01 l 0.169,0.41393 c 0.5599,0.71516 0.4722,2.27607 1.3131,2.71301 0,0 0.2532,-0.0874 0.3654,-0.43511 0.1122,-0.34769 -0.2498,-0.006 -0.1204,-1.61954 l 0.096,-1.19425 c 0.016,0.20799 0.095,0.40196 0.3483,0.35967 0.1379,-0.023 0.2062,-0.11046 0.233,-0.22582 0.4963,-1.11596 -0.3377,-6.03451 -4.8281,-6.05958 z" /><path
       d="m 961.12108,180.72973 h -28.069 c 0.1459,0.0366 0.2878,0.0683 0.4402,0.11266 1.1263,0.35248 2.2771,0.57623 3.4882,0.78031 0,0 -0.7914,0.43959 -0.024,0.74466 1.2023,0.35661 2.761,0.30827 4.0375,0.38137 0,0 0.1973,0.28937 0.8718,0.41806 0.6745,0.12869 2.8789,-0.11989 2.8789,-0.11989 l 0.1912,0.29766 c 1.2933,2.01224 18.6345,-4.43207 11.2168,-0.32918 -3.879,2.1456 -4.4427,5.58753 3.2603,6.30556 v -5.2e-4 c 4.4904,0.41856 5.3244,-1.79729 4.8281,-2.36575 -0.027,-0.0564 -0.095,-0.10425 -0.233,-0.12815 -0.2533,-0.044 -0.3327,0.0393 -0.3483,0.13487 l -0.096,-0.56689 c -0.1294,-0.76563 0.2326,-0.5711 0.1204,-0.74414 -0.1122,-0.17301 -0.3654,-0.23823 -0.3654,-0.23823 -0.8409,0.12337 -0.7531,0.86033 -1.3131,1.1405 l -0.1689,0.17674 c 0,0.003 0.01,0.004 0.01,0.006 -1.0894,1.13303 -3.7045,1.1651 -4.7563,0.37568 -2.1875,-1.64174 5.2703,-3.31213 4.0302,-6.38152 z"
       style="opacity:1;fill:url(#linearGradient82);stroke-width:1.32292;filter:url(#filter29)"
       id="path76" /></g></svg>
