<?xml version="1.0" encoding="UTF-8" standalone="no"?>
<!-- Created with Inkscape (http://www.inkscape.org/) -->

<svg
   width="1920"
   height="1080"
   viewBox="0 0 507.99998 285.74999"
   version="1.1"
   id="svg1"
   xml:space="preserve"
   inkscape:version="1.3.2 (091e20e, 2023-11-25, custom)"
   sodipodi:docname="idea 2.svg"
   inkscape:export-filename="..\wallpaper.png"
   inkscape:export-xdpi="96"
   inkscape:export-ydpi="96"
   xmlns:inkscape="http://www.inkscape.org/namespaces/inkscape"
   xmlns:sodipodi="http://sodipodi.sourceforge.net/DTD/sodipodi-0.dtd"
   xmlns="http://www.w3.org/2000/svg"
   xmlns:svg="http://www.w3.org/2000/svg"><sodipodi:namedview
     id="namedview1"
     pagecolor="#ffffff"
     bordercolor="#cccccc"
     borderopacity="1"
     inkscape:showpageshadow="0"
     inkscape:pageopacity="1"
     inkscape:pagecheckerboard="0"
     inkscape:deskcolor="#d1d1d1"
     inkscape:document-units="px"
     inkscape:zoom="0.35355339"
     inkscape:cx="3524.2202"
     inkscape:cy="782.0601"
     inkscape:window-width="1920"
     inkscape:window-height="991"
     inkscape:window-x="-9"
     inkscape:window-y="-9"
     inkscape:window-maximized="1"
     inkscape:current-layer="layer1" /><defs
     id="defs1" /><g
     inkscape:label="Layer 1"
     inkscape:groupmode="layer"
     id="layer1"
     transform="translate(-739.77472,-0.396577)"><rect
       style="fill:none;stroke:none;stroke-width:0.529167"
       id="rect1"
       width="507.99789"
       height="285.74969"
       x="739.77472"
       y="0.3966358"
       inkscape:export-filename="..\tools\website\assets\icons-svg\art\homepage\tree.svg"
       inkscape:export-xdpi="96"
       inkscape:export-ydpi="96" /><path
       id="path23"
       style="opacity:1;fill:#412051;fill-opacity:1;stroke:none;stroke-width:1.32292"
       d="m 1203.8527,0.39687499 2.2366,2.56056441 1.5063,2.5765841 -1.8629,0.7534416 -0.6738,2.0215797 1.8628,0.8325065 2.6164,-1.0702177 0.6738,1.2288642 -0.1979,3.5672202 -1.9823,-0.277502 -3.1315,-1.268139 5.1138,7.016102 2.5766,2.02158 2.5368,1.942515 0.6739,2.101162 -0.3566,1.347719 -1.3875,-0.872297 -0.9121,-1.665013 -1.7043,-0.158646 -1.2289,-0.83199 -1.4267,-1.030944 0.9513,-2.457728 -1.1896,-1.149283 -2.5765,-0.277502 -0.2775,1.387511 -1.6252,0.435632 -2.7352,-1.149283 -5.1532,-3.488672 -2.6159,-0.792716 -0.8325,1.982306 1.9818,2.615858 1.9028,0.47594 0.3963,1.070217 -3.0918,-0.436148 -0.5152,1.427301 0.079,1.665014 2.6954,0.158129 1.7839,0.67386 0.634,1.427301 v 1.466576 l 2.1803,1.228864 -0.4362,0.872298 -4.5584,0.475422 -2.2598,1.585431 1.7446,0.793233 1.1891,1.585431 1.11,-0.951362 2.497,-0.67386 1.3875,1.34772 2.6955,0.991152 1.3084,-1.625221 2.1802,0.19792 0.9508,0.475939 -3.0917,2.259292 0.3964,1.110009 1.8633,0.436148 1.7441,-1.308446 h 0.8325 l -0.3964,2.220017 1.9022,0.911571 1.3876,-0.990636 1.6252,0.03927 0.1586,-1.744077 1.11,-0.237712 0.3566,1.387511 0.5948,0.594278 0.555,2.220018 c 0,0 -1.4271,0.594642 -8.0073,1.506365 -6.58,0.911713 -8.6417,-2.656165 -8.6417,-2.656165 l -4.2809,-1.941998 -1.4268,0.951362 3.3295,2.457728 -0.4754,0.911572 -12.2096,-6.025466 -1.4268,0.118856 0.3566,3.211169 -8.9187,1.466577 c 0,0 1.0305,1.387467 4.3205,2.73523 3.2901,1.34775 6.303,-0.436149 6.303,-0.436149 l 1.5064,0.317293 -3.7662,3.091798 0.2775,1.506366 2.4975,0.396358 3.3693,-3.330026 2.1405,-0.713134 1.1498,1.149283 -2.8541,0.594795 -0.9116,1.744077 1.5457,1.347721 -0.198,1.862933 1.11,0.71365 2.497,-2.180225 2.7353,0.23771 3.2902,-3.170861 0.8718,0.990636 -5.272,3.647318 -0.079,1.34772 1.5064,0.990636 3.2504,-1.823143 0.6739,2.576584 3.6075,-3.607527 1.744,1.308446 1.1493,-2.140436 c 0,0 0.6744,0.356333 4.0835,0.15813 3.4088,-0.198203 4.5583,-4.91494 4.5583,-4.91494 0,0 0.634,0.435624 -3.6075,6.817664 -4.2415,6.382025 -11.6932,6.144321 -11.6932,6.144321 l -7.968,-4.479308 -1.0305,0.396358 2.1007,2.814295 -1.7043,0.158647 -3.4489,-1.109492 -3.0918,-0.872297 0.2377,2.775021 -4.2809,0.15813 -2.0613,-1.189074 -1.2289,1.783869 -1.3083,-0.118856 0.7135,1.783868 2.775,0.197921 -2.1404,1.86345 0.4361,0.594278 3.6071,0.237712 0.1979,2.695956 1.5461,-0.832506 1.1101,-0.118856 -0.3173,1.902724 1.1895,0.752926 1.6645,-1.030427 1.8237,0.277501 2.2195,3.289719 2.696,-0.832507 2.1006,2.616375 3.528,-0.237712 2.8541,-2.497518 0.6738,2.854086 3.0127,-2.100645 2.22,0.07906 2.2195,-1.704287 2.9336,-1.427302 2.7353,-1.347719 1.6252,1.189073 c 0,0 -1.1499,1.387757 -10.1482,5.391397 -8.9982,4.00364 -14.6667,2.219499 -14.6667,2.219499 l -2.497,-4.835874 -2.6164,2.06137 -2.8541,-1.704804 -3.0127,0.832506 -1.7839,0.713652 c 0,0 1.5859,0.990916 2.6562,2.69544 1.0706,1.704509 -0.079,2.893877 -0.079,2.893877 l -2.4179,0.396357 -3.9248,-4.04316 -1.5058,-0.07958 0.7927,3.686593 -8.2057,-1.30793 -1.2289,0.951362 7.3732,3.32951 -1.189,2.140951 4.8357,0.475424 0.1985,2.140435 3.7656,0.238228 1.0703,2.457212 1.189,-2.378147 1.5462,-0.436148 11.0991,6.104529 c 1.4592,0.802557 7.8486,3.17138 7.8486,3.17138 0,0 -15.6578,4.281003 -20.0975,4.994522 -4.4397,0.713527 -7.9674,-2.893877 -7.9674,-2.893877 l 0.04,3.488671 -5.9955,-0.121956 -0.026,-0.548803 1.9425,-0.713651 -0.3566,-0.713651 2.2195,-2.220016 0.7932,-1.545641 -2.5765,-0.198438 -2.2201,-0.23771 0.1587,-0.872297 2.4577,-3.289719 0.1581,-1.902724 -1.3477,-0.912088 -3.4086,4.201807 -1.3875,0.555003 c -1.3874,0.554959 -1.9027,-2.02158 -1.9027,-2.02158 l -1.11,1.030944 -1.7838,3.369299 -3.1316,4.400245 -3.1713,3.369299 -3.8846,2.417933 c 0,0 -0.5942,-0.55495 -0.5152,-2.57658 0.079,-2.021643 -0.1586,-4.162015 -0.1586,-4.162015 0,0 -0.1983,-0.872243 -1.3875,-4.796601 -1.1891,-3.924358 3.33,-4.994522 3.33,-4.994522 l 1.5064,0.237712 -0.04,3.012733 1.3477,0.515213 2.9336,-2.457728 1.942,1.149282 1.3876,-1.704287 -3.2903,-3.726384 -2.1802,0.03979 -1.5059,-0.752924 0.2377,-1.427301 c 0,0 1.2286,0.158604 4.1223,0.555004 2.8936,0.396408 5.3117,-0.713651 5.3117,-0.713651 l 0.5157,-0.594279 -1.9823,-0.357083 -2.1403,-1.268139 -1.4666,-0.793232 5.1924,-4.479308 -0.6739,-0.713135 -5.4306,2.536794 -2.8143,1.744078 0.5948,-3.012733 -1.3477,0.436149 -2.2991,3.369299 -0.2382,3.092315 -3.4484,1.268138 -0.079,-1.98179 0.4755,-4.12274 2.1409,-3.448365 3.2107,-3.448881 2.1802,-3.726384 -1.7839,-0.713133 -1.7838,0.594277 -2.6164,3.964095 -1.3477,0.43615 -0.198,-2.695441 0.04,-5.589317 -1.2287,-1.506366 -0.8325,-2.695439 -0.8718,3.40909 -0.555,4.954731 0.1188,6.223385 -4.5981,-4.28087 -0.7137,-1.783868 -0.5943,0.277501 -0.1586,3.052524 2.9331,3.646801 2.6164,3.567221 0.5943,3.964094 -0.2377,4.281389 -1.2681,-0.47594 -0.3173,-1.704287 -1.3876,-0.515213 -0.4754,-1.625223 -0.2775,-1.625221 0.04,-3.171379 -1.8629,-1.783869 -0.8325,1.387511 -0.7137,2.061371 -1.7043,-0.396359 -2.6561,-1.942515 -1.4268,-0.118855 0.079,2.854086 3.0123,3.448365 1.5063,2.576584 -1.8629,0.753441 -0.6739,2.02158 1.863,0.832506 2.6163,-1.070217 0.6739,1.228864 -0.1984,3.56722 -1.9818,-0.277501 -3.1316,-1.268139 5.1134,7.016101 2.5766,2.02158 2.5373,1.942515 0.6738,2.100645 -0.3565,1.34823 -1.3876,-0.87229 -0.912,-1.66502 -1.7043,-0.15865 -1.2289,-0.83198 -1.4268,-1.030944 0.9509,-2.457728 -1.1891,-1.149283 -2.5766,-0.277501 -0.2775,1.386993 -1.6252,0.436149 -2.7353,-1.149282 -5.1531,-3.488672 -2.6159,-0.792717 -0.8325,1.982306 1.9818,2.615859 1.9027,0.475939 0.3964,1.070218 -3.0918,-0.436149 -0.5152,1.427302 0.079,1.664496 2.6955,0.158646 1.7838,0.673858 0.6341,1.4273 v 1.46658 l 2.1802,1.22886 -0.4361,0.8723 -4.5584,0.47542 -2.2598,1.58544 1.7441,0.79323 1.1896,1.58542 1.11,-0.95135 2.497,-0.67386 1.3875,1.34771 2.6954,0.99115 1.308,-1.62521 2.1802,0.19791 0.9514,0.47594 -3.0918,2.25929 0.3963,1.11001 1.863,0.43615 1.7446,-1.30844 h 0.8325 l -0.3969,2.22002 1.9032,0.91157 1.387,-0.99064 1.6252,0.0393 0.1587,-1.74408 1.11,-0.23772 0.3566,1.38752 0.5948,0.59428 0.555,2.22001 c 0,0 -1.427,0.59464 -8.0073,1.50637 -6.5802,0.9117 -8.6418,-2.65617 -8.6418,-2.65617 l -4.2809,-1.942 -1.4273,0.95137 3.33,2.45773 -0.4759,0.91157 -12.209,-6.02547 -1.4268,0.11885 0.3566,3.21118 -8.9189,1.46657 c 0,0 1.0306,1.38747 4.3207,2.73523 3.2902,1.34775 6.303,-0.43615 6.303,-0.43615 l 1.5063,0.31729 -3.7661,3.0918 0.2775,1.50637 2.4975,0.39636 3.3692,-3.33003 2.1404,-0.71313 1.1498,1.14928 -2.8541,0.59479 -0.9114,1.74408 1.5455,1.34773 -0.1979,1.86293 1.1095,0.71365 2.4975,-2.18023 2.7352,0.23772 3.2903,-3.17087 0.8718,0.99115 -5.2721,3.64681 -0.079,1.34771 1.5063,0.99064 3.2505,-1.82314 0.6738,2.57658 3.6076,-3.60752 1.7441,1.30845 1.1498,-2.14044 c 0,0 0.6734,0.35633 4.0824,0.15813 3.409,-0.19821 4.5589,-4.91495 4.5589,-4.91495 0,0 0.634,0.43563 -3.6075,6.81767 -4.2415,6.38203 -11.6939,6.14432 -11.6939,6.14432 l -7.9675,-4.47931 -1.0304,0.39636 2.1006,2.81481 -1.7042,0.15813 -3.4488,-1.10949 -3.0918,-0.8723 0.2377,2.77503 -4.2809,0.15812 -2.0614,-1.18907 -1.2288,1.78387 -1.308,-0.11886 0.7132,1.78388 2.775,0.19792 -2.1404,1.86344 0.4356,0.59428 3.6075,0.23771 0.1979,2.69596 1.5462,-0.83251 1.11,-0.11886 -0.3173,1.90273 1.1891,0.75293 1.665,-1.03043 1.8236,0.2775 2.2195,3.28972 2.6959,-0.8325 2.1007,2.61636 3.5279,-0.23771 2.8541,-2.49751 0.6739,2.85408 3.0127,-2.10064 2.22,0.0791 2.2195,-1.70429 2.9337,-1.4273 2.7352,-1.34773 1.6252,1.1896 c 0,0 -1.1499,1.38723 -10.1482,5.39087 -8.9981,4.00365 -14.6668,2.2195 -14.6668,2.2195 l -2.497,-4.83587 -2.6162,2.06137 -2.8541,-1.7048 -3.0128,0.83251 -1.7838,0.71364 c 0,0 1.5858,0.99091 2.6561,2.69544 1.0705,1.70451 -0.079,2.89388 -0.079,2.89388 l -2.418,0.39636 -3.9243,-4.04316 -1.5063,-0.0796 0.7927,3.6866 -8.2057,-1.30793 -1.2289,0.95136 7.3732,3.32952 -1.1891,2.14094 4.8359,0.47542 0.1984,2.14044 3.7657,0.23823 1.0702,2.45721 1.1891,-2.37815 1.5462,-0.43614 11.0989,6.10452 c 1.4592,0.80256 7.8486,3.17138 7.8486,3.17138 0,0 -15.6578,4.28101 -20.0973,4.99453 -4.4397,0.71353 -7.9675,-2.89388 -7.9675,-2.89388 l 0.04,3.48868 -7.8089,-0.15865 3.4489,3.48815 0.04,2.93367 3.1714,-0.51573 0.2775,3.09232 2.3782,1.03042 2.5368,-1.66501 0.912,3.56773 2.4573,-0.99115 1.5461,1.07073 c 0,0 -3.052,1.98167 -7.8088,2.21951 -4.7568,0.23784 -6.0255,-2.45773 -6.0255,-2.45773 l -0.5948,2.10116 -5.7872,0.555 4.2809,2.02159 0.5157,2.65565 2.2991,0.67385 2.6163,-1.14928 0.6739,3.80545 2.2195,-0.75345 0.1587,2.57659 1.9425,-0.67386 1.0702,1.22887 6.7784,-4.79609 h 1.9817 l 1.3477,2.37815 -4.2017,0.39635 2.3786,4.8364 -3.8845,-0.23823 -1.3482,2.29908 -3.0918,-0.31678 -1.2687,1.6645 h -4.9945 l -1.8231,2.06137 -5.5496,-0.95136 -0.2382,3.6468 -8.0071,0.8723 4.3603,3.40909 2.775,0.555 -2.3786,2.5368 3.5677,0.47594 0.2377,1.74408 6.2632,-1.26866 0.7927,3.40909 h 1.5064 l 1.7441,-3.17138 0.6346,2.93367 3.0918,0.47543 2.7745,-0.87179 1.0309,-3.80545 2.3782,3.4091 2.4576,-3.01274 1.665,2.45773 0.3173,-3.17138 1.4268,-0.91622 1.11,2.26394 1.7441,-0.95136 1.3477,1.26865 c 0,0 -3.9639,2.93346 -10.1476,4.91546 -6.1839,1.98198 -6.7386,0.47542 -6.7386,0.47542 l 0.3963,1.74408 2.8541,1.82366 h 3.1709 l 0.079,1.82314 c 0,0 -3.2506,1.18968 -12.3678,1.34824 -9.117,0.15856 -19.5025,0.95135 -19.5025,0.95135 l -1.5064,1.58544 -3.7264,-0.71365 2.5373,3.0918 4.5982,0.79323 -4.5982,3.48816 2.9332,-0.0796 1.9027,1.26864 1.7441,0.3173 2.4576,0.71313 2.6954,-1.98178 -1.3477,3.33002 1.9028,0.23771 3.2504,-1.11001 2.0614,2.61638 4.5981,-2.14095 0.476,3.96409 2.3781,-0.39635 2.8541,-2.21951 -0.7927,3.32952 3.4091,-0.39636 1.3477,1.18907 1.0304,-1.18907 1.1896,-0.39636 0.7132,1.50637 2.854,-0.23771 1.9823,1.34772 c 0,0 -3.1711,2.14031 -9.1963,4.28086 -6.0253,2.14059 -12.5263,2.06138 -12.5263,2.06138 l -3.0128,-2.37867 -3.0127,-0.63407 1.3477,3.01274 -4.6772,-1.03043 -11.4959,-1.90273 -0.634,0.63407 5.1531,3.17138 4.7569,1.26814 -5.2328,1.03095 5.5501,1.98178 1.3476,0.555 -2.9336,2.29909 1.4273,0.555 2.0613,-1.11001 0.9513,1.66502 2.7746,0.39636 3.4886,-1.82367 -1.4273,2.22002 2.8541,0.47594 1.5064,2.37815 2.22,-2.61637 1.3477,0.23822 -2.22,4.2018 6.5009,-2.5373 c 0,0 -0.6341,2.61626 -2.6954,4.75681 -2.0612,2.14057 -5.7876,2.14082 -10.6237,3.33003 -4.8361,1.1892 -3.3296,0.31682 -6.8971,-1.03095 -3.5676,-1.34777 -6.8973,-0.63407 -6.8973,-0.63407 l 1.11,2.45773 -9.7518,-1.4273 2.6954,4.2018 -10.7027,-0.71313 10.5446,3.25044 -3.6473,2.61638 -0.1179,0.35398 h 123.424 c -3.8945,-1.71742 -6.6864,-3.28765 -6.6864,-3.28765 l -0.9116,-2.25929 2.7353,0.67386 1.2681,-1.46657 5.7878,2.73471 10.8612,1.07073 -0.9513,-3.25096 3.3693,3.01273 0.5705,0.0749 c -0.5932,0.85161 -1.0852,1.44074 -1.0852,1.44074 h 20.1812 l -2.6908,-7.28791 c -0.1043,-0.28251 -0.15,-0.48957 -0.2383,-0.7519 l 6.3329,-1.16582 -0.079,-1.26865 0.5612,0.0129 2.1684,3.28558 2.3544,-0.67231 1.3456,2.13011 2.8029,-1.34566 1.6465,1.18546 V 118.93679 c -2.1753,-0.76925 -3.3518,-1.77611 -3.3518,-1.77611 l -3.5677,-5.58932 2.6164,0.0791 1.387,1.74459 2.9161,-0.12506 V 94.912966 c -0.766,-0.02805 -1.5523,-0.0936 -2.3611,-0.22841 -6.8974,-1.149556 -15.4197,-7.650169 -15.4197,-7.650169 l 3.9243,0.832506 -0.1586,-1.387511 1.546,1.307929 2.7746,-0.07906 2.8938,2.2195 0.555,-3.448364 5.3517,3.488155 0.634,-3.488155 0.26,1.112592 V 75.484716 l -4.4225,-0.778762 -8.8392,-4.082951 -1.665,-2.972942 3.9242,0.158646 0.8325,2.180227 2.2195,0.555004 0.1985,-1.1498 0.4361,-1.981789 3.6866,3.884513 1.942,0.43615 -0.1188,-3.964095 0.9513,-1.585431 0.8548,0.486274 V 54.275698 l -2.48,0.768944 -0.7136,-2.497519 -5.5496,3.924821 -5.4703,-0.357084 -2.6955,-1.070218 2.2598,-1.704287 -0.3571,-1.348236 c 0,0 -4.1619,0.515489 -7.6899,-0.634069 -3.5279,-1.149559 -3.6468,-9.711542 -3.6468,-9.711542 l 1.942,0.277502 0.1193,4.280872 c 0.1189,4.281125 3.052,3.845239 3.052,3.845239 l 1.7441,0.277502 -0.1188,-1.783869 0.8325,-2.73523 2.0216,3.686592 1.744,0.951362 2.1409,0.871781 0.5152,-1.228864 -1.7047,-1.50585 0.04,-1.110009 2.2592,-1.546157 1.4666,1.1498 1.11,2.2195 2.0614,1.34772 2.5368,2.418454 0.1984,-3.488672 1.6252,-2.655649 1.863,2.69544 0.894,0.137459 v -8.49973 l -0.537,-0.08113 -4.2416,-1.34772 1.5064,-2.536793 -3.9641,-0.357084 -4.4793,2.299082 -1.5063,0.198438 -2.7352,1.823659 -1.4268,-0.07958 -0.6739,-2.180227 -4.5986,0.872298 -3.4484,-2.656166 2.7745,0.158647 2.0614,1.110008 1.5461,-1.466576 1.7441,0.475424 1.5064,1.585947 1.7043,-0.357083 1.3875,-0.316776 1.546,-1.506367 2.3782,-0.67386 -1.0702,-0.991153 -0.1189,-1.347719 3.1714,-0.317294 2.8541,-1.902724 -7.6905,-0.752924 -0.8324,-1.506367 1.3083,-2.417937 1.9028,-0.119373 2.497,2.101162 0.1586,-3.527946 1.9027,1.070217 1.0305,-1.82366 1.3875,0.357085 1.0309,-0.357085 -0.1984,-1.466575 -3.8845,-1.149283 -6.2234,1.783869 -2.8147,1.783351 -6.1438,5.391397 -3.1714,0.356567 -0.1587,1.268655 -1.6252,-0.158646 0.4361,-3.3693 4.9946,-0.118856 0.8325,-1.704803 1.5854,-0.07906 0.555,-2.417938 5.1531,-1.902724 2.775,-0.67386 2.2991,-1.348237 -0.04,-0.831989 1.9425,-0.713651 -0.3566,-0.71365 2.2195,-2.220018 0.7933,-1.54564 -2.5766,-0.198437 -2.22,-0.237712 0.1586,-0.872297 2.4577,-3.289718 0.1587,-1.9027243 -1.3482,-0.912088 -3.4091,4.2018063 -1.387,0.555005 c -1.3874,0.554958 -1.9028,-2.02158 -1.9028,-2.02158 l -1.1099,1.030943 -1.7838,3.3693 -3.1316,4.399726 -3.1714,3.369817 -3.8845,2.417937 c 0,0 -0.5942,-0.554946 -0.5152,-2.576584 0.079,-2.021638 -0.1587,-4.162532 -0.1587,-4.162532 0,0 -0.1983,-0.871728 -1.3875,-4.796085 -1.1892,-3.9243545 3.33,-4.994521 3.33,-4.994521 l 1.5064,0.2377114 -0.04,3.0127326 1.3477,0.515214 2.9337,-2.4577288 1.942,1.1492828 1.3875,-1.7042872 -3.2902,-3.7263834 -2.1798,0.039791 -1.5068,-0.7529247 0.2382,-1.4273015 c 0,0 1.2285,0.1586055 4.1222,0.5550042 2.8938,0.3964008 5.3117,-0.7136507 5.3117,-0.7136507 l 0.5152,-0.5942783 -1.9816,-0.3570838 -2.1405,-1.26813823 -0.6309,-0.34106408 h -7.658 l -0.1943,2.52129031 -3.4484,1.2681383 -0.079,-1.981789 0.2082,-1.80763961 h -3.4638 l 0.2832,1.88670451 -0.2383,4.2813877 -1.2686,-0.4759394 -0.3168,-1.7042869 -1.3875,-0.5152135 -0.476,-1.625222 -0.2769,-1.62522199 V 0.39688419 Z m -33.202,98.34014301 1.0279,1.039729 -4.7884,1.372523 -2.8148,1.78387 -6.1437,5.39088 -3.1714,0.35657 -0.1586,1.26865 -1.6252,-0.15865 0.4361,-3.36929 4.9945,-0.11886 0.8325,-1.7048 1.5855,-0.0791 0.555,-2.41794 5.1531,-1.90273 2.775,-0.673851 z m 1.1943,3.997682 1.4133,0.79478 0.01,0.74828 3.1713,-0.51573 0.2775,3.09232 2.3781,1.03042 2.5368,-1.66501 0.9121,3.56773 2.4577,-0.99114 1.5457,1.0702 c 0,0 -3.0521,1.98218 -7.8089,2.22002 -3.7224,0.18613 -5.2748,-1.38537 -5.7887,-2.09444 l 1.5508,-1.03404 -7.6904,-0.75292 -0.8326,-1.50637 1.3085,-2.41794 1.9027,-0.11937 2.497,2.10116 z m 0.6868,7.53596 -0.4129,1.45935 -3.5642,0.34158 -0.079,-0.89349 3.1714,-0.31729 z m -3.3197,3.37448 1.4004,0.66145 0.1018,0.52452 -3.3088,1.69809 -1.5064,0.19843 -2.7351,1.82367 -1.4274,-0.0796 -0.6738,-2.18022 -4.5982,0.87229 -3.4483,-2.65616 2.7745,0.15864 2.0613,1.11001 1.5462,-1.46658 1.7441,0.47543 1.5063,1.58595 1.7042,-0.35709 1.3875,-0.31677 1.5462,-1.50637 z m 6.8311,2.84168 0.2211,1.24799 -1.7766,-0.56483 z m 12.8435,1.38751 h 1.9818 l 1.3483,2.37814 -4.2024,0.39636 2.3787,4.8364 -3.885,-0.23823 -1.3478,2.29909 -3.0918,-0.31678 -1.2686,1.66449 h -4.9944 l -1.2625,1.42782 0.1959,-3.44629 1.6252,-2.65566 1.8628,2.69545 1.0304,0.15864 -0.1188,-1.30844 3.3698,0.0398 1.3477,-0.51522 2.1405,-1.58543 -1.8237,-1.98231 -0.4155,-0.21859 z m -36.1087,1.07331 1.9425,0.27751 0.1189,4.28087 c 0.1189,4.28113 3.052,3.84525 3.052,3.84525 l 1.7441,0.2775 -0.1189,-1.78387 0.8325,-2.73524 2.0216,3.6866 1.744,0.95136 2.141,0.87177 0.5152,-1.22885 -1.7048,-1.50585 0.04,-1.11001 2.2593,-1.54616 1.4665,1.1498 1.11,2.2195 2.0614,1.34772 2.5177,2.40036 -0.539,0.60927 -5.55,-0.95136 -0.2362,3.62665 -3.2882,-0.21446 -2.6958,-1.07022 2.2597,-1.70429 -0.3571,-1.34823 c 0,0 -4.162,0.51548 -7.6899,-0.63407 -3.528,-1.14955 -3.6468,-9.71155 -3.6468,-9.71155 z m 42.0546,20.76357 1.11,2.26395 1.7441,-0.95137 1.3477,1.26866 c 0,0 -3.9638,2.93347 -10.1477,4.91546 -6.1838,1.98199 -6.7386,0.47542 -6.7386,0.47542 l 0.3964,1.74408 2.2846,1.45986 -0.9736,0.6444 -2.8541,1.58543 -6.3029,-1.11001 -8.8397,-4.08295 -1.6645,-2.97294 3.9243,0.15865 0.8325,2.18022 2.2195,0.555 0.1984,-1.14979 0.4362,-1.98179 3.6866,3.88451 1.942,0.43615 -0.1101,-3.6716 1.0112,-1.83865 1.1457,0.65164 0.2098,0.971 2.0495,0.31523 1.402,0.79788 3.6866,0.79272 -2.0557,-2.05569 0.7844,-0.2465 0.4341,-1.60248 0.401,-0.0594 0.2775,1.42678 3.4887,0.5948 0.9513,-1.26866 -1.3466,-0.46508 1.6603,-2.03502 1.665,2.45773 0.3173,-3.17138 z m -29.3485,24.38919 0.1737,0.14676 -0.9535,2.3554 c -0.4772,-0.30736 -1.0172,-0.63694 -1.4013,-0.89812 l 1.005,-0.73949 0.9565,0.20309 -0.096,-0.83613 z m 4.1372,2.21381 2.0614,2.61638 4.5982,-2.14096 0.4759,3.9641 2.3781,-0.39636 2.8541,-2.2195 -0.7928,3.32951 3.4091,-0.39635 0.5096,0.44958 c -2.216,0.5865 -5.128,1.00294 -8.355,0.46509 -3.7152,-0.6192 -7.7936,-2.74872 -10.866,-4.62091 l 0.477,0.0594 z m 22.119,5.62911 1.9823,1.34772 c 0,0 -1.3913,0.88215 -3.8163,2.04122 -1.3246,-0.34085 -2.1265,-1.00769 -2.1265,-1.00769 l 2.3389,-1.54616 -0.2114,-0.68212 z m -16.7276,17.83765 0.5406,0.0956 0.5302,0.66662 -1.2754,2.41381 -1.0687,-1.67535 z m 5.6285,1.90273 c 0,0 -0.595,2.23023 -2.3052,4.25916 -1.6587,-0.70715 -2.5672,-1.48104 -2.5672,-1.48104 l -0.4476,-0.70176 z" /><path
       id="path24"
       style="opacity:1;fill:#412051;fill-opacity:1;stroke:none;stroke-width:1.32292"
       d="m 759.60986,0.39687499 0.72967,1.12964561 2.23138,3.8204345 0.17983,4.0038855 -0.6811,4.2333284 -1.21231,-0.604613 -0.1385,-1.728058 -1.32601,-0.656807 -0.30438,-1.6660464 -0.10749,-1.644859 0.36897,-3.1501918 -1.66758,-1.9678365 -0.97204,1.2934597 -0.92396,1.9761046 -1.65416,-0.5710239 -2.43964,-2.2076148 -1.40715,-0.2666501 -0.21755,2.8468516 2.63859,3.7429198 1.23041,2.7192108 -1.93114,0.555521 -0.88057,1.940964 1.76682,1.021126 2.713,-0.792716 0.5426,1.29191 -0.5674,3.527946 -1.94252,-0.481623 -2.98275,-1.586983 4.35734,7.509611 2.35282,2.277895 2.3213,2.195213 0.45217,2.159555 -0.49506,1.303795 -1.28932,-1.011823 -0.73381,-1.750279 -1.67896,-0.334863 -1.13532,-0.955496 -1.31259,-1.173054 1.20148,-2.34559 -1.0635,-1.267105 -2.53368,-0.543635 -0.42013,1.351336 -1.66191,0.2651 -2.60085,-1.427818 -4.763,-4.004402 -1.87689,-0.789615 v 4.384223 l 0.0227,0.03772 1.8433,0.670759 0.28318,1.105875 -2.14922,-0.535367 v 3.078879 l 1.02888,0.168981 1.70428,0.85576 0.48266,1.48518 -0.15245,1.458824 2.04069,1.448489 -0.52399,0.822171 -4.58007,-5.17e-4 v 3.58634 l 0.25528,0.426331 1.20251,-0.830956 2.55384,-0.410828 1.24023,1.484662 2.57813,1.265555 1.46966,-1.480528 2.14767,0.423229 0.8971,0.572058 -3.30987,1.925979 0.27854,1.145148 1.80815,0.627351 1.87017,-1.119827 0.82784,0.0863 -0.62424,2.166791 1.7973,1.104323 1.4831,-0.841808 1.61231,0.208256 0.33899,-1.718239 1.12861,-0.12144 0.21032,1.416966 0.52968,0.65319 0.32143,2.265491 c 0,0 -1.48105,0.44317 -8.1204,0.666626 -6.63927,0.223446 -8.31883,-3.538799 -8.31883,-3.538799 l -4.05608,-2.376596 -0.12144,0.06408 v 2.009178 l 1.65985,1.515151 -0.56792,0.857311 -1.09193,-0.688329 v 8.2553 l 3.40909,-2.66185 0.76429,1.07642 -4.17338,2.286163 v 3.150191 l 3.15019,-1.358571 0.40256,2.632394 3.96202,-3.212721 1.59885,1.482079 1.3658,-2.009694 c 0,0 0.63301,0.424988 4.04418,0.581876 3.41119,0.156885 5.04464,-4.415746 5.04464,-4.415746 0,0 0.58553,0.499767 -4.29585,6.406836 -4.88126,5.907057 -12.26845,4.896337 -12.26845,4.896337 l -3.00394,-2.127 v 15.430569 l 0.97307,0.03566 3.09747,-2.187461 0.37414,2.908346 3.21426,-1.776633 2.19985,0.309542 2.38486,-1.465026 3.06543,-1.11466 2.86029,-1.056265 1.49343,1.351338 c 0,0 -1.2876,1.260709 -10.65305,4.308259 -3.62572,1.179837 -6.64622,1.540194 -9.00975,1.549258 v 18.083114 c 1.66035,0.852999 3.16621,1.59835 3.16621,1.59835 0,0 -2.24669,0.349642 -3.16621,0.497644 V 286.14656 h 9.4397 l -0.36536,-1.43298 c -1.91946,-7.52776 0.91519,-7.68273 0.91519,-7.68273 l 3.73671,5.2374 0.003,-0.007 c 0.44232,0.63343 1.13298,1.44104 2.39209,2.02003 0.35356,0.16258 0.69361,0.23184 1.02371,0.26665 l 0.61598,1.18494 2.41173,-0.42426 0.0543,0.11007 -1.44899,0.7276 h 155.8937 l -0.29197,-1.24436 c 0,0 -0.55745,0.63973 -8.17311,0.47077 -7.61556,-0.16895 -6.91685,-1.15704 -6.91685,-1.15704 l 1.86033,-2.38383 -1.35907,-0.48421 c 0,0 -3.35117,2.08959 -12.13152,0.25735 -8.78034,-1.8322 -19.22769,-8.65631 -19.22769,-8.65631 l -0.76584,-2.31304 2.68664,0.84698 1.35961,-1.38285 5.60119,3.09851 10.77087,1.76113 -0.74208,-3.30471 3.17034,3.22151 1.49086,0.29404 0.45268,-2.11615 3.2861,2.03709 5.99185,-2.39727 -2.43549,-1.66554 0.47387,-1.20095 3.56513,2.01538 1.12293,-2.03346 9.56631,-1.13637 v -1.27072 l 3.43646,0.29921 0.3235,-1.33016 -2.39571,-0.43098 0.58291,-2.90215 -2.8701,-0.46147 -0.20361,-1.16478 3.00653,0.19172 4.93455,-1.39216 1.39475,-1.93683 c 0,0 -0.93739,0.37701 -8.14313,0.63149 -7.20578,0.25446 -9.63815,-0.21859 -9.63815,-0.21859 l -0.14107,-1.51877 1.79006,-0.0444 -0.26768,-1.40714 c 0,0 -1.66404,-0.0667 -10.71558,-0.7643 -9.05145,-0.69766 -6.6161,-3.99768 -6.6161,-3.99768 l 2.20295,0.339 1.29552,-1.62522 1.19321,0.59272 1.54718,-1.21181 2.55179,1.71204 c 2.55187,1.7122 4.0669,0.37931 4.0669,0.37931 l -5.65285,-4.77025 1.60765,-0.29456 1.31515,1.79214 6.50035,0.21704 -3.50778,-2.28978 -0.2434,-1.16737 5.26167,0.33589 1.01441,-2.19935 4.4855,-1.81848 0.46043,-2.23449 -11.00238,1.24334 0.31574,-3.07837 -6.74065,1.67432 c 0,0 -0.50926,-0.11152 -5.72262,-1.19941 -5.21328,-1.08787 -9.28466,-5.12164 -9.28466,-5.12164 l 3.93153,0.0129 1.46346,-1.77354 3.98217,2.95537 2.09496,-0.46147 3.94651,-0.2248 -1.62108,-2.60603 3.48555,0.77876 0.01,-1.38957 3.26181,-0.0693 -0.0289,-2.02778 0.48058,-0.6842 -0.23822,-1.24644 -1.30843,-1.27537 3.79198,-2.77656 -0.0972,-1.59526 c 0,0 -1.79545,0.12369 -9.73269,1.88051 -7.93725,1.75676 -15.77158,0.66042 -15.77158,0.66042 l -1.28105,-1.71049 c -1.2809,-1.71044 5.97687,-0.29352 5.97687,-0.29352 l -1.15807,-1.14618 0.58601,-1.71049 7.08945,1.56528 -2.99257,-4.75888 5.18882,0.84801 0.61546,-1.54978 -2.88664,-0.82009 3.05769,-1.23455 0.45578,-2.15543 c 0,0 -3.20244,1.6228 -11.48038,1.25264 -8.27795,-0.37018 -13.73658,-2.58589 -13.73658,-2.58589 l -0.20101,-1.20923 2.51714,-0.23203 0.12764,-2.61326 3.31141,2.8732 2.40501,-0.9586 1.65778,0.78135 1.05058,-1.52187 2.91609,-0.25064 -3.58529,-5.43273 7.78604,1.84847 0.97564,-0.97049 c 0,0 -0.58705,-0.7524 1.21854,-2.90111 1.80557,-2.1487 4.2142,-0.6842 4.2142,-0.6842 l -1.9172,-2.94244 2.80447,1.48982 1.91565,-1.38699 -1.10898,-2.53369 -1.82985,0.0419 0.62786,-1.74718 -3.51036,-0.38293 0.30643,-1.68878 -0.97668,-0.26097 -1.14876,1.19786 -7.92351,0.92346 4.81364,-3.22771 -0.33641,-1.57044 -3.96357,1.7327 0.16227,-1.30018 1.39835,-0.74516 -0.69762,-1.51412 c 0,0 -4.83676,3.58364 -11.73361,3.97701 -6.89675,0.39336 -10.40294,-3.16724 -10.40294,-3.16724 l -3.20392,-5.80533 2.60603,0.24598 1.2733,1.82883 5.55313,0.11679 2.18435,1.2516 0.38964,-2.99361 5.29732,2.88044 0.14935,-2.33371 7.10549,0.69195 0.33434,-2.12339 1.37407,2.11357 1.9637,-0.27182 -1.78283,-3.17241 2.68303,-0.34469 1.13635,-0.99992 -2.74451,-1.80403 c 0,0 0.218,-0.30371 3.70517,-0.79582 3.48717,-0.49209 5.73038,-4.51962 5.73038,-4.51962 l -3.88399,-0.12867 c -3.88437,-0.1291 -2.32491,-1.53891 -2.32491,-1.53891 l -2.45513,-0.11731 1.05315,-1.56114 -1.16735,-1.62368 c 0,0 -1.25745,1.03156 -5.21104,2.60604 -3.95348,1.57448 -6.49466,-0.9312 -6.49466,-0.9312 l 2.43291,-1.39372 -0.69091,-2.86442 c 0,0 -5.77993,2.80825 -12.58987,1.22111 -6.81006,-1.58712 -14.90084,-8.61807 -14.90084,-8.61807 l 3.86331,1.08056 -0.0698,-1.39423 1.45933,1.40405 2.77398,0.0977 2.74608,2.39986 0.77411,-3.40651 5.11801,3.82249 0.85525,-3.4406 0.51727,3.0918 2.17868,0.0992 0.64336,1.11361 2.38486,-0.64182 2.8148,-2.40191 -0.69608,-2.78536 2.70267,1.84072 2.36367,0.31005 -1.82882,-2.46031 -0.28526,-1.13068 2.93211,0.108 -1.57303,-1.49035 -1.41489,-1.48104 1.5539,-0.69504 3.63853,2.73522 3.63439,0.31161 -2.02003,-1.95647 0.26459,-1.65105 3.47367,0.34107 2.82669,-1.96423 1.13481,-1.59576 -7.70389,-0.65113 1.43815,-1.37821 -0.83147,-1.28416 -6.95613,3.80546 0.89864,-2.24638 -2.31923,-0.38654 1.72599,-1.51825 -0.12454,-1.15962 -5.60739,3.21634 -2.94967,1.40043 -6.21924,-1.50998 -8.5612,-4.63847 -1.47173,-3.07268 3.9062,0.40824 0.69194,2.22881 2.17971,0.69556 0.2713,-1.13481 0.5612,-1.94975 3.4313,4.11188 1.91048,0.55862 0.13435,-3.96305 1.05058,-1.52187 4.68858,3.07991 3.6287,1.02629 -4.03643,-4.58731 -0.0641,-1.47381 1.68826,0.30644 0.0734,1.9513 2.15645,-0.18035 0.18552,1.44229 3.44371,0.81545 1.02991,-1.20509 -2.12751,-0.89039 -0.29042,-1.05161 2.0748,-0.14521 -0.77257,-0.96325 4.12015,-0.45165 -2.7993,-1.5689 c 0,0 0.0404,-0.63322 3.57289,0.0294 3.53249,0.6627 3.88036,-2.2939 3.88036,-2.2939 l -6.65951,-1.45831 -0.73844,-2.11253 -9.35082,2.73885 1.07693,-2.55282 -2.46184,-0.63407 0.80356,-2.01383 -4.03385,0.97307 -0.55293,-2.53731 -5.78878,3.56205 -5.43634,-0.70486 -2.62152,-1.23972 2.36314,-1.55701 -0.26975,-1.36787 c 0,0 -4.18673,0.2488 -7.63412,-1.12344 -3.44749,-1.37223 -3.01996,-9.92445 -3.01996,-9.92445 l 1.9208,0.40049 -0.15451,4.27983 c -0.1544,4.28002 2.80085,4.03231 2.80085,4.03231 l 1.72289,0.38809 -0.01,-1.788 1.00509,-2.67632 1.78232,3.80803 1.67998,1.0604 2.08049,1.00718 0.59273,-1.19373 -1.60506,-1.61179 0.11058,-1.10535 2.35334,-1.39837 1.3906,1.24075 0.96583,2.28617 1.97093,1.47639 2.37762,2.57503 0.42013,-3.46903 1.79163,-2.54661 1.68722,2.80861 1.01854,0.22428 -0.0351,-1.3131 3.35997,0.25425 1.37822,-0.42788 2.23706,-1.44591 -1.69343,-2.09445 -1.45262,-0.88728 -1.33221,-2.15076 -2.58535,-0.56224 -4.14703,-1.61541 1.66502,-2.43603 -3.93309,-0.60874 -4.61675,2.00866 -1.51618,0.1018 -2.84582,1.64538 -1.41901,-0.17002 -0.5333,-2.21898 -4.64467,0.57722 -3.27213,-2.87062 2.75899,0.33538 1.98644,1.2392 1.63606,-1.36529 1.71049,0.58601 1.40197,1.67845 1.72392,-0.24753 1.40456,-0.2279 1.63917,-1.40456 2.41638,-0.5209 -1.00511,-1.0573 -0.0326,-1.35237 3.18481,-0.11421 2.96983,-1.717197 -7.62689,-1.241783 -0.73433,-1.556492 1.45934,-2.329572 1.90686,0.0026 2.35798,2.256191 0.38344,-3.510894 1.83037,1.189591 1.14463,-1.753896 1.36219,0.444417 1.05109,-0.290422 -0.10438,-1.476394 -3.80338,-1.394745 -6.32466,1.382859 -2.92229,1.600935 -6.47553,4.98832 -3.18739,0.153479 -0.23927,1.255736 -1.61177,-0.261999 0.65008,-3.334676 4.99193,0.199987 0.93947,-1.64796 1.5875,0.02222 0.70795,-2.37763 5.26426,-1.570445 2.81222,-0.495576 2.38021,-1.198376 0.014,-0.833023 1.98385,-0.588593 -0.31058,-0.734322 2.35696,-2.073773 0.88986,-1.492414 -2.55849,-0.362251 -2.20037,-0.378788 0.21394,-0.860411 2.66236,-3.126422 0.27956,-1.888771 -1.28673,-0.995804 -3.67005,3.975981 -1.42006,0.465088 c -1.4199,0.46534 -1.76992,-2.138886 -1.76992,-2.138886 l -1.17356,0.957563 -1.9947,3.248894 -3.40597,4.191471 -3.37963,3.160527 -4.03127,2.16524 c 0,0 -0.55794,-0.592025 -0.34985,-2.604489 0.208,-2.012464 0.10749,-4.163565 0.10749,-4.163565 0,0 -0.14209,-0.882937 -1.07848,-4.87515 -0.9365,-3.992212 3.64111,-4.772313 3.64111,-4.772313 l 1.48827,0.333312 -0.23151,3.003948 1.31207,0.60048 3.08404,-2.265493 1.86498,1.270723 1.49344,-1.612304 -3.04579,-3.928438 -2.17815,-0.09974 -1.4552,-0.847493 0.32814,-1.408698 c 0,0 1.21622,0.236251 4.0788,0.816487 2.86247,0.580153 5.34642,-0.373104 5.34642,-0.373104 l 0.55242,-0.560688 -1.95543,-0.48214 -2.05517,-1.402498 -1.41334,-0.884699 5.46838,-4.139278 -0.62735,-0.754992 -5.58154,2.185394 -2.91971,1.561143 0.78548,-2.968291 -1.37304,0.348816 -2.50888,3.215821 -0.43459,3.07061 -3.52277,1.04593 0.047,-1.982823 0.73742,-4.083983 2.35644,-3.305222 3.42406,-3.237007 2.41381,-3.579107 -1.73478,-0.826305 -1.81848,0.480074 -2.86339,3.788912 -1.37304,0.349332 -0.0258,-2.702675 0.39585,-5.575364 -1.13016,-1.581813 -0.65887,-2.742982 -1.08779,3.346561 -0.86971,4.909256 -0.27802,6.218218 -4.316,-4.565607 -0.5984,-1.825727 -0.61081,0.239262 -0.35295,3.035987 2.69491,3.826636 2.3833,3.7269 0.34055,3.994067 -0.51056,4.2571 -1.23559,-0.555521 -0.20773,-1.721341 -1.35185,-0.602546 -0.37104,-1.65261 -0.17311,-1.639692 0.24184,-3.162077 -1.74561,-1.899107 -0.91932,1.3317 -0.84336,2.011761 -1.67586,-0.504361 -2.52645,-2.107879 -1.41645,-0.209807 -0.10283,2.85357 2.78638,3.633366 1.33894,2.667535 -1.90737,0.633035 -0.8015,1.974555 1.80608,0.949295 2.67941,-0.901236 0.59376,1.269688 -0.42529,3.547584 -1.96008,-0.403593 -3.04425,-1.465542 4.65551,7.328227 2.44273,2.181777 2.4076,2.100127 0.53846,2.139919 -0.44183,1.321882 -1.32911,-0.958597 -0.80356,-1.71979 -1.69084,-0.26665 -1.17306,-0.908987 -1.35856,-1.119828 1.10638,-2.392099 -1.11362,-1.22318 -2.55384,-0.4408 -0.36535,1.366841 -1.64951,0.331245 -2.65616,-1.321364 -4.92061,-3.8101 -2.56003,-0.95808 -0.95756,1.924945 1.81126,2.737298 1.8686,0.595828 0.32711,1.093472 -3.05768,-0.632001 -0.60513,1.391127 -0.0274,1.666564 2.68045,0.330211 1.73683,0.785998 0.54208,1.464509 -0.0941,1.463991 2.09754,1.365291 -0.49093,0.842324 -4.57954,0.183968 -2.35592,1.43867 1.68981,0.90227 1.08572,1.658295 1.16839,-0.879015 2.53524,-0.513147 1.29863,1.433504 2.6267,1.161167 1.4092,-1.538405 2.16317,0.336413 0.91881,0.535367 -3.22977,2.057753 0.32504,1.133258 1.83142,0.55397 1.82417,-1.194235 0.83044,0.05323 -0.53692,2.190045 1.8407,1.03095 1.44746,-0.90021 1.61952,0.14315 0.26975,-1.73065 1.12241,-0.16639 0.26767,1.40715 0.55553,0.63148 0.41237,2.25051 c 0,0 -1.46235,0.50254 -8.08732,0.9927 -6.62496,0.49016 -8.45423,-3.20187 -8.45423,-3.20187 l -4.14856,-2.21123 -1.48466,0.85834 3.1662,2.66496 -0.53279,0.87953 -11.80026,-6.791832 -1.43143,0.02791 0.1509,3.227192 -8.99425,0.89451 c 0,0 0.94033,1.45064 4.13772,3.00551 3.19746,1.5548 6.31741,-0.0336 6.31741,-0.0336 l 1.48311,0.41289 -3.00084,2.15904 c -0.83276,0.41768 -2.05145,0.97146 -3.96254,1.64486 -4.01356,1.41427 -6.45177,-1.19166 -6.45177,-1.19166 l 2.48666,-1.29449 -0.57515,-2.88975 c 0,0 -5.8885,2.57326 -12.62916,0.71366 -6.74064,-1.85961 -14.5422,-9.210287 -14.5422,-9.210287 l 3.81681,1.235583 -0.014,-1.396297 1.40198,1.461409 2.76778,0.209288 2.64738,2.508372 0.91053,-3.372401 4.95987,4.025074 0.99322,-3.403406 0.39274,3.109884 2.17247,0.186551 0.59841,1.13895 2.40863,-0.54571 2.90886,-2.286674 -0.58343,-2.811195 2.6267,1.948199 2.3487,0.404627 -1.72806,-2.532143 -0.23978,-1.140498 2.92591,0.225309 -1.51204,-1.552358 -1.35393,-1.536339 1.58079,-0.632519 3.52533,2.879408 3.61889,0.457337 -1.93992,-2.035533 0.33073,-1.639692 3.45713,0.480591 2.90317,-1.848981 1.19786,-1.548741 -7.67133,-0.960663 1.49292,-1.318782 -0.77928,-1.316714 -7.1034,3.522779 0.98805,-2.208649 -2.30167,-0.479557 1.78542,-1.447455 -0.078,-1.163752 -5.73244,2.988445 -3.00343,1.280541 -6.15309,-1.758547 -8.36793,-4.979019 -1.34719,-3.129522 3.88656,0.565339 0.60152,2.254641 2.15024,0.78238 0.31626,-1.122411 0.63976,-1.925977 3.26283,4.246247 1.88669,0.635619 0.29353,-3.954792 1.11104,-1.478462 4.56094,3.265947 3.58427,1.171503 -3.84885,-4.745958 -0.01,-1.47536 1.67482,0.374137 -0.0103,1.952334 2.16214,-0.09302 0.12764,1.447972 3.40804,0.953945 1.07796,-1.162718 -2.09029,-0.97565 -0.24805,-1.06195 2.07893,-0.06201 -0.73328,-0.99322 4.13512,-0.28577 -2.73419,-1.680516 c 0,0 0.0663,-0.630533 3.56929,0.173632 3.50306,0.804164 3.96924,-2.136301 3.96924,-2.136301 l -6.59543,-1.724957 -0.65319,-2.140952 -9.45313,2.361093 1.17874,-2.507338 -2.43447,-0.73277 0.88418,-1.980239 -4.07002,0.810802 -0.45062,-2.55798 -5.92725,3.326924 -5.40327,-0.92294 -2.56986,-1.344619 2.42413,-1.460374 -0.21497,-1.377692 c 0,0 -4.19297,0.08034 -7.58246,-1.429369 -3.38946,-1.509711 -2.61894,-10.038136 -2.61894,-10.038136 l 1.90323,0.478006 -0.32608,4.27002 c -0.32629,4.270326 2.63652,4.141344 2.63652,4.141344 l 1.70584,0.457336 0.0667,-1.786969 1.11207,-2.633429 1.6278,3.876245 1.63607,1.127579 2.03863,1.089338 0.63975,-1.168403 -1.53891,-1.675348 0.15502,-1.099673 2.4076,-1.303278 1.33944,1.296043 0.87333,2.322854 1.91047,1.554425 2.27168,2.668568 0.55965,-3.448881 1.89239,-2.472715 1.57303,2.874239 1.00872,0.265101 0.0181,-1.313613 3.34654,0.389122 1.39423,-0.372586 2.29391,-1.354438 -1.60816,-2.16059 -1.41594,-0.945161 -1.24435,-2.202446 -2.56108,-0.665592 -4.07829,-1.781285 1.76164,-2.366777 -3.90569,-0.766362 -4.69375,1.821593 -1.51876,0.04082 -2.90989,1.529103 -1.41128,-0.226859 -0.44338,-2.23862 -4.6643,0.390156 -3.15431,-2.999814 2.74348,0.445968 1.93477,1.317747 1.68981,-1.29811 1.68568,0.654222 1.33324,1.733742 1.73271,-0.177766 1.41283,-0.171565 1.69394,-1.337385 2.4355,-0.423747 -0.96169,-1.096572 0.0222,-1.352888 3.18686,0.01395 3.03598,-1.595766 -7.57005,-1.547708 -0.67178,-1.584915 1.55235,-2.26911 1.90478,0.07958 2.26548,2.348692 0.52399,-3.492289 1.78129,1.261936 1.21439,-1.706354 1.34307,0.498678 1.06194,-0.24753 -0.045,-1.479495 -3.74446,-1.546674 -6.37477,1.127579 -2.9843,1.482078 -6.67089,4.723737 -3.191,0.02532 -0.28991,1.245401 -1.59989,-0.326595 0.78392,-3.305738 4.97952,0.400492 1.00511,-1.609202 1.58542,0.08578 0.80305,-2.347142 5.32266,-1.357021 2.82978,-0.382405 2.42671,-1.101741 0.047,-0.83199 2.00608,-0.507978 -0.28061,-0.746723 2.43809,-1.977138 0.94928,-1.455208 -2.54195,-0.465087 -2.18332,-0.466638 0.24805,-0.85111 2.78638,-3.016867 0.35502,-1.876369 -1.24592,-1.046446 -3.82662,3.825085 -1.43763,0.407727 c -1.43759,0.407882 -1.68257,-2.208132 -1.68257,-2.208132 l -1.21078,0.909504 -2.12389,3.166212 -3.57187,4.050911 -3.50365,3.022034 -4.11497,2.001426 c 0,0 -0.53375,-0.613902 -0.24495,-2.616374 0.2886,-2.002475 0.2744,-4.155815 0.2744,-4.155815 0,0 -0.1064,-0.888307 -0.88159,-4.914939 -0.77529,-4.026633 3.83024,-4.621418 3.83024,-4.621418 l 1.47328,0.392739 -0.35191,2.992063 1.28674,0.652672 3.17292,-2.139918 1.81228,1.345136 1.55702,-1.551325 -2.88561,-4.047294 -2.17247,-0.187069 -1.42006,-0.905886 0.38499,-1.394228 c 0,0 1.20574,0.284942 4.04263,0.979784 2.83687,0.69476 5.35728,-0.15813 5.35728,-0.15813 l 0.57412,-0.537435 -1.93424,-0.560688 -1.99729,-1.4841459 -1.37614,-0.94051 5.62961,-3.9160357 -0.59583,-0.7797966 -5.66475,1.9595682 -2.98069,1.4422876 0.90434,-2.9347013 -1.38543,0.2940385 -2.63704,3.1119514 -0.55759,3.0509728 -3.56153,0.903303 0.12661,-1.9797215 0.90123,-4.0509111 2.48718,-3.2075526 2.20864,-1.92546181 h -7.71732 l -0.0465,0.54828634 -0.478,-0.54828634 z m 51.27262,105.99341501 1.07384,1.2206 -2.88612,0.41134 -1.02112,1.68206 1.45675,1.44384 -0.0754,0.43873 c -3.78982,-0.29573 -2.21434,-1.62212 -2.21434,-1.62212 l -1.78438,-0.1571 3.26905,-2.84219 z m 24.35448,2.39055 c 0,0 0.60552,0.47574 -4.03435,6.57427 -4.63989,6.0985 -12.06176,5.38571 -12.06176,5.38571 l -7.66615,-4.9785 -1.05369,0.32969 1.9172,2.94297 -1.71101,0.0496 -3.37084,-1.32756 -3.0303,-1.06764 0.0109,0.50023 -0.52606,-0.37672 c 0,0 0.23003,-0.29494 3.73412,-0.64647 3.50417,-0.35153 5.90763,-4.28553 5.90763,-4.28553 l -0.57154,-0.0419 0.10128,-0.078 2.71455,0.41186 3.48556,-2.95484 0.80719,1.04437 -5.4937,3.30367 -0.16536,1.33945 1.44021,1.08521 3.35998,-1.61231 0.50798,2.61431 3.83025,-3.36982 1.65725,1.41697 1.28365,-2.06292 c 0,0 0.64964,0.39898 4.06433,0.41858 3.41466,0.0196 4.86272,-4.6147 4.86272,-4.6147 z m -59.22404,11.83544 2.59363,0.35088 1.19889,1.87844 5.54434,0.34003 2.13216,1.33842 0.51004,-2.97553 5.17693,3.09128 0.24288,-2.32647 3.87675,0.53588 -0.80408,0.61444 0.39687,0.62115 3.58478,0.46715 0.0238,2.4598 c -1.39551,0.82614 -5.58694,3.02231 -11.24164,3.11711 -6.90718,0.11578 -10.26755,-3.58323 -10.26755,-3.58323 z m 27.19048,5.85855 -0.4377,1.87843 0.68574,0.49816 -3.32485,1.29708 0.21446,-1.29243 1.42729,-0.68832 -0.51986,-1.25987 0.83974,-0.38499 z m 2.42826,1.78387 1.80195,0.39325 1.72496,2.94556 -0.35192,-0.10956 -0.0393,-0.0894 -0.077,0.0532 -0.0496,-0.0155 -0.1819,0.17466 -1.46503,1.00976 -1.74717,0.13281 -1.96111,-1.34824 -1.34307,0.2806 2.48718,-1.52652 -0.19896,-1.1529 z m 29.02292,0.82217 1.54614,1.29036 c 0,0 -1.23581,1.31095 -10.47114,4.73252 -5.03177,1.86423 -8.83515,2.05084 -11.37548,1.85829 l -0.49765,-1.27486 -1.83037,-0.0315 0.69814,-1.72083 -3.0458,-0.45682 -0.30591,-0.69815 0.16225,-0.72605 2.64739,-0.63614 1.92958,2.74506 3.5362,-0.0124 3.00756,-2.30993 0.4904,2.89129 3.14037,-1.90479 2.21019,0.22066 2.32389,-1.55908 3.01841,-1.23713 z m -32.2284,17.00618 10.68717,6.80009 c 1.40498,0.894 7.63051,3.66541 7.63051,3.66541 0,0 -4.60388,0.94061 -9.5601,1.88411 l 0.28422,-0.63975 -2.8515,-0.93534 3.10523,-1.11052 0.54157,-2.13579 c 0,0 -3.26425,1.49278 -11.5207,0.79014 -8.25636,-0.70265 -13.62238,-3.13625 -13.62238,-3.13625 l -0.15193,-1.21594 2.52491,-0.13023 0.23203,-2.60656 3.19358,3.00395 2.44171,-0.86092 1.62522,0.84697 1.11053,-1.47794 2.92331,-0.13333 -0.75654,-1.25367 0.59273,-1.01801 z m 3.21427,12.17753 3.06698,0.6289 c -0.82739,0.15277 -1.66064,0.31224 -2.44687,0.45114 z m -16.55913,55.1449 5.23584,3.17861 c -1.80091,0.0714 -3.92356,0.0982 -6.80473,-0.0357 -0.42579,-0.0198 -0.80166,-0.011 -1.23196,-0.0284 -0.14209,-0.0987 -0.59118,-0.39946 -0.59118,-0.39946 l -0.67231,-2.34197 2.65047,0.95395 z m -4.50101,24.02176 0.82373,2.41691 1.6712,1.17099 0.60565,0.2713 c -1.24565,0.10403 -1.93367,0.16147 -2.86545,0.17053 -0.2694,-0.17801 -0.91727,-0.57315 -1.05574,-0.67386 -1.99059,-1.44786 -0.36638,-2.96881 -0.36638,-2.96881 z m 8.60875,2.67219 0.75654,0.15451 c -0.22837,0.0621 -0.45609,0.10916 -0.68471,0.16537 z m -2.5249,0.13488 0.2806,0.66921 c -0.42047,0.0715 -0.84677,0.15374 -1.25624,0.20929 l 0.0181,-0.10181 z m -36.22606,39.53501 0.78238,1.50481 -1.3932,0.12144 z" /></g></svg>
