<?xml version="1.0" encoding="UTF-8" standalone="no"?>
<!-- Created with Inkscape (http://www.inkscape.org/) -->

<svg
   width="1919.9998"
   height="1080"
   viewBox="0 0 507.99992 285.74999"
   version="1.1"
   id="svg1"
   sodipodi:docname="idea 6.svg"
   inkscape:version="1.3.2 (091e20e, 2023-11-25, custom)"
   inkscape:export-filename="idea 6.png"
   inkscape:export-xdpi="96"
   inkscape:export-ydpi="96"
   xmlns:inkscape="http://www.inkscape.org/namespaces/inkscape"
   xmlns:sodipodi="http://sodipodi.sourceforge.net/DTD/sodipodi-0.dtd"
   xmlns:xlink="http://www.w3.org/1999/xlink"
   xmlns="http://www.w3.org/2000/svg"
   xmlns:svg="http://www.w3.org/2000/svg">
  <sodipodi:namedview
     id="namedview1"
     pagecolor="#ffffff"
     bordercolor="#cccccc"
     borderopacity="1"
     inkscape:showpageshadow="0"
     inkscape:pageopacity="1"
     inkscape:pagecheckerboard="0"
     inkscape:deskcolor="#d1d1d1"
     inkscape:document-units="px"
     inkscape:zoom="0.4894542"
     inkscape:cx="964.33947"
     inkscape:cy="515.88076"
     inkscape:window-width="1920"
     inkscape:window-height="991"
     inkscape:window-x="-9"
     inkscape:window-y="-9"
     inkscape:window-maximized="1"
     inkscape:current-layer="layer1" />
  <defs
     id="defs1">
    <linearGradient
       id="linearGradient26"
       inkscape:collect="always">
      <stop
         style="stop-color:#a2af5d;stop-opacity:0;"
         offset="0"
         id="stop27" />
      <stop
         style="stop-color:#fcef8d;stop-opacity:1;"
         offset="1"
         id="stop26" />
    </linearGradient>
    <filter
       style="color-interpolation-filters:sRGB"
       inkscape:label="Noise Fill"
       id="filter45"
       x="0"
       y="0"
       width="1"
       height="1">
      <feTurbulence
         type="fractalNoise"
         baseFrequency="21.5873 40"
         numOctaves="5"
         seed="1"
         result="turbulence"
         id="feTurbulence44" />
      <feComposite
         in="SourceGraphic"
         in2="turbulence"
         operator="in"
         result="composite1"
         id="feComposite44" />
      <feColorMatrix
         values="1 0 0 0 0 0 1 0 0 0 0 0 1 0 0 0 0 0 3.73065 -1 "
         result="color"
         id="feColorMatrix44" />
      <feFlood
         flood-opacity="0"
         flood-color="rgb(21,40,57)"
         result="flood"
         id="feFlood44" />
      <feMerge
         result="merge"
         id="feMerge45">
        <feMergeNode
           in="flood"
           id="feMergeNode44" />
        <feMergeNode
           in="color"
           id="feMergeNode45" />
      </feMerge>
      <feComposite
         in2="SourceGraphic"
         operator="in"
         result="composite2"
         id="feComposite45" />
    </filter>
    <linearGradient
       inkscape:collect="always"
       xlink:href="#linearGradient26"
       id="linearGradient32"
       gradientUnits="userSpaceOnUse"
       gradientTransform="translate(-1335.7624,8.6680572)"
       x1="35.642269"
       y1="30.212753"
       x2="447.3436"
       y2="57.963299" />
  </defs>
  <g
     inkscape:label="Layer 1"
     inkscape:groupmode="layer"
     id="layer1"
     transform="translate(1368.7185)">
    <rect
       style="fill:none;fill-opacity:1;stroke:none;stroke-width:0.529167"
       id="rect36"
       width="507.99997"
       height="285.75"
       x="-1368.7185"
       y="0" />
    <path
       style="fill:#a2af5d;fill-opacity:1;stroke:none;stroke-width:0.529166"
       d="m -1051.4717,66.804752 163.05285,-0.173398 c 0,0 -6.99109,-1.197129 -10.52363,-1.26791 -1.05975,-0.02123 -2.1203,0.402488 -3.16975,0.253581 -1.65538,-0.234887 -3.02264,-1.669661 -4.69128,-1.775072 -1.08444,-0.06847 -2.37842,1.505356 -3.16977,0.760742 -0.26569,-0.249988 0.2141,-0.713711 0.19019,-1.07772 -0.0828,-1.26043 -0.25504,-2.713296 -1.1411,-3.613534 -0.89064,-0.90489 -2.35693,-1.38605 -3.61354,-1.204514 -0.84129,0.121539 -1.5455,0.807094 -2.09204,1.458101 -0.83891,0.99924 -0.34774,3.446176 -1.64831,3.550131 -0.94062,0.07523 -0.83965,-1.766771 -1.58487,-2.345618 -0.93961,-0.729846 -2.17304,-1.121999 -3.35994,-1.204513 -1.03361,-0.07192 -2.18701,0.05017 -3.04298,0.633949 -0.54233,0.369878 -0.4213,1.648284 -1.07774,1.648284 -0.65645,0 -0.63126,-1.167028 -1.07771,-1.648284 -0.54328,-0.585641 -1.13609,-1.230702 -1.90186,-1.458095 -0.79238,-0.235297 -1.74171,-0.196195 -2.47241,0.190191 -0.71771,0.379508 -0.71052,1.93953 -1.52151,1.901859 -0.96016,-0.04459 -0.74601,-1.939729 -1.58487,-2.409027 -0.59044,-0.330322 -1.38276,0.137885 -2.02868,-0.06345 -0.74427,-0.231954 -1.22163,-1.033806 -1.96524,-1.26791 -0.54459,-0.171451 -1.15622,-0.19556 -1.71167,-0.06345 -0.68089,0.161995 -1.22661,1.354184 -1.83847,1.01433 -0.70296,-0.390453 0.25405,-1.70084 -0.12684,-2.409028 -0.28627,-0.532297 -0.88407,-0.888613 -1.45811,-1.077726 -0.46161,-0.152077 -1.04564,0.257141 -1.45807,0 -1.01849,-0.635014 -0.71853,-2.402496 -1.5849,-3.233154 -0.683,-0.65485 -1.67875,-0.921851 -2.59922,-1.141116 -0.76169,-0.181447 -1.58796,-0.324567 -2.3456,-0.126845 -0.72609,0.189478 -1.15325,1.152792 -1.90187,1.204513 -0.50945,0.03516 -1.11824,-0.204599 -1.39471,-0.633955 -0.60635,-0.941656 0.42861,-2.325229 0,-3.35996 -0.26302,-0.635033 -0.90411,-1.051173 -1.45807,-1.458088 -0.84556,-0.621092 -1.83621,-1.019686 -2.7894,-1.458094 -1.13725,-0.523059 -2.74361,-0.387367 -3.48676,-1.394698 -0.46568,-0.631248 0.0979,-1.616002 -0.19019,-2.345637 -0.33692,-0.853355 -0.93633,-1.66492 -1.71167,-2.155433 -1.57678,-0.997541 -3.58686,-1.318842 -5.45199,-1.267923 -1.20998,0.03304 -2.51941,0.286716 -3.48674,1.014329 -0.9792,0.736544 -1.51518,1.966757 -1.96527,3.106379 -0.16595,0.420163 0.10522,1.056864 -0.25357,1.331308 -0.65658,0.502144 -1.67741,-0.416359 -2.47244,-0.190191 -0.65452,0.186194 -1.23239,0.665891 -1.64827,1.204514 -0.45804,0.593249 -0.66394,1.359862 -0.82414,2.092043 -0.0815,0.372156 0.24615,0.9191 -0.0634,1.141117 -0.6416,0.460143 -1.49323,-0.663024 -2.28224,-0.633943 -0.87503,0.03227 -1.75421,0.38661 -2.47241,0.887523 -0.83663,0.583537 -1.46769,1.455189 -1.96527,2.345637 -0.22818,0.408339 -0.41757,0.864261 -0.44377,1.331301 -0.0569,1.013823 1.30583,2.218208 0.63397,2.979579 -0.65953,0.747399 -2.03245,-0.564258 -2.97958,-0.253587 -0.85377,0.280057 -1.45784,1.081152 -2.02867,1.775078 -0.58946,0.716573 -1.02871,1.556372 -1.39466,2.409028 -0.29538,0.68821 0.0577,1.868165 -0.63397,2.155446 -0.77718,0.322828 -1.42931,-0.913185 -2.21884,-1.204514 -0.95265,-0.351518 -2.121,-0.09182 -2.9796,-0.633955 -0.6754,-0.426482 -0.8144,-1.42884 -1.4581,-1.901865 -0.7434,-0.546289 -1.689,-0.800313 -2.5992,-0.950933 -0.9175,-0.151839 -1.8686,-0.06727 -2.7894,0.06345 -1.0606,0.150582 -2.0532,1.020296 -3.1063,0.824139 -1.3807,-2.136498 -11.5193,-2.714582 -18.7017,6.839197 z"
       id="path17"
       sodipodi:nodetypes="ccssssssssssssssssssssssssssssssssssssssssssssssssssssssssssscc" />
    <path
       style="fill:url(#linearGradient32);fill-opacity:1;stroke:none;stroke-width:0.529166;filter:url(#filter45)"
       d="m -1051.4717,66.804752 163.05285,-0.173398 c 0,0 -6.99109,-1.197129 -10.52363,-1.26791 -1.05975,-0.02123 -2.1203,0.402488 -3.16975,0.253581 -1.65538,-0.234887 -3.02264,-1.669661 -4.69128,-1.775072 -1.08444,-0.06847 -2.37842,1.505356 -3.16977,0.760742 -0.26569,-0.249988 0.2141,-0.713711 0.19019,-1.07772 -0.0828,-1.26043 -0.25504,-2.713296 -1.1411,-3.613534 -0.89064,-0.90489 -2.35693,-1.38605 -3.61354,-1.204514 -0.84129,0.121539 -1.5455,0.807094 -2.09204,1.458101 -0.83891,0.99924 -0.34774,3.446176 -1.64831,3.550131 -0.94062,0.07523 -0.83965,-1.766771 -1.58487,-2.345618 -0.93961,-0.729846 -2.17304,-1.121999 -3.35994,-1.204513 -1.03361,-0.07192 -2.18701,0.05017 -3.04298,0.633949 -0.54233,0.369878 -0.4213,1.648284 -1.07774,1.648284 -0.65645,0 -0.63126,-1.167028 -1.07771,-1.648284 -0.54328,-0.585641 -1.13609,-1.230702 -1.90186,-1.458095 -0.79238,-0.235297 -1.74171,-0.196195 -2.47241,0.190191 -0.71771,0.379508 -0.71052,1.93953 -1.52151,1.901859 -0.96016,-0.04459 -0.74601,-1.939729 -1.58487,-2.409027 -0.59044,-0.330322 -1.38276,0.137885 -2.02868,-0.06345 -0.74427,-0.231954 -1.22163,-1.033806 -1.96524,-1.26791 -0.54459,-0.171451 -1.15622,-0.19556 -1.71167,-0.06345 -0.68089,0.161995 -1.22661,1.354184 -1.83847,1.01433 -0.70296,-0.390453 0.25405,-1.70084 -0.12684,-2.409028 -0.28627,-0.532297 -0.88407,-0.888613 -1.45811,-1.077726 -0.46161,-0.152077 -1.04564,0.257141 -1.45807,0 -1.01849,-0.635014 -0.71853,-2.402496 -1.5849,-3.233154 -0.683,-0.65485 -1.67875,-0.921851 -2.59922,-1.141116 -0.76169,-0.181447 -1.58796,-0.324567 -2.3456,-0.126845 -0.72609,0.189478 -1.15325,1.152792 -1.90187,1.204513 -0.50945,0.03516 -1.11824,-0.204599 -1.39471,-0.633955 -0.60635,-0.941656 0.42861,-2.325229 0,-3.35996 -0.26302,-0.635033 -0.90411,-1.051173 -1.45807,-1.458088 -0.84556,-0.621092 -1.83621,-1.019686 -2.7894,-1.458094 -1.13725,-0.523059 -2.74361,-0.387367 -3.48676,-1.394698 -0.46568,-0.631248 0.0979,-1.616002 -0.19019,-2.345637 -0.33692,-0.853355 -0.93633,-1.66492 -1.71167,-2.155433 -1.57678,-0.997541 -3.58686,-1.318842 -5.45199,-1.267923 -1.20998,0.03304 -2.51941,0.286716 -3.48674,1.014329 -0.9792,0.736544 -1.51518,1.966757 -1.96527,3.106379 -0.16595,0.420163 0.10522,1.056864 -0.25357,1.331308 -0.65658,0.502144 -1.67741,-0.416359 -2.47244,-0.190191 -0.65452,0.186194 -1.23239,0.665891 -1.64827,1.204514 -0.45804,0.593249 -0.66394,1.359862 -0.82414,2.092043 -0.0815,0.372156 0.24615,0.9191 -0.0634,1.141117 -0.6416,0.460143 -1.49323,-0.663024 -2.28224,-0.633943 -0.87503,0.03227 -1.75421,0.38661 -2.47241,0.887523 -0.83663,0.583537 -1.46769,1.455189 -1.96527,2.345637 -0.22818,0.408339 -0.41757,0.864261 -0.44377,1.331301 -0.0569,1.013823 1.30583,2.218208 0.63397,2.979579 -0.65953,0.747399 -2.03245,-0.564258 -2.97958,-0.253587 -0.85377,0.280057 -1.45784,1.081152 -2.02867,1.775078 -0.58946,0.716573 -1.02871,1.556372 -1.39466,2.409028 -0.29538,0.68821 0.0577,1.868165 -0.63397,2.155446 -0.77718,0.322828 -1.42931,-0.913185 -2.21884,-1.204514 -0.95265,-0.351518 -2.121,-0.09182 -2.9796,-0.633955 -0.6754,-0.426482 -0.8144,-1.42884 -1.4581,-1.901865 -0.7434,-0.546289 -1.689,-0.800313 -2.5992,-0.950933 -0.9175,-0.151839 -1.8686,-0.06727 -2.7894,0.06345 -1.0606,0.150582 -2.0532,1.020296 -3.1063,0.824139 -1.3807,-2.136498 -11.5193,-2.714582 -18.7017,6.839197 z"
       id="path19"
       sodipodi:nodetypes="ccssssssssssssssssssssssssssssssssssssssssssssssssssssssssssscc" />
  </g>
</svg>
