<?xml version="1.0" encoding="UTF-8" standalone="no"?>
<!-- Created with Inkscape (http://www.inkscape.org/) -->

<svg
   width="1919.9998"
   height="1080"
   viewBox="0 0 507.99992 285.74999"
   version="1.1"
   id="svg1"
   sodipodi:docname="idea 6.svg"
   inkscape:version="1.3.2 (091e20e, 2023-11-25, custom)"
   inkscape:export-filename="idea 6.png"
   inkscape:export-xdpi="96"
   inkscape:export-ydpi="96"
   xmlns:inkscape="http://www.inkscape.org/namespaces/inkscape"
   xmlns:sodipodi="http://sodipodi.sourceforge.net/DTD/sodipodi-0.dtd"
   xmlns:xlink="http://www.w3.org/1999/xlink"
   xmlns="http://www.w3.org/2000/svg"
   xmlns:svg="http://www.w3.org/2000/svg">
  <sodipodi:namedview
     id="namedview1"
     pagecolor="#ffffff"
     bordercolor="#cccccc"
     borderopacity="1"
     inkscape:showpageshadow="0"
     inkscape:pageopacity="1"
     inkscape:pagecheckerboard="0"
     inkscape:deskcolor="#d1d1d1"
     inkscape:document-units="px"
     inkscape:zoom="0.4894542"
     inkscape:cx="964.33947"
     inkscape:cy="515.88076"
     inkscape:window-width="1920"
     inkscape:window-height="991"
     inkscape:window-x="-9"
     inkscape:window-y="-9"
     inkscape:window-maximized="1"
     inkscape:current-layer="layer1" />
  <defs
     id="defs1">
    <linearGradient
       id="linearGradient26"
       inkscape:collect="always">
      <stop
         style="stop-color:#a2af5d;stop-opacity:0;"
         offset="0"
         id="stop27" />
      <stop
         style="stop-color:#fcef8d;stop-opacity:1;"
         offset="1"
         id="stop26" />
    </linearGradient>
    <filter
       style="color-interpolation-filters:sRGB"
       inkscape:label="Noise Fill"
       id="filter45"
       x="0"
       y="0"
       width="1"
       height="1">
      <feTurbulence
         type="fractalNoise"
         baseFrequency="21.5873 40"
         numOctaves="5"
         seed="1"
         result="turbulence"
         id="feTurbulence44" />
      <feComposite
         in="SourceGraphic"
         in2="turbulence"
         operator="in"
         result="composite1"
         id="feComposite44" />
      <feColorMatrix
         values="1 0 0 0 0 0 1 0 0 0 0 0 1 0 0 0 0 0 3.73065 -1 "
         result="color"
         id="feColorMatrix44" />
      <feFlood
         flood-opacity="0"
         flood-color="rgb(21,40,57)"
         result="flood"
         id="feFlood44" />
      <feMerge
         result="merge"
         id="feMerge45">
        <feMergeNode
           in="flood"
           id="feMergeNode44" />
        <feMergeNode
           in="color"
           id="feMergeNode45" />
      </feMerge>
      <feComposite
         in2="SourceGraphic"
         operator="in"
         result="composite2"
         id="feComposite45" />
    </filter>
    <linearGradient
       inkscape:collect="always"
       xlink:href="#linearGradient26"
       id="linearGradient31"
       gradientUnits="userSpaceOnUse"
       gradientTransform="translate(-1271.2802,16.40417)"
       x1="-243.14226"
       y1="27.01902"
       x2="81.54052"
       y2="21.072771" />
  </defs>
  <g
     inkscape:label="Layer 1"
     inkscape:groupmode="layer"
     id="layer1"
     transform="translate(1368.7185)">
    <rect
       style="fill:none;fill-opacity:1;stroke:none;stroke-width:0.529167"
       id="rect36"
       width="507.99997"
       height="285.75"
       x="-1368.7185"
       y="0" />
    <path
       style="fill:#a2af5d;fill-opacity:1;stroke:none;stroke-width:0.529166"
       d="m -1352.7926,51.98875 163.0529,-0.173398 c 0,0 -6.9911,-1.197129 -10.5236,-1.26791 -1.0598,-0.02123 -2.1203,0.402488 -3.1698,0.253581 -1.6553,-0.234887 -3.0226,-1.669661 -4.6912,-1.775072 -1.0845,-0.06847 -2.3785,1.505356 -3.1698,0.760742 -0.2657,-0.249988 0.2141,-0.713711 0.1902,-1.07772 -0.083,-1.26043 -0.2551,-2.713296 -1.1411,-3.613534 -0.8907,-0.90489 -2.3569,-1.38605 -3.6136,-1.204514 -0.8412,0.121539 -1.5455,0.807094 -2.092,1.458101 -0.8389,0.99924 -0.3477,3.446176 -1.6483,3.550131 -0.9406,0.07523 -0.8397,-1.766771 -1.5849,-2.345618 -0.9396,-0.729846 -2.173,-1.121999 -3.3599,-1.204513 -1.0336,-0.07192 -2.187,0.05017 -3.043,0.633949 -0.5423,0.369878 -0.4213,1.648284 -1.0777,1.648284 -0.6565,0 -0.6313,-1.167028 -1.0777,-1.648284 -0.5433,-0.585641 -1.1361,-1.230702 -1.9019,-1.458095 -0.7924,-0.235297 -1.7417,-0.196195 -2.4724,0.190191 -0.7177,0.379508 -0.7105,1.93953 -1.5215,1.901859 -0.9602,-0.04459 -0.746,-1.939729 -1.5849,-2.409027 -0.5904,-0.330322 -1.3828,0.137885 -2.0287,-0.06345 -0.7442,-0.231954 -1.2216,-1.033806 -1.9652,-1.26791 -0.5446,-0.171451 -1.1562,-0.19556 -1.7117,-0.06345 -0.6809,0.161995 -1.2266,1.354184 -1.8385,1.01433 -0.7029,-0.390453 0.2541,-1.70084 -0.1268,-2.409028 -0.2863,-0.532297 -0.8841,-0.888613 -1.4581,-1.077726 -0.4616,-0.152077 -1.0456,0.257141 -1.4581,0 -1.0185,-0.635014 -0.7185,-2.402496 -1.5849,-3.233154 -0.683,-0.65485 -1.6787,-0.921851 -2.5992,-1.141116 -0.7617,-0.181447 -1.588,-0.324567 -2.3456,-0.126845 -0.7261,0.189478 -1.1532,1.152792 -1.9019,1.204513 -0.5094,0.03516 -1.1182,-0.204599 -1.3947,-0.633955 -0.6063,-0.941656 0.4286,-2.325229 0,-3.35996 -0.263,-0.635033 -0.9041,-1.051173 -1.458,-1.458088 -0.8456,-0.621092 -1.8363,-1.019686 -2.7894,-1.458094 -1.1373,-0.523059 -2.7437,-0.387367 -3.4868,-1.394698 -0.4657,-0.631248 0.098,-1.616002 -0.1902,-2.345637 -0.3369,-0.853356 -0.9363,-1.664922 -1.7117,-2.155435 -1.5767,-0.997541 -3.5868,-1.318843 -5.452,-1.267924 -1.2099,0.03304 -2.5194,0.286717 -3.4867,1.01433 -0.9792,0.736544 -1.5152,1.966759 -1.9653,3.106381 -0.1659,0.420163 0.1053,1.056864 -0.2535,1.331308 -0.6566,0.502144 -1.6774,-0.416359 -2.4725,-0.190191 -0.6545,0.186194 -1.2324,0.665891 -1.6482,1.204514 -0.4581,0.593249 -0.664,1.359862 -0.8242,2.092043 -0.082,0.372156 0.2462,0.9191 -0.063,1.141117 -0.6416,0.460143 -1.4932,-0.663024 -2.2822,-0.633943 -0.8751,0.03227 -1.7542,0.38661 -2.4724,0.887523 -0.8367,0.583537 -1.4677,1.455189 -1.9653,2.345637 -0.2282,0.408339 -0.4176,0.864261 -0.4438,1.331301 -0.057,1.013823 1.3059,2.218208 0.634,2.979579 -0.6595,0.747399 -2.0325,-0.564258 -2.9796,-0.253587 -0.8538,0.280057 -1.4578,1.081152 -2.0287,1.775078 -0.5894,0.716573 -1.0287,1.556372 -1.3946,2.409028 -0.2954,0.68821 0.058,1.868165 -0.634,2.155446 -0.7772,0.322828 -1.4293,-0.913185 -2.2188,-1.204514 -0.9527,-0.351518 -2.121,-0.09182 -2.9796,-0.633955 -0.6755,-0.426482 -0.8144,-1.42884 -1.4581,-1.901865 -0.7434,-0.546289 -1.689,-0.800313 -2.5992,-0.950933 -0.9176,-0.151839 -1.8686,-0.06727 -2.7894,0.06345 -1.0606,0.150582 -2.0532,1.020296 -3.1064,0.824139 -1.3806,-2.136498 -11.5192,-2.714582 -18.7016,6.839197 z"
       id="path18"
       sodipodi:nodetypes="ccssssssssssssssssssssssssssssssssssssssssssssssssssssssssssscc" />
    <path
       style="fill:url(#linearGradient31);fill-opacity:1;stroke:none;stroke-width:0.529166;filter:url(#filter45)"
       d="m -1352.7926,51.98875 163.0529,-0.173398 c 0,0 -6.9911,-1.197129 -10.5236,-1.26791 -1.0598,-0.02123 -2.1203,0.402488 -3.1698,0.253581 -1.6553,-0.234887 -3.0226,-1.669661 -4.6912,-1.775072 -1.0845,-0.06847 -2.3785,1.505356 -3.1698,0.760742 -0.2657,-0.249988 0.2141,-0.713711 0.1902,-1.07772 -0.083,-1.26043 -0.2551,-2.713296 -1.1411,-3.613534 -0.8907,-0.90489 -2.3569,-1.38605 -3.6136,-1.204514 -0.8412,0.121539 -1.5455,0.807094 -2.092,1.458101 -0.8389,0.99924 -0.3477,3.446176 -1.6483,3.550131 -0.9406,0.07523 -0.8397,-1.766771 -1.5849,-2.345618 -0.9396,-0.729846 -2.173,-1.121999 -3.3599,-1.204513 -1.0336,-0.07192 -2.187,0.05017 -3.043,0.633949 -0.5423,0.369878 -0.4213,1.648284 -1.0777,1.648284 -0.6565,0 -0.6313,-1.167028 -1.0777,-1.648284 -0.5433,-0.585641 -1.1361,-1.230702 -1.9019,-1.458095 -0.7924,-0.235297 -1.7417,-0.196195 -2.4724,0.190191 -0.7177,0.379508 -0.7105,1.93953 -1.5215,1.901859 -0.9602,-0.04459 -0.746,-1.939729 -1.5849,-2.409027 -0.5904,-0.330322 -1.3828,0.137885 -2.0287,-0.06345 -0.7442,-0.231954 -1.2216,-1.033806 -1.9652,-1.26791 -0.5446,-0.171451 -1.1562,-0.19556 -1.7117,-0.06345 -0.6809,0.161995 -1.2266,1.354184 -1.8385,1.01433 -0.7029,-0.390453 0.2541,-1.70084 -0.1268,-2.409028 -0.2863,-0.532297 -0.8841,-0.888613 -1.4581,-1.077726 -0.4616,-0.152077 -1.0456,0.257141 -1.4581,0 -1.0185,-0.635014 -0.7185,-2.402496 -1.5849,-3.233154 -0.683,-0.65485 -1.6787,-0.921851 -2.5992,-1.141116 -0.7617,-0.181447 -1.588,-0.324567 -2.3456,-0.126845 -0.7261,0.189478 -1.1532,1.152792 -1.9019,1.204513 -0.5094,0.03516 -1.1182,-0.204599 -1.3947,-0.633955 -0.6063,-0.941656 0.4286,-2.325229 0,-3.35996 -0.263,-0.635033 -0.9041,-1.051173 -1.458,-1.458088 -0.8456,-0.621092 -1.8363,-1.019686 -2.7894,-1.458094 -1.1373,-0.523059 -2.7437,-0.387367 -3.4868,-1.394698 -0.4657,-0.631248 0.098,-1.616002 -0.1902,-2.345637 -0.3369,-0.853356 -0.9363,-1.664922 -1.7117,-2.155435 -1.5767,-0.997541 -3.5868,-1.318843 -5.452,-1.267924 -1.2099,0.03304 -2.5194,0.286717 -3.4867,1.01433 -0.9792,0.736544 -1.5152,1.966759 -1.9653,3.106381 -0.1659,0.420163 0.1053,1.056864 -0.2535,1.331308 -0.6566,0.502144 -1.6774,-0.416359 -2.4725,-0.190191 -0.6545,0.186194 -1.2324,0.665891 -1.6482,1.204514 -0.4581,0.593249 -0.664,1.359862 -0.8242,2.092043 -0.082,0.372156 0.2462,0.9191 -0.063,1.141117 -0.6416,0.460143 -1.4932,-0.663024 -2.2822,-0.633943 -0.8751,0.03227 -1.7542,0.38661 -2.4724,0.887523 -0.8367,0.583537 -1.4677,1.455189 -1.9653,2.345637 -0.2282,0.408339 -0.4176,0.864261 -0.4438,1.331301 -0.057,1.013823 1.3059,2.218208 0.634,2.979579 -0.6595,0.747399 -2.0325,-0.564258 -2.9796,-0.253587 -0.8538,0.280057 -1.4578,1.081152 -2.0287,1.775078 -0.5894,0.716573 -1.0287,1.556372 -1.3946,2.409028 -0.2954,0.68821 0.058,1.868165 -0.634,2.155446 -0.7772,0.322828 -1.4293,-0.913185 -2.2188,-1.204514 -0.9527,-0.351518 -2.121,-0.09182 -2.9796,-0.633955 -0.6755,-0.426482 -0.8144,-1.42884 -1.4581,-1.901865 -0.7434,-0.546289 -1.689,-0.800313 -2.5992,-0.950933 -0.9176,-0.151839 -1.8686,-0.06727 -2.7894,0.06345 -1.0606,0.150582 -2.0532,1.020296 -3.1064,0.824139 -1.3806,-2.136498 -11.5192,-2.714582 -18.7016,6.839197 z"
       id="path20"
       sodipodi:nodetypes="ccssssssssssssssssssssssssssssssssssssssssssssssssssssssssssscc" />
  </g>
</svg>
