<?xml version="1.0" encoding="UTF-8" standalone="no"?>
<!-- Created with Inkscape (http://www.inkscape.org/) -->

<svg
   width="1920"
   height="1080"
   viewBox="0 0 507.99998 285.74999"
   version="1.1"
   id="svg1"
   sodipodi:docname="idea 6.svg"
   inkscape:version="1.3.2 (091e20e, 2023-11-25, custom)"
   inkscape:export-filename="idea 6.png"
   inkscape:export-xdpi="96"
   inkscape:export-ydpi="96"
   xmlns:inkscape="http://www.inkscape.org/namespaces/inkscape"
   xmlns:sodipodi="http://sodipodi.sourceforge.net/DTD/sodipodi-0.dtd"
   xmlns:xlink="http://www.w3.org/1999/xlink"
   xmlns="http://www.w3.org/2000/svg"
   xmlns:svg="http://www.w3.org/2000/svg">
  <sodipodi:namedview
     id="namedview1"
     pagecolor="#ffffff"
     bordercolor="#cccccc"
     borderopacity="1"
     inkscape:showpageshadow="0"
     inkscape:pageopacity="1"
     inkscape:pagecheckerboard="0"
     inkscape:deskcolor="#d1d1d1"
     inkscape:document-units="px"
     inkscape:zoom="0.4894542"
     inkscape:cx="964.33947"
     inkscape:cy="515.88076"
     inkscape:window-width="1920"
     inkscape:window-height="991"
     inkscape:window-x="-9"
     inkscape:window-y="-9"
     inkscape:window-maximized="1"
     inkscape:current-layer="layer1" />
  <defs
     id="defs1">
    <linearGradient
       id="linearGradient22"
       inkscape:collect="always">
      <stop
         style="stop-color:#a2af5d;stop-opacity:1;"
         offset="0"
         id="stop22" />
      <stop
         style="stop-color:#688540;stop-opacity:0;"
         offset="1"
         id="stop23" />
    </linearGradient>
    <filter
       style="color-interpolation-filters:sRGB"
       inkscape:label="Noise Fill"
       id="filter45"
       x="0"
       y="0"
       width="1"
       height="1">
      <feTurbulence
         type="fractalNoise"
         baseFrequency="21.5873 40"
         numOctaves="5"
         seed="1"
         result="turbulence"
         id="feTurbulence44" />
      <feComposite
         in="SourceGraphic"
         in2="turbulence"
         operator="in"
         result="composite1"
         id="feComposite44" />
      <feColorMatrix
         values="1 0 0 0 0 0 1 0 0 0 0 0 1 0 0 0 0 0 3.73065 -1 "
         result="color"
         id="feColorMatrix44" />
      <feFlood
         flood-opacity="0"
         flood-color="rgb(21,40,57)"
         result="flood"
         id="feFlood44" />
      <feMerge
         result="merge"
         id="feMerge45">
        <feMergeNode
           in="flood"
           id="feMergeNode44" />
        <feMergeNode
           in="color"
           id="feMergeNode45" />
      </feMerge>
      <feComposite
         in2="SourceGraphic"
         operator="in"
         result="composite2"
         id="feComposite45" />
    </filter>
    <linearGradient
       inkscape:collect="always"
       xlink:href="#linearGradient22"
       id="linearGradient33"
       gradientUnits="userSpaceOnUse"
       x1="246.5791"
       y1="285.75"
       x2="248.64864"
       y2="81.799225"
       gradientTransform="translate(-1378.1882)" />
  </defs>
  <g
     inkscape:label="Layer 1"
     inkscape:groupmode="layer"
     id="layer1"
     transform="translate(1368.7185)">
    <rect
       style="fill:none;fill-opacity:1;stroke:none;stroke-width:0.529167"
       id="rect36"
       width="507.99997"
       height="285.75"
       x="-1368.7185"
       y="0" />
    <path
       id="path10"
       style="fill:#688540;fill-opacity:1;stroke-width:0.529166"
       d="m -909.4566,134.01145 c -7.24145,-0.0102 -3.49336,15.1697 -9.13432,19.71043 -3.45268,2.77925 -9.83727,-0.2408 -12.98009,2.88458 -6.64315,6.60628 0.0117,20.43388 -6.24975,27.40297 -3.62405,4.0336 -12.12995,0.9505 -15.38407,5.28805 -4.04363,5.38994 3.03465,14.76608 -0.96118,20.19153 -4.44926,6.0411 -13.90031,9.61189 -21.15323,7.69204 -4.06633,-1.07636 -6.0584,-5.97849 -8.17263,-9.61492 -2.8283,-4.86459 -1.31125,-12.43091 -5.76916,-15.86466 -2.80451,-2.16021 -8.00058,1.46636 -10.57661,-0.9617 -6.25056,-5.8914 2.15182,-19.33089 -3.84576,-25.47958 -1.9317,-1.98026 -6.3946,0.67698 -8.1726,-1.44229 -2.5749,-3.06915 2.7484,-9.10407 0,-12.0189 -1.8721,-1.98552 -6.1253,1.32315 -8.1732,-0.48059 -3.9152,-3.44849 2.319,-15.0042 -2.8846,-15.38408 -5.408,-0.39481 -4.463,10.02468 -5.288,15.38408 -0.9511,6.17903 3.9027,13.51689 0.4811,18.74924 -2.5571,3.9102 -10.3737,1.41095 -12.9806,5.28805 -1.6095,2.3937 1.3347,6.09661 0,8.65373 -2.9827,5.7144 -9.4236,10.80615 -15.8647,11.05721 -8.541,0.33291 -16.2767,-6.73668 -22.1144,-12.98009 -4.4052,-4.71127 -3.1671,-13.91653 -8.6537,-17.30747 -3.2716,-2.02195 -8.0524,1.62579 -11.5378,0 -5.876,-2.74079 -6.0281,-15.3034 -12.4995,-14.90296 -6.4772,0.4008 -9.1721,10.00943 -10.5766,16.34525 -1.2605,5.68635 5.004,12.0959 2.4035,17.30747 -2.21,4.42886 -9.5342,3.65783 -12.9801,7.21093 -3.892,4.01309 -2.8584,12.09501 -7.6921,14.90348 -3.3283,1.93381 -8.4466,1.81276 -11.5378,-0.4811 -5.8607,-4.34895 -1.7581,-15.82214 -7.2114,-20.67213 -4.4159,-3.9274 -13.3426,0.53704 -17.307,-3.84576 -4.5468,-5.02674 1.6558,-14.76381 -2.4039,-20.19153 -2.1929,-2.93188 -6.5091,-3.59071 -10.0956,-4.32687 -2.1977,-0.45108 -4.8283,1.18983 -6.7303,0 -5.59,-3.49692 -2.1459,-18.84855 -8.6537,-17.78806 -7.3372,1.19565 2.386,16.87242 -2.8846,22.11493 -3.6641,3.64448 -11.9254,-1.91699 -15.3841,1.92288 -5.3635,5.95467 4.4381,17.71021 -0.4806,24.03729 -2.9588,3.80602 -11.0211,0.0109 -13.9418,3.84628 -3.495,4.58977 3.4274,12.66643 0,17.30695 -3.8848,5.25984 -14.2508,1.0234 -18.7492,5.76916 -3.1817,3.35678 0.7835,11.41631 -3.3652,13.46068 -3.6051,1.77649 -8.2816,-1.90075 -11.0572,-4.80746 -7.4609,-7.81346 -3.4246,-23.15378 -11.5383,-30.28704 -6.1885,-5.44066 -18.3502,0.19365 -24.0373,-5.76916 -4.7288,-4.95802 0.1948,-14.65869 -3.8463,-20.19153 -3.7642,-5.15359 -12.6874,-4.27655 -16.8263,-9.13432 -4.0758,-4.7837 0.01,-17.17318 -6.2498,-17.78755 -8.1508,-0.80064 -5.8779,16.3329 -12.4995,21.15271 -5.312,3.86659 -14.7461,-0.47573 -19.2298,4.32687 -4.3151,4.62208 0.9503,13.72161 -2.8846,18.74924 -0.4466,0.58548 -1.0237,1.01069 -1.5875,1.45211 v 101.22121 h 508.00001 v -93.52659 c -5.50318,-0.93793 -12.17532,0.91811 -16.04708,-2.89698 -7.58966,-7.47855 1.5593,-24.55445 -6.73034,-31.24874 -3.86489,-3.12108 -10.72015,2.68004 -14.90297,0 -7.42603,-4.75805 -2.23815,-24.02488 -11.05772,-24.03729 z" />
    <path
       id="path11"
       style="fill:url(#linearGradient33);fill-opacity:1;stroke-width:0.529166;filter:url(#filter45)"
       d="m -909.4566,134.01145 c -7.24145,-0.0102 -3.49336,15.1697 -9.13432,19.71043 -3.45268,2.77925 -9.83727,-0.2408 -12.98009,2.88458 -6.64315,6.60628 0.0117,20.43388 -6.24975,27.40297 -3.62405,4.0336 -12.12995,0.9505 -15.38407,5.28805 -4.04363,5.38994 3.03465,14.76608 -0.96118,20.19153 -4.44926,6.0411 -13.90031,9.61189 -21.15323,7.69204 -4.06633,-1.07636 -6.0584,-5.97849 -8.17263,-9.61492 -2.8283,-4.86459 -1.31125,-12.43091 -5.76916,-15.86466 -2.80451,-2.16021 -8.00058,1.46636 -10.57661,-0.9617 -6.25056,-5.8914 2.15182,-19.33089 -3.84576,-25.47958 -1.9317,-1.98026 -6.3946,0.67698 -8.1726,-1.44229 -2.5749,-3.06915 2.7484,-9.10407 0,-12.0189 -1.8721,-1.98552 -6.1253,1.32315 -8.1732,-0.48059 -3.9152,-3.44849 2.319,-15.0042 -2.8846,-15.38408 -5.408,-0.39481 -4.463,10.02468 -5.288,15.38408 -0.9511,6.17903 3.9027,13.51689 0.4811,18.74924 -2.5571,3.9102 -10.3737,1.41095 -12.9806,5.28805 -1.6095,2.3937 1.3347,6.09661 0,8.65373 -2.9827,5.7144 -9.4236,10.80615 -15.8647,11.05721 -8.541,0.33291 -16.2767,-6.73668 -22.1144,-12.98009 -4.4052,-4.71127 -3.1671,-13.91653 -8.6537,-17.30747 -3.2716,-2.02195 -8.0524,1.62579 -11.5378,0 -5.876,-2.74079 -6.0281,-15.3034 -12.4995,-14.90296 -6.4772,0.4008 -9.1721,10.00943 -10.5766,16.34525 -1.2605,5.68635 5.004,12.0959 2.4035,17.30747 -2.21,4.42886 -9.5342,3.65783 -12.9801,7.21093 -3.892,4.01309 -2.8584,12.09501 -7.6921,14.90348 -3.3283,1.93381 -8.4466,1.81276 -11.5378,-0.4811 -5.8607,-4.34895 -1.7581,-15.82214 -7.2114,-20.67213 -4.4159,-3.9274 -13.3426,0.53704 -17.307,-3.84576 -4.5468,-5.02674 1.6558,-14.76381 -2.4039,-20.19153 -2.1929,-2.93188 -6.5091,-3.59071 -10.0956,-4.32687 -2.1977,-0.45108 -4.8283,1.18983 -6.7303,0 -5.59,-3.49692 -2.1459,-18.84855 -8.6537,-17.78806 -7.3372,1.19565 2.386,16.87242 -2.8846,22.11493 -3.6641,3.64448 -11.9254,-1.91699 -15.3841,1.92288 -5.3635,5.95467 4.4381,17.71021 -0.4806,24.03729 -2.9588,3.80602 -11.0211,0.0109 -13.9418,3.84628 -3.495,4.58977 3.4274,12.66643 0,17.30695 -3.8848,5.25984 -14.2508,1.0234 -18.7492,5.76916 -3.1817,3.35678 0.7835,11.41631 -3.3652,13.46068 -3.6051,1.77649 -8.2816,-1.90075 -11.0572,-4.80746 -7.4609,-7.81346 -3.4246,-23.15378 -11.5383,-30.28704 -6.1885,-5.44066 -18.3502,0.19365 -24.0373,-5.76916 -4.7288,-4.95802 0.1948,-14.65869 -3.8463,-20.19153 -3.7642,-5.15359 -12.6874,-4.27655 -16.8263,-9.13432 -4.0758,-4.7837 0.01,-17.17318 -6.2498,-17.78755 -8.1508,-0.80064 -5.8779,16.3329 -12.4995,21.15271 -5.312,3.86659 -14.7461,-0.47573 -19.2298,4.32687 -4.3151,4.62208 0.9503,13.72161 -2.8846,18.74924 -0.4466,0.58548 -1.0237,1.01069 -1.5875,1.45211 v 101.22121 h 508.00001 v -93.52659 c -5.50318,-0.93793 -12.17532,0.91811 -16.04708,-2.89698 -7.58966,-7.47855 1.5593,-24.55445 -6.73034,-31.24874 -3.86489,-3.12108 -10.72015,2.68004 -14.90297,0 -7.42603,-4.75805 -2.23815,-24.02488 -11.05772,-24.03729 z" />
  </g>
</svg>
