<?xml version="1.0" encoding="UTF-8" standalone="no"?>
<!-- Created with Inkscape (http://www.inkscape.org/) -->

<svg
   width="1920"
   height="1080"
   viewBox="0 0 507.99998 285.74999"
   version="1.1"
   id="svg1"
   sodipodi:docname="idea 6.svg"
   inkscape:version="1.3.2 (091e20e, 2023-11-25, custom)"
   inkscape:export-filename="idea 6.png"
   inkscape:export-xdpi="96"
   inkscape:export-ydpi="96"
   xmlns:inkscape="http://www.inkscape.org/namespaces/inkscape"
   xmlns:sodipodi="http://sodipodi.sourceforge.net/DTD/sodipodi-0.dtd"
   xmlns:xlink="http://www.w3.org/1999/xlink"
   xmlns="http://www.w3.org/2000/svg"
   xmlns:svg="http://www.w3.org/2000/svg">
  <sodipodi:namedview
     id="namedview1"
     pagecolor="#ffffff"
     bordercolor="#cccccc"
     borderopacity="1"
     inkscape:showpageshadow="0"
     inkscape:pageopacity="1"
     inkscape:pagecheckerboard="0"
     inkscape:deskcolor="#d1d1d1"
     inkscape:document-units="px"
     inkscape:zoom="0.4894542"
     inkscape:cx="964.33947"
     inkscape:cy="515.88076"
     inkscape:window-width="1920"
     inkscape:window-height="991"
     inkscape:window-x="-9"
     inkscape:window-y="-9"
     inkscape:window-maximized="1"
     inkscape:current-layer="layer1" />
  <defs
     id="defs1">
    <linearGradient
       id="linearGradient24"
       inkscape:collect="always">
      <stop
         style="stop-color:#fcef8d;stop-opacity:1;"
         offset="0"
         id="stop24" />
      <stop
         style="stop-color:#a2af5d;stop-opacity:0;"
         offset="1"
         id="stop25" />
    </linearGradient>
    <filter
       style="color-interpolation-filters:sRGB"
       inkscape:label="Noise Fill"
       id="filter45"
       x="0"
       y="0"
       width="1"
       height="1">
      <feTurbulence
         type="fractalNoise"
         baseFrequency="21.5873 40"
         numOctaves="5"
         seed="1"
         result="turbulence"
         id="feTurbulence44" />
      <feComposite
         in="SourceGraphic"
         in2="turbulence"
         operator="in"
         result="composite1"
         id="feComposite44" />
      <feColorMatrix
         values="1 0 0 0 0 0 1 0 0 0 0 0 1 0 0 0 0 0 3.73065 -1 "
         result="color"
         id="feColorMatrix44" />
      <feFlood
         flood-opacity="0"
         flood-color="rgb(21,40,57)"
         result="flood"
         id="feFlood44" />
      <feMerge
         result="merge"
         id="feMerge45">
        <feMergeNode
           in="flood"
           id="feMergeNode44" />
        <feMergeNode
           in="color"
           id="feMergeNode45" />
      </feMerge>
      <feComposite
         in2="SourceGraphic"
         operator="in"
         result="composite2"
         id="feComposite45" />
    </filter>
    <linearGradient
       inkscape:collect="always"
       xlink:href="#linearGradient24"
       id="linearGradient36"
       gradientUnits="userSpaceOnUse"
       x1="228.77858"
       y1="252.27596"
       x2="235.83171"
       y2="13.611572"
       gradientTransform="translate(-1370.8807,-2.2042525)" />
  </defs>
  <g
     inkscape:label="Layer 1"
     inkscape:groupmode="layer"
     id="layer1"
     transform="translate(1368.7185)">
    <rect
       style="fill:none;fill-opacity:1;stroke:none;stroke-width:0.529167"
       id="rect36"
       width="507.99997"
       height="285.75"
       x="-1368.7185"
       y="0" />
    <path
       id="path8"
       style="fill:#a2af5d;fill-opacity:1;stroke-width:0.529166"
       d="m -1233.9711,11.407572 v 30.000235 l -0.8501,0.679545 -0.1271,8.012947 -2.5239,1.201994 -0.4811,2.22312 -2.7043,0.360702 -0.3002,0.721403 2.7642,-0.360702 -1.3219,6.430098 -1.8629,0.540536 -0.9617,5.64875 -8.1727,0.300757 v 0.720886 l -3.9062,1.44229 2.3441,1.142049 3.6054,0.360184 -6.0094,12.379606 0.2403,1.742529 -2.464,1.261939 0.1204,0.841292 2.5239,0.240812 -3.4251,5.408455 0.3002,4.867403 -2.4034,1.141533 0.1798,0.841292 h 2.344 l -1.8029,9.495023 0.2402,4.56717 -4.0865,13.70149 -0.1421,0.77411 0.054,-2.89905 -1.1891,-6.35465 2.0573,-0.82269 -2.0573,-0.59479 0.2744,-3.70262 -2.0572,-4.38888 1.7828,-0.63975 -1.9197,-1.00614 0.1369,-1.59991 -4.2969,-9.462984 2.8799,-0.503328 0.7772,-0.45682 -2.7429,-1.599902 -6.1263,-0.228927 -0.3199,-3.748608 -1.5544,-1.280025 -1.1885,-4.434355 1.7828,-0.274402 -2.5141,-0.777213 -0.1829,-1.234033 -1.1431,-1.097608 -2.3771,0.09147 -1.9198,0.914673 -0.3658,1.69137 -2.0573,0.274402 -0.2284,0.548287 2.1027,-0.274402 -1.0056,4.891691 -1.4175,0.411344 -0.7312,4.297412 -6.2172,0.228927 v 0.548287 l -2.9719,1.09709 1.7828,0.868681 2.743,0.274402 -4.5713,9.417511 0.1829,1.3255 -1.8743,0.96015 0.091,0.64027 1.9198,0.18242 -2.6056,4.11447 0.2285,3.70314 -1.8289,0.86868 0.1375,0.63975 h 1.7828 l -1.3715,7.22333 0.183,3.47421 -3.1089,10.42365 -0.3163,1.72393 c -0.1885,-0.29509 -0.308,-0.64362 -0.5622,-0.88729 -1.8382,-1.76217 -5.2864,-1.21544 -6.9711,-3.12487 -3.9911,-4.52332 -1.6872,-12.46729 -5.2881,-17.30695 -2.0694,-2.78134 -6.2229,-3.29746 -8.6537,-5.76916 -2.8052,-2.85236 -4.3381,-6.72295 -6.4901,-10.09551 -1.5305,-2.39859 -2.0744,-5.839568 -4.5671,-7.211441 -1.4742,-0.811288 -3.5198,0.704643 -5.0478,0 -3.9223,-1.808806 -4.2755,-8.616726 -8.4134,-9.855212 -2.4779,-0.741612 -5.277,0.762313 -7.4512,2.163175 -1.8629,1.200308 -3.558,2.969258 -4.3269,5.047754 -0.834,2.254435 1.0703,5.059159 0,7.211444 -1.2241,2.4615 -4.3313,3.30102 -6.7309,4.80126 v 167.82075 h 508.00001 V 158.20946 c -0.0997,0.24203 -0.23073,0.50388 -0.32711,0.72088 -1.78615,4.0215 1.91036,12.11459 -2.40399,12.98009 -2.44042,0.48957 -3.16859,-3.93597 -4.08605,-6.24975 -2.69978,-6.80857 -0.0371,-15.37798 -3.84628,-21.63382 -0.89181,-1.4646 -3.0809,-1.73562 -4.08606,-3.12487 -2.28749,-3.16159 -2.17075,-7.53288 -3.84627,-11.05721 -1.89996,-3.99638 -5.56418,-7.10192 -6.97064,-11.2975 -1.35575,-4.04428 0.78684,-8.96634 -1.20199,-12.73979 -0.87536,-1.66083 -3.00762,-2.27024 -4.32687,-3.60598 -2.32148,-2.350488 -3.009,-8.333575 -6.24975,-7.692037 -2.46181,0.487339 -0.65648,5.204488 -2.16317,7.211447 -1.94812,2.59494 -6.13171,2.76544 -8.17263,5.28805 -2.26506,2.79964 -3.19451,6.55434 -3.84628,10.09602 -0.43505,2.36406 0.91988,4.99067 0,7.21145 -1.60443,3.87345 -6.82834,5.24511 -8.89403,8.89351 -0.81385,1.43742 -0.22857,3.47255 -1.20147,4.80746 -2.05599,2.82102 -6.81785,2.72267 -8.89403,5.52886 -2.41592,3.26538 -1.39885,8.10112 -3.12488,11.77809 -2.1729,4.62897 -5.33768,8.8251 -8.89403,12.4995 -1.47118,1.52001 -2.95844,4.1772 -5.04775,3.84628 -3.75387,-0.59458 -2.6901,-9.44839 -6.49004,-9.37463 -1.04451,0.0203 -0.63875,2.68685 -1.68259,2.64429 -4.97781,-0.20296 -4.75147,-8.76078 -6.97115,-13.2209 -1.26166,-2.53512 -0.77606,-7.57766 -3.60546,-7.69204 -1.93639,-0.0783 -1.07979,4.34175 -2.88458,5.04776 -1.48676,0.58161 -3.25906,-0.52656 -4.56717,-1.44178 -1.07676,-0.75336 -1.123,-3.41878 -2.40398,-3.12539 -3.82942,0.87706 -2.19589,7.61522 -2.40347,11.53832 -0.0851,1.60822 1.02202,3.29072 0.48059,4.80745 -0.57142,1.60078 -1.9922,4.14062 -3.60547,3.60547 -3.68901,-1.22371 2.15481,-10.92082 -1.68258,-11.5378 -1.94581,-0.31285 -0.68864,5.53208 -2.64428,5.28805 -5.20886,-0.64998 -1.48043,-10.48485 -3.36517,-15.38407 -0.46389,-1.20583 -1.39553,-2.18571 -1.92288,-3.36517 -1.13763,-2.54441 -2.09258,-5.20034 -2.64429,-7.93233 -0.41359,-2.04806 0.84073,-4.63119 -0.48059,-6.24975 -1.47555,-1.80748 -5.22482,-0.14066 -6.73082,-1.92288 -2.3415,-2.77102 0.8555,-7.82865 -1.2015,-10.81691 -1.6865,-2.45 -5.6102,-2.22793 -7.9323,-4.08657 -4.4853,-3.58998 -5.3794,-14.095702 -11.0572,-13.220384 -2.9118,0.448879 -1.2843,6.087584 -3.3657,8.172624 -1.7766,1.77971 -5.731,0.69643 -6.9702,2.88458 -1.8762,3.313 4.8563,9.19491 1.6821,11.2975 -1.4091,0.93342 -2.8055,-3.38071 -4.3269,-2.64428 -2.3973,1.16047 -0.6808,5.28421 -0.9616,7.93285 -0.1867,1.76016 0.9042,4.18569 -0.4806,5.28805 -1.3919,1.10799 -3.7327,-1.58461 -5.2881,-0.72089 -2.2261,1.23626 -1.9842,4.69375 -3.1243,6.97064 -1.1081,2.21284 -1.2077,5.8814 -3.6065,6.49004 -3.0379,0.77079 -6.1739,-2.45317 -7.9319,-5.04776 -1.6925,-2.4978 0.6804,-7.01781 -1.6825,-8.89403 -1.5073,-1.19682 -4.1814,-0.84754 -5.7692,0.2403 -2.8121,1.92671 -2.5011,6.3567 -4.0861,9.37462 -1.6232,3.09041 -2.0432,9.0744 -5.5293,8.89403 -3.2924,-0.17035 -1.1178,-8.13611 -4.3264,-8.89403 -2.9477,-0.69632 -4.2765,6.27773 -7.2114,5.52886 -6.7083,-1.71173 -2.6101,-15.21353 -8.413,-18.98954 -2.2834,-1.48581 -6.0545,1.71268 -8.1731,0 -1.7843,-1.44244 0.016,-4.95909 -1.4423,-6.73085 -1.1631,-1.41362 -3.7499,-0.87211 -5.0477,-2.16318 -1.4247,-1.4172 -1.1829,-3.93288 -2.404,-5.52886 -0.9353,-1.22241 -2.7605,-1.59759 -3.6055,-2.88406 -1.5046,-2.29076 -0.1869,-6.03349 -2.1627,-7.932848 -0.7706,-0.740841 -2.0837,-0.480506 -3.1253,-0.720886 -2.0833,-0.480749 -4.5468,-2.734967 -6.2498,-1.442289 -1.4055,1.066888 0.6689,3.775701 -0.2403,5.288053 -1.0549,1.75482 -4.0505,1.49466 -5.2885,3.12539 -2.809,3.69962 -2.9994,8.85522 -3.6055,13.46067 -0.2091,1.5888 1.0056,3.55975 0,4.80746 -1.1834,1.46838 -4.3802,-0.29412 -5.5284,1.202 -1.0256,1.33633 0.8911,3.49401 0.2403,5.04775 -0.7893,1.88419 -3.1953,2.57293 -4.5671,4.08657 -2.7336,3.01619 -5.0517,6.40484 -7.2115,9.85521 -0.8177,1.3064 -1.2474,2.84683 -2.1631,4.08658 -1.1115,1.50501 -2.269,3.16897 -3.8489,4.13721 l -1.8774,-6.9603 -4.069,-13.76091 0.091,-4.89118 -1.1891,-6.35465 2.0577,-0.82269 -2.0577,-0.59479 0.2744,-3.70262 -2.0567,-4.38888 1.7823,-0.63975 -1.9198,-1.00614 0.1375,-1.59991 -4.2975,-9.462984 2.88,-0.503328 0.7772,-0.45682 -2.743,-1.599902 -6.1262,-0.228927 -0.3199,-3.748608 -1.5544,-1.280025 -1.1886,-4.434355 1.7834,-0.274402 -2.5146,-0.777213 -0.183,-1.234033 -1.143,-1.097608 -2.3772,0.09147 -1.9203,0.914673 -0.3653,1.69137 -2.0572,0.274402 -0.2285,0.548287 2.1028,-0.274402 -1.0051,4.891691 -1.418,0.411344 -0.7308,4.297412 -6.2177,0.228927 v 0.548287 l -2.9714,1.09709 1.7824,0.868681 2.743,0.274402 -4.5713,9.417511 0.1829,1.3255 -1.8748,0.96015 0.091,0.64027 1.9203,0.18242 -2.606,4.11447 0.2289,3.70314 -1.8288,0.86868 0.1369,0.63975 h 1.7834 l -1.3715,7.22333 0.1824,3.47421 -1.3487,4.52324 -0.3551,-1.31568 -5.3485,-18.08831 0.1204,-6.43009 -1.5621,-8.352979 2.7037,-1.081588 -2.7037,-0.781348 0.3601,-4.867403 -2.7042,-5.769156 2.3441,-0.841293 -2.525,-1.321883 0.1809,-2.10323 -5.6493,-12.439551 3.7859,-0.660941 1.0221,-0.600997 -3.6054,-2.103231 -8.0528,-0.300757 -0.4211,-4.927347 -2.0428,-1.682585 -1.5622,-5.829101 2.3435,-0.360702 -3.3052,-1.021643 -0.2403,-1.62264 -1.5027,-1.442289 -0.025,5.17e-4 -0.3055,-7.933366 -0.8412,-0.570507 -0.1261,-15.706535 3.0597,-0.170015 6.2885,2.634464 3.4846,-0.680062 2.6344,-0.509529 6.3743,5.014164 h 5.5237 l 3.4846,2.209167 -1.8697,-3.22926 -3.5693,-2.209684 -1.5296,-1.954403 -3.0598,-4.334619 -5.5242,-0.764811 -4.3341,-5.014164 -6.459,-0.84956 -1.4444,-2.209684 z" />
    <path
       id="path9"
       style="fill:url(#linearGradient36);fill-opacity:1;stroke-width:0.529166;filter:url(#filter45)"
       d="m -1233.9711,11.407572 v 30.000235 l -0.8501,0.679545 -0.1271,8.012947 -2.5239,1.201994 -0.4811,2.22312 -2.7043,0.360702 -0.3002,0.721403 2.7642,-0.360702 -1.3219,6.430098 -1.8629,0.540536 -0.9617,5.64875 -8.1727,0.300757 v 0.720886 l -3.9062,1.44229 2.3441,1.142049 3.6054,0.360184 -6.0094,12.379606 0.2403,1.742529 -2.464,1.261939 0.1204,0.841292 2.5239,0.240812 -3.4251,5.408455 0.3002,4.867403 -2.4034,1.141533 0.1798,0.841292 h 2.344 l -1.8029,9.495023 0.2402,4.56717 -4.0865,13.70149 -0.1421,0.77411 0.054,-2.89905 -1.1891,-6.35465 2.0573,-0.82269 -2.0573,-0.59479 0.2744,-3.70262 -2.0572,-4.38888 1.7828,-0.63975 -1.9197,-1.00614 0.1369,-1.59991 -4.2969,-9.462984 2.8799,-0.503328 0.7772,-0.45682 -2.7429,-1.599902 -6.1263,-0.228927 -0.3199,-3.748608 -1.5544,-1.280025 -1.1885,-4.434355 1.7828,-0.274402 -2.5141,-0.777213 -0.1829,-1.234033 -1.1431,-1.097608 -2.3771,0.09147 -1.9198,0.914673 -0.3658,1.69137 -2.0573,0.274402 -0.2284,0.548287 2.1027,-0.274402 -1.0056,4.891691 -1.4175,0.411344 -0.7312,4.297412 -6.2172,0.228927 v 0.548287 l -2.9719,1.09709 1.7828,0.868681 2.743,0.274402 -4.5713,9.417511 0.1829,1.3255 -1.8743,0.96015 0.091,0.64027 1.9198,0.18242 -2.6056,4.11447 0.2285,3.70314 -1.8289,0.86868 0.1375,0.63975 h 1.7828 l -1.3715,7.22333 0.183,3.47421 -3.1089,10.42365 -0.3163,1.72393 c -0.1885,-0.29509 -0.308,-0.64362 -0.5622,-0.88729 -1.8382,-1.76217 -5.2864,-1.21544 -6.9711,-3.12487 -3.9911,-4.52332 -1.6872,-12.46729 -5.2881,-17.30695 -2.0694,-2.78134 -6.2229,-3.29746 -8.6537,-5.76916 -2.8052,-2.85236 -4.3381,-6.72295 -6.4901,-10.09551 -1.5305,-2.39859 -2.0744,-5.839568 -4.5671,-7.211441 -1.4742,-0.811288 -3.5198,0.704643 -5.0478,0 -3.9223,-1.808806 -4.2755,-8.616726 -8.4134,-9.855212 -2.4779,-0.741612 -5.277,0.762313 -7.4512,2.163175 -1.8629,1.200308 -3.558,2.969258 -4.3269,5.047754 -0.834,2.254435 1.0703,5.059159 0,7.211444 -1.2241,2.4615 -4.3313,3.30102 -6.7309,4.80126 v 167.82075 h 508.00001 V 158.20946 c -0.0997,0.24203 -0.23073,0.50388 -0.32711,0.72088 -1.78615,4.0215 1.91036,12.11459 -2.40399,12.98009 -2.44042,0.48957 -3.16859,-3.93597 -4.08605,-6.24975 -2.69978,-6.80857 -0.0371,-15.37798 -3.84628,-21.63382 -0.89181,-1.4646 -3.0809,-1.73562 -4.08606,-3.12487 -2.28749,-3.16159 -2.17075,-7.53288 -3.84627,-11.05721 -1.89996,-3.99638 -5.56418,-7.10192 -6.97064,-11.2975 -1.35575,-4.04428 0.78684,-8.96634 -1.20199,-12.73979 -0.87536,-1.66083 -3.00762,-2.27024 -4.32687,-3.60598 -2.32148,-2.350488 -3.009,-8.333575 -6.24975,-7.692037 -2.46181,0.487339 -0.65648,5.204488 -2.16317,7.211447 -1.94812,2.59494 -6.13171,2.76544 -8.17263,5.28805 -2.26506,2.79964 -3.19451,6.55434 -3.84628,10.09602 -0.43505,2.36406 0.91988,4.99067 0,7.21145 -1.60443,3.87345 -6.82834,5.24511 -8.89403,8.89351 -0.81385,1.43742 -0.22857,3.47255 -1.20147,4.80746 -2.05599,2.82102 -6.81785,2.72267 -8.89403,5.52886 -2.41592,3.26538 -1.39885,8.10112 -3.12488,11.77809 -2.1729,4.62897 -5.33768,8.8251 -8.89403,12.4995 -1.47118,1.52001 -2.95844,4.1772 -5.04775,3.84628 -3.75387,-0.59458 -2.6901,-9.44839 -6.49004,-9.37463 -1.04451,0.0203 -0.63875,2.68685 -1.68259,2.64429 -4.97781,-0.20296 -4.75147,-8.76078 -6.97115,-13.2209 -1.26166,-2.53512 -0.77606,-7.57766 -3.60546,-7.69204 -1.93639,-0.0783 -1.07979,4.34175 -2.88458,5.04776 -1.48676,0.58161 -3.25906,-0.52656 -4.56717,-1.44178 -1.07676,-0.75336 -1.123,-3.41878 -2.40398,-3.12539 -3.82942,0.87706 -2.19589,7.61522 -2.40347,11.53832 -0.0851,1.60822 1.02202,3.29072 0.48059,4.80745 -0.57142,1.60078 -1.9922,4.14062 -3.60547,3.60547 -3.68901,-1.22371 2.15481,-10.92082 -1.68258,-11.5378 -1.94581,-0.31285 -0.68864,5.53208 -2.64428,5.28805 -5.20886,-0.64998 -1.48043,-10.48485 -3.36517,-15.38407 -0.46389,-1.20583 -1.39553,-2.18571 -1.92288,-3.36517 -1.13763,-2.54441 -2.09258,-5.20034 -2.64429,-7.93233 -0.41359,-2.04806 0.84073,-4.63119 -0.48059,-6.24975 -1.47555,-1.80748 -5.22482,-0.14066 -6.73082,-1.92288 -2.3415,-2.77102 0.8555,-7.82865 -1.2015,-10.81691 -1.6865,-2.45 -5.6102,-2.22793 -7.9323,-4.08657 -4.4853,-3.58998 -5.3794,-14.095702 -11.0572,-13.220384 -2.9118,0.448879 -1.2843,6.087584 -3.3657,8.172624 -1.7766,1.77971 -5.731,0.69643 -6.9702,2.88458 -1.8762,3.313 4.8563,9.19491 1.6821,11.2975 -1.4091,0.93342 -2.8055,-3.38071 -4.3269,-2.64428 -2.3973,1.16047 -0.6808,5.28421 -0.9616,7.93285 -0.1867,1.76016 0.9042,4.18569 -0.4806,5.28805 -1.3919,1.10799 -3.7327,-1.58461 -5.2881,-0.72089 -2.2261,1.23626 -1.9842,4.69375 -3.1243,6.97064 -1.1081,2.21284 -1.2077,5.8814 -3.6065,6.49004 -3.0379,0.77079 -6.1739,-2.45317 -7.9319,-5.04776 -1.6925,-2.4978 0.6804,-7.01781 -1.6825,-8.89403 -1.5073,-1.19682 -4.1814,-0.84754 -5.7692,0.2403 -2.8121,1.92671 -2.5011,6.3567 -4.0861,9.37462 -1.6232,3.09041 -2.0432,9.0744 -5.5293,8.89403 -3.2924,-0.17035 -1.1178,-8.13611 -4.3264,-8.89403 -2.9477,-0.69632 -4.2765,6.27773 -7.2114,5.52886 -6.7083,-1.71173 -2.6101,-15.21353 -8.413,-18.98954 -2.2834,-1.48581 -6.0545,1.71268 -8.1731,0 -1.7843,-1.44244 0.016,-4.95909 -1.4423,-6.73085 -1.1631,-1.41362 -3.7499,-0.87211 -5.0477,-2.16318 -1.4247,-1.4172 -1.1829,-3.93288 -2.404,-5.52886 -0.9353,-1.22241 -2.7605,-1.59759 -3.6055,-2.88406 -1.5046,-2.29076 -0.1869,-6.03349 -2.1627,-7.932848 -0.7706,-0.740841 -2.0837,-0.480506 -3.1253,-0.720886 -2.0833,-0.480749 -4.5468,-2.734967 -6.2498,-1.442289 -1.4055,1.066888 0.6689,3.775701 -0.2403,5.288053 -1.0549,1.75482 -4.0505,1.49466 -5.2885,3.12539 -2.809,3.69962 -2.9994,8.85522 -3.6055,13.46067 -0.2091,1.5888 1.0056,3.55975 0,4.80746 -1.1834,1.46838 -4.3802,-0.29412 -5.5284,1.202 -1.0256,1.33633 0.8911,3.49401 0.2403,5.04775 -0.7893,1.88419 -3.1953,2.57293 -4.5671,4.08657 -2.7336,3.01619 -5.0517,6.40484 -7.2115,9.85521 -0.8177,1.3064 -1.2474,2.84683 -2.1631,4.08658 -1.1115,1.50501 -2.269,3.16897 -3.8489,4.13721 l -1.8774,-6.9603 -4.069,-13.76091 0.091,-4.89118 -1.1891,-6.35465 2.0577,-0.82269 -2.0577,-0.59479 0.2744,-3.70262 -2.0567,-4.38888 1.7823,-0.63975 -1.9198,-1.00614 0.1375,-1.59991 -4.2975,-9.462984 2.88,-0.503328 0.7772,-0.45682 -2.743,-1.599902 -6.1262,-0.228927 -0.3199,-3.748608 -1.5544,-1.280025 -1.1886,-4.434355 1.7834,-0.274402 -2.5146,-0.777213 -0.183,-1.234033 -1.143,-1.097608 -2.3772,0.09147 -1.9203,0.914673 -0.3653,1.69137 -2.0572,0.274402 -0.2285,0.548287 2.1028,-0.274402 -1.0051,4.891691 -1.418,0.411344 -0.7308,4.297412 -6.2177,0.228927 v 0.548287 l -2.9714,1.09709 1.7824,0.868681 2.743,0.274402 -4.5713,9.417511 0.1829,1.3255 -1.8748,0.96015 0.091,0.64027 1.9203,0.18242 -2.606,4.11447 0.2289,3.70314 -1.8288,0.86868 0.1369,0.63975 h 1.7834 l -1.3715,7.22333 0.1824,3.47421 -1.3487,4.52324 -0.3551,-1.31568 -5.3485,-18.08831 0.1204,-6.43009 -1.5621,-8.352979 2.7037,-1.081588 -2.7037,-0.781348 0.3601,-4.867403 -2.7042,-5.769156 2.3441,-0.841293 -2.525,-1.321883 0.1809,-2.10323 -5.6493,-12.439551 3.7859,-0.660941 1.0221,-0.600997 -3.6054,-2.103231 -8.0528,-0.300757 -0.4211,-4.927347 -2.0428,-1.682585 -1.5622,-5.829101 2.3435,-0.360702 -3.3052,-1.021643 -0.2403,-1.62264 -1.5027,-1.442289 -0.025,5.17e-4 -0.3055,-7.933366 -0.8412,-0.570507 -0.1261,-15.706535 3.0597,-0.170015 6.2885,2.634464 3.4846,-0.680062 2.6344,-0.509529 6.3743,5.014164 h 5.5237 l 3.4846,2.209167 -1.8697,-3.22926 -3.5693,-2.209684 -1.5296,-1.954403 -3.0598,-4.334619 -5.5242,-0.764811 -4.3341,-5.014164 -6.459,-0.84956 -1.4444,-2.209684 z" />
  </g>
</svg>
