<?xml version="1.0" encoding="UTF-8" standalone="no"?>
<!-- Created with Inkscape (http://www.inkscape.org/) -->

<svg
   width="1919.9998"
   height="1080"
   viewBox="0 0 507.99992 285.74999"
   version="1.1"
   id="svg1"
   sodipodi:docname="idea 6.svg"
   inkscape:version="1.3.2 (091e20e, 2023-11-25, custom)"
   inkscape:export-filename="idea 6.png"
   inkscape:export-xdpi="96"
   inkscape:export-ydpi="96"
   xmlns:inkscape="http://www.inkscape.org/namespaces/inkscape"
   xmlns:sodipodi="http://sodipodi.sourceforge.net/DTD/sodipodi-0.dtd"
   xmlns="http://www.w3.org/2000/svg"
   xmlns:svg="http://www.w3.org/2000/svg">
  <sodipodi:namedview
     id="namedview1"
     pagecolor="#ffffff"
     bordercolor="#cccccc"
     borderopacity="1"
     inkscape:showpageshadow="0"
     inkscape:pageopacity="1"
     inkscape:pagecheckerboard="0"
     inkscape:deskcolor="#d1d1d1"
     inkscape:document-units="px"
     inkscape:zoom="0.4894542"
     inkscape:cx="964.33947"
     inkscape:cy="515.88076"
     inkscape:window-width="1920"
     inkscape:window-height="991"
     inkscape:window-x="-9"
     inkscape:window-y="-9"
     inkscape:window-maximized="1"
     inkscape:current-layer="layer1" />
  <defs
     id="defs1" />
  <g
     inkscape:label="Layer 1"
     inkscape:groupmode="layer"
     id="layer1"
     transform="translate(1368.7185)">
    <rect
       style="fill:none;fill-opacity:1;stroke:none;stroke-width:0.529167"
       id="rect36"
       width="507.99997"
       height="285.75"
       x="-1368.7185"
       y="0" />
    <path
       id="path12"
       style="fill:#205127;fill-opacity:1;stroke-width:0.529166"
       d="m -1065.734,230.20868 c -10.9238,0.52035 -21.6423,7.08737 -32.7328,6.91482 -6.9493,-0.10812 -13.4521,-4.60163 -20.3967,-4.32635 -7.3221,0.29024 -13.7488,6.17245 -21.0763,6.24975 -3.6417,0.0384 -6.9226,-3.32047 -10.5383,-2.88458 -3.6035,0.43441 -6.3211,3.5699 -9.5183,5.28805 -6.1242,3.29109 -11.7551,7.96531 -18.509,9.61492 -5.8624,1.43186 -12.1013,-0.61867 -18.1043,0 -7.8157,0.8055 -15.2199,4.92947 -23.0761,4.80745 -13.6798,-0.21246 -26.254,-8.66522 -39.9025,-9.61491 -29.5553,-2.05653 -58.8375,9.2819 -88.4576,8.65373 -5.8241,-0.12351 -13.0817,-0.80933 -20.6726,-1.7539 v 32.59233 h 507.99994 v -45.33728 c -5.83427,1.31336 -11.69091,2.49499 -17.63407,2.47995 -10.40636,-0.0263 -20.50039,-3.59513 -30.76815,-5.28805 -12.16563,-2.00583 -24.37299,-7.78302 -36.5373,-5.76916 -9.5,1.57277 -16.21181,11.15015 -25.55968,13.4612 -15.53067,3.8396 -32.12154,1.9944 -47.99504,0 -7.7127,-0.96906 -15.2842,-3.1277 -22.595,-5.76916 -6.6741,-2.41142 -12.1964,-8.19495 -19.2303,-9.13433 -1.5706,-0.20975 -3.1353,-0.25882 -4.6959,-0.18448 z" />
  </g>
</svg>
