<?xml version="1.0" encoding="UTF-8" standalone="no"?>
<!-- Created with Inkscape (http://www.inkscape.org/) -->

<svg
   width="1920"
   height="1080"
   viewBox="0 0 507.99998 285.74999"
   version="1.1"
   id="svg1"
   sodipodi:docname="idea 6.svg"
   inkscape:version="1.3.2 (091e20e, 2023-11-25, custom)"
   inkscape:export-filename="idea 6.png"
   inkscape:export-xdpi="96"
   inkscape:export-ydpi="96"
   xmlns:inkscape="http://www.inkscape.org/namespaces/inkscape"
   xmlns:sodipodi="http://sodipodi.sourceforge.net/DTD/sodipodi-0.dtd"
   xmlns:xlink="http://www.w3.org/1999/xlink"
   xmlns="http://www.w3.org/2000/svg"
   xmlns:svg="http://www.w3.org/2000/svg">
  <sodipodi:namedview
     id="namedview1"
     pagecolor="#ffffff"
     bordercolor="#cccccc"
     borderopacity="1"
     inkscape:showpageshadow="0"
     inkscape:pageopacity="1"
     inkscape:pagecheckerboard="0"
     inkscape:deskcolor="#d1d1d1"
     inkscape:document-units="px"
     inkscape:zoom="0.4894542"
     inkscape:cx="964.33947"
     inkscape:cy="515.88076"
     inkscape:window-width="1920"
     inkscape:window-height="991"
     inkscape:window-x="-9"
     inkscape:window-y="-9"
     inkscape:window-maximized="1"
     inkscape:current-layer="layer1" />
  <defs
     id="defs1">
    <linearGradient
       id="linearGradient34"
       inkscape:collect="always">
      <stop
         style="stop-color:#3d7433;stop-opacity:0;"
         offset="0"
         id="stop35" />
      <stop
         style="stop-color:#205127;stop-opacity:1;"
         offset="1"
         id="stop34" />
    </linearGradient>
    <filter
       style="color-interpolation-filters:sRGB"
       inkscape:label="Noise Fill"
       id="filter45"
       x="0"
       y="0"
       width="1"
       height="1">
      <feTurbulence
         type="fractalNoise"
         baseFrequency="21.5873 40"
         numOctaves="5"
         seed="1"
         result="turbulence"
         id="feTurbulence44" />
      <feComposite
         in="SourceGraphic"
         in2="turbulence"
         operator="in"
         result="composite1"
         id="feComposite44" />
      <feColorMatrix
         values="1 0 0 0 0 0 1 0 0 0 0 0 1 0 0 0 0 0 3.73065 -1 "
         result="color"
         id="feColorMatrix44" />
      <feFlood
         flood-opacity="0"
         flood-color="rgb(21,40,57)"
         result="flood"
         id="feFlood44" />
      <feMerge
         result="merge"
         id="feMerge45">
        <feMergeNode
           in="flood"
           id="feMergeNode44" />
        <feMergeNode
           in="color"
           id="feMergeNode45" />
      </feMerge>
      <feComposite
         in2="SourceGraphic"
         operator="in"
         result="composite2"
         id="feComposite45" />
    </filter>
    <linearGradient
       inkscape:collect="always"
       xlink:href="#linearGradient34"
       id="linearGradient28"
       gradientUnits="userSpaceOnUse"
       gradientTransform="translate(-1368.3682,-16.40417)"
       x1="447.3436"
       y1="31.499628"
       x2="484.59677"
       y2="120.75128" />
    <linearGradient
       inkscape:collect="always"
       xlink:href="#linearGradient34"
       id="linearGradient30"
       gradientUnits="userSpaceOnUse"
       gradientTransform="translate(-1368.3682,-16.40417)"
       x1="327.53119"
       y1="160.21672"
       x2="433.31512"
       y2="197.02269" />
  </defs>
  <g
     inkscape:label="Layer 1"
     inkscape:groupmode="layer"
     id="layer1"
     transform="translate(1368.7185)">
    <rect
       style="fill:none;fill-opacity:1;stroke:none;stroke-width:0.529167"
       id="rect36"
       width="507.99997"
       height="285.75"
       x="-1368.7185"
       y="0" />
    <path
       id="path16"
       style="opacity:1;fill:#205127;fill-opacity:1;stroke:none;stroke-width:0.529166"
       d="m -860.71849,57.492096 c -1.99398,1.677624 -2.43792,5.358863 -4.41265,7.301879 -1.89533,1.864883 -4.78087,2.537713 -6.60632,4.471045 -1.65847,1.75649 -2.05064,4.470604 -3.7114,6.224943 -1.92712,2.035747 -4.97107,2.736985 -6.97631,4.695837 -2.59145,2.531501 -6.27766,8.871293 -6.27766,8.871293 0,0 -2.99323,-1.80475 -4.67361,-1.92288 -7.55266,-0.530916 -22.00796,5.619812 -22.00796,5.619812 l -7.77162,-3.241663 3.04994,-0.562239 1.74977,-5.152657 -1.98024,-1.723409 3.50469,-3.800285 -3.7946,-7.48378 -7.62279,4.65863 0.72657,5.250842 -1.76475,0.367936 -1.69189,5.312337 2.92489,0.839225 -1.0449,2.231389 -4.21473,0.21549 -0.85576,2.595707 -1.6707,1.563729 -0.31987,1.23455 0.93689,0.204122 -0.92036,3.017387 1.15239,0.84491 1.17925,3.343984 1.63401,0.61908 -20.73052,77.7322 c 0,0 -1.53791,-0.41262 -2.2071,-0.1049 -0.41059,0.18881 -0.6617,0.6515 -0.83302,1.0697 -0.31222,0.76199 -0.28629,2.45412 -0.28629,2.45412 0,0 -4.54067,0.42684 -6.66316,1.19269 -2.31083,0.83382 -4.48966,2.10388 -6.41252,3.63285 -2.03806,1.62058 -5.28289,5.75417 -5.28289,5.75417 0,0 -1.19194,-0.59051 -1.78542,-0.4377 -0.46111,0.11871 -0.7828,0.57419 -1.05058,0.9679 -0.4856,0.71395 -0.93224,2.41639 -0.93224,2.41639 l -3.37137,1.67277 2.30167,2.73678 c 0,0 -0.0246,1.28382 0.18241,1.87741 0.24896,0.71372 0.93767,1.20751 1.23197,1.90376 1.08898,2.57621 0.92963,5.94703 1.87689,8.17831 0.94725,2.23128 2.01275,3.60824 3.35897,5.15576 0.66998,0.77017 2.30942,2.01073 2.30942,2.01073 0,0 -0.61221,2.07587 -0.53744,3.13262 0.083,1.17346 0.46208,2.35911 1.08107,3.35949 0.70334,1.13669 2.86753,2.80293 2.86753,2.80293 l -4.62091,5.33404 4.2261,10.6717 8.73693,-7.32204 -1.13843,-6.63783 c 0,0 2.22525,-0.008 3.23598,-0.40877 1.08453,-0.42982 2.10754,-1.14307 2.83032,-2.05878 0.85714,-1.08595 1.59525,-3.83181 1.59525,-3.83181 0,0 3.75774,-0.89089 5.46582,-1.75338 1.801,-0.90943 3.51721,-2.07991 4.90926,-3.54035 1.29781,-1.36159 3.07784,-4.72995 3.07784,-4.72995 0,0 2.30352,-0.41896 2.97863,-1.25935 0.2982,-0.3712 0.25942,-1.40457 0.25942,-1.40457 l 4.53771,-2.3213 -3.12643,-2.39314 c 0,0 0.25398,-2.17016 -0.0284,-3.19825 -0.0839,-0.30541 -0.23063,-0.62336 -0.47801,-0.82114 -0.23677,-0.18927 -0.86713,-0.27337 -0.86713,-0.27337 0,0 -0.34577,-4.8095 -1.22886,-7.01198 -0.79266,-1.97691 -2.12412,-3.73073 -3.55069,-5.31233 -1.76048,-1.95179 -6.07095,-5.03225 -6.07095,-5.03225 0,0 0.92509,-1.68783 0.8878,-2.60398 -0.0185,-0.45377 -0.23165,-0.91901 -0.54311,-1.24953 -0.43981,-0.46673 -1.71566,-0.87024 -1.71566,-0.87024 l 21.11705,-78.9621 7.4502,-0.39326 2.34817,-0.69194 3.2489,-2.758491 c 0,0 18.18221,4.536951 27.13374,2.918681 2.73682,-0.49477 7.45795,-3.740336 7.45795,-3.740336 l 3.34243,-1.752865 2.40605,0.529684 0.95705,-1.476396 c 0,0 0.58649,-2.425002 1.36581,-3.341915 1.04114,-1.224942 2.6442,-1.864246 4.11189,-2.520259 1.81052,-0.809252 4.73547,-1.540013 6.03064,-1.853634 z" />
    <path
       style="opacity:1;fill:#3d7433;fill-opacity:1;stroke:none;stroke-width:0.529167"
       d="m -920.62641,70.790238 -4.20086,5.35529 0.57335,4.825773 -2.29344,2.054537 -0.52557,1.194492 1.24228,2.293428 -1.1008,2.750485 -23.98366,93.239297 -1.91119,0.62114 -0.19111,2.96235 -8.93485,9.60377 -4.49133,7.97924 1.6723,11.08495 2.24565,4.53909 -2.58011,4.06129 -0.1911,2.19788 1.72008,5.11245 -3.44017,5.30357 -0.43883,10.6338 -4.22617,-10.67173 4.62132,-5.3342 c 0,0 -3.33367,-1.61936 -4.00008,-4.5038 -0.78804,-3.41088 0.58892,-4.79093 0.58892,-4.79093 0,0 -4.21113,-2.39141 -5.81084,-6.49055 -1.61196,-4.13056 -1.73461,-8.85428 -1.73461,-8.85428 0,0 -1.06349,-0.75601 -1.23179,-1.90397 -0.1683,-1.14797 -0.18264,-1.87715 -0.18264,-1.87715 l -2.30169,-2.73676 3.37121,-1.67276 c 0,0 0.72919,-3.59611 1.98308,-3.38454 1.25389,0.21157 1.78557,0.438 1.78557,0.438 0,0 3.71714,-5.70935 8.15745,-8.20577 3.91235,-2.19959 10.20101,-2.37429 10.20101,-2.37429 0,0 -0.59947,-3.52022 1.11921,-3.52364 1.71865,-0.003 2.20715,0.10458 2.20715,0.10458 l 20.73027,-77.73209 3.07932,-13.63906 1.04487,-2.231295 -2.92499,-0.838867 1.69155,-5.312647 1.76485,-0.367972 -0.72636,-5.250516 z"
       id="path22"
       sodipodi:nodetypes="cccccccccccccccccccccscscscccscsccccccccccc" />
    <path
       style="opacity:1;fill:url(#linearGradient30);fill-opacity:1;stroke:none;stroke-width:0.529167;filter:url(#filter45)"
       d="m -920.62641,70.790238 -4.20086,5.35529 0.57335,4.825773 -2.29344,2.054537 -0.52557,1.194492 1.24228,2.293428 -1.1008,2.750485 -23.98366,93.239297 -1.91119,0.62114 -0.19111,2.96235 -8.93485,9.60377 -4.49133,7.97924 1.6723,11.08495 2.24565,4.53909 -2.58011,4.06129 -0.1911,2.19788 1.72008,5.11245 -3.44017,5.30357 -0.43883,10.6338 -4.22617,-10.67173 4.62132,-5.3342 c 0,0 -3.33367,-1.61936 -4.00008,-4.5038 -0.78804,-3.41088 0.58892,-4.79093 0.58892,-4.79093 0,0 -4.21113,-2.39141 -5.81084,-6.49055 -1.61196,-4.13056 -1.73461,-8.85428 -1.73461,-8.85428 0,0 -1.06349,-0.75601 -1.23179,-1.90397 -0.1683,-1.14797 -0.18264,-1.87715 -0.18264,-1.87715 l -2.30169,-2.73676 3.37121,-1.67276 c 0,0 0.72919,-3.59611 1.98308,-3.38454 1.25389,0.21157 1.78557,0.438 1.78557,0.438 0,0 3.71714,-5.70935 8.15745,-8.20577 3.91235,-2.19959 10.20101,-2.37429 10.20101,-2.37429 0,0 -0.59947,-3.52022 1.11921,-3.52364 1.71865,-0.003 2.20715,0.10458 2.20715,0.10458 l 20.73027,-77.73209 3.07932,-13.63906 1.04487,-2.231295 -2.92499,-0.838867 1.69155,-5.312647 1.76485,-0.367972 -0.72636,-5.250516 z"
       id="path24"
       sodipodi:nodetypes="cccccccccccccccccccccscscscccscsccccccccccc" />
    <path
       id="path26"
       style="opacity:1;fill:#3d7433;fill-opacity:1;stroke:none;stroke-width:0.529167"
       d="m -860.71849,57.496747 c -2.27484,2.043605 -4.41265,7.297228 -4.41265,7.297228 0,0 -4.78087,2.537711 -6.60632,4.471045 -1.65847,1.756489 -3.7114,6.224943 -3.7114,6.224943 0,0 -4.97107,2.736465 -6.97631,4.69532 -2.59145,2.531499 -6.27766,8.87181 -6.27766,8.87181 0,0 -1.01467,-1.536463 -4.67361,-1.92288 -7.52941,-0.795166 -22.00796,5.619812 -22.00796,5.619812 l -7.77162,-3.241663 -5.94331,-0.06201 -4.21473,0.21549 -0.85576,2.595707 -1.6707,1.564246 -0.31987,1.234033 0.93689,0.204122 -0.92036,3.017387 1.15239,0.84491 1.17925,3.343983 1.63401,0.61908 5.60689,0.51728 7.4502,-0.39326 2.34817,-0.69194 3.2489,-2.75849 -0.74362,-3.215307 19.8763,-5.351612 7.8357,2.580205 5.44721,-6.8802 1.71979,-3.248897 3.4401,-3.248898 5.35161,-1.624707 3.0577,-6.8802 6.82077,-3.726904 z" />
    <path
       id="path28"
       style="opacity:1;fill:url(#linearGradient28);fill-opacity:1;stroke:none;stroke-width:0.529167;filter:url(#filter45)"
       d="m -860.71849,57.496747 c -2.27484,2.043605 -4.41265,7.297228 -4.41265,7.297228 0,0 -4.78087,2.537711 -6.60632,4.471045 -1.65847,1.756489 -3.7114,6.224943 -3.7114,6.224943 0,0 -4.97107,2.736465 -6.97631,4.69532 -2.59145,2.531499 -6.27766,8.87181 -6.27766,8.87181 0,0 -1.01467,-1.536463 -4.67361,-1.92288 -7.52941,-0.795166 -22.00796,5.619812 -22.00796,5.619812 l -7.77162,-3.241663 -5.94331,-0.06201 -4.21473,0.21549 -0.85576,2.595707 -1.6707,1.564246 -0.31987,1.234033 0.93689,0.204122 -0.92036,3.017387 1.15239,0.84491 1.17925,3.343983 1.63401,0.61908 5.60689,0.51728 7.4502,-0.39326 2.34817,-0.69194 3.2489,-2.75849 -0.74362,-3.215307 19.8763,-5.351612 7.8357,2.580205 5.44721,-6.8802 1.71979,-3.248897 3.4401,-3.248898 5.35161,-1.624707 3.0577,-6.8802 6.82077,-3.726904 z" />
  </g>
</svg>
