<?xml version="1.0" encoding="UTF-8" standalone="no"?>
<!-- Created with Inkscape (http://www.inkscape.org/) -->

<svg
   width="1920"
   height="1080.0001"
   viewBox="0 0 507.99998 285.75002"
   version="1.1"
   id="svg1"
   xml:space="preserve"
   sodipodi:docname="idea 7.svg"
   inkscape:version="1.3.2 (091e20e, 2023-11-25, custom)"
   inkscape:export-filename="idea 7.png"
   inkscape:export-xdpi="96"
   inkscape:export-ydpi="96"
   xmlns:inkscape="http://www.inkscape.org/namespaces/inkscape"
   xmlns:sodipodi="http://sodipodi.sourceforge.net/DTD/sodipodi-0.dtd"
   xmlns:xlink="http://www.w3.org/1999/xlink"
   xmlns="http://www.w3.org/2000/svg"
   xmlns:svg="http://www.w3.org/2000/svg"><sodipodi:namedview
     id="namedview1"
     pagecolor="#ffffff"
     bordercolor="#cccccc"
     borderopacity="1"
     inkscape:showpageshadow="0"
     inkscape:pageopacity="1"
     inkscape:pagecheckerboard="0"
     inkscape:deskcolor="#d1d1d1"
     inkscape:document-units="px"
     inkscape:zoom="0.553125"
     inkscape:cx="858.75706"
     inkscape:cy="512.54237"
     inkscape:window-width="1920"
     inkscape:window-height="991"
     inkscape:window-x="-9"
     inkscape:window-y="-9"
     inkscape:window-maximized="1"
     inkscape:current-layer="layer1"
     showguides="false" /><defs
     id="defs1"><linearGradient
       id="linearGradient59"
       inkscape:collect="always"><stop
         style="stop-color:#5dacaf;stop-opacity:1;"
         offset="0"
         id="stop58" /><stop
         style="stop-color:#337174;stop-opacity:0;"
         offset="1"
         id="stop59" /></linearGradient><linearGradient
       id="linearGradient30"
       inkscape:collect="always"><stop
         style="stop-color:#b6f5db;stop-opacity:1;"
         offset="0"
         id="stop30" /><stop
         style="stop-color:#5dacaf;stop-opacity:0;"
         offset="1"
         id="stop31" /></linearGradient><linearGradient
       id="linearGradient2"
       inkscape:collect="always"><stop
         style="stop-color:#337174;stop-opacity:0;"
         offset="0"
         id="stop3" /><stop
         style="stop-color:#204b51;stop-opacity:1;"
         offset="1"
         id="stop2" /></linearGradient><filter
       style="color-interpolation-filters:sRGB"
       inkscape:label="Noise Fill"
       id="filter2"
       x="0"
       y="0"
       width="1"
       height="1"><feTurbulence
         type="fractalNoise"
         baseFrequency="21.5873 40"
         numOctaves="5"
         seed="1"
         result="turbulence"
         id="feTurbulence1" /><feComposite
         in="SourceGraphic"
         in2="turbulence"
         operator="in"
         result="composite1"
         id="feComposite1" /><feColorMatrix
         values="1 0 0 0 0 0 1 0 0 0 0 0 1 0 0 0 0 0 3.73065 -1 "
         result="color"
         id="feColorMatrix1" /><feFlood
         flood-opacity="0"
         flood-color="rgb(21,40,57)"
         result="flood"
         id="feFlood1" /><feMerge
         result="merge"
         id="feMerge2"><feMergeNode
           in="flood"
           id="feMergeNode1" /><feMergeNode
           in="color"
           id="feMergeNode2" /></feMerge><feComposite
         in2="SourceGraphic"
         operator="in"
         result="composite2"
         id="feComposite2" /></filter><linearGradient
       inkscape:collect="always"
       xlink:href="#linearGradient30"
       id="linearGradient51"
       gradientUnits="userSpaceOnUse"
       gradientTransform="translate(3.4627278e-6,-1.6012463)"
       x1="143.12953"
       y1="215.74753"
       x2="71.606583"
       y2="325.70609" /><linearGradient
       inkscape:collect="always"
       xlink:href="#linearGradient59"
       id="linearGradient56"
       gradientUnits="userSpaceOnUse"
       gradientTransform="translate(3.4627278e-6,-1.6012463)"
       x1="95.2211"
       y1="217.66257"
       x2="-0.8266955"
       y2="370.56427" /><linearGradient
       inkscape:collect="always"
       xlink:href="#linearGradient2"
       id="linearGradient70"
       gradientUnits="userSpaceOnUse"
       gradientTransform="translate(3.4627278e-6,-1.6012463)"
       x1="76.103867"
       y1="215.31239"
       x2="20.144146"
       y2="314.75476" /><linearGradient
       inkscape:collect="always"
       xlink:href="#linearGradient2"
       id="linearGradient71"
       gradientUnits="userSpaceOnUse"
       gradientTransform="translate(3.4627278e-6,-1.6012463)"
       x1="76.103867"
       y1="215.31239"
       x2="20.144146"
       y2="314.75476" /></defs><g
     inkscape:label="Layer 1"
     inkscape:groupmode="layer"
     id="layer1"
     transform="translate(1250.3878)"><rect
       style="opacity:1;fill:none;fill-opacity:1;stroke:none;stroke-width:0.529167"
       id="rect72"
       width="507.99997"
       height="285.75"
       x="-1250.3878"
       y="0" /><path
       style="opacity:1;fill:url(#linearGradient71);fill-opacity:1;stroke:none;stroke-width:0.526787;filter:url(#filter2)"
       d="m 3.4627278e-6,151.67673 c 0,0 41.2818515372722,-7.64479 108.9382265372722,56.18918 67.65637,63.83399 186.53279,76.28282 186.53279,76.28282 H 3.4627278e-6 Z"
       id="path2"
       transform="matrix(1,0,0,1.009056,-1250.3878,-0.97196984)" /><path
       style="opacity:1;fill:url(#linearGradient70);fill-opacity:1;stroke:none;stroke-width:0.526787;filter:url(#filter2)"
       d="m 3.4627278e-6,151.67673 c 0,0 41.2818515372722,-7.64479 108.9382265372722,56.18918 67.65637,63.83399 186.53279,76.28282 186.53279,76.28282 H 3.4627278e-6 Z"
       id="path3"
       transform="matrix(1,0,0,1.009056,-1250.3878,-0.97196984)" /><path
       style="opacity:1;fill:#337174;fill-opacity:1;stroke:none;stroke-width:0.529167"
       d="m -1250.3878,152.07834 c 0,0 41.2818,-7.71402 108.9382,56.69803 67.6564,64.41207 186.5328,76.97364 186.5328,76.97364 h -295.471 z"
       id="path44" /><path
       style="opacity:1;fill:url(#linearGradient56);fill-opacity:1;stroke:none;stroke-width:0.526787;filter:url(#filter2)"
       d="m 3.4627278e-6,151.67673 c 0,0 41.2818515372722,-7.64479 108.9382265372722,56.18918 67.65637,63.83399 186.53279,76.28282 186.53279,76.28282 H 3.4627278e-6 Z"
       id="path46"
       transform="matrix(1,0,0,1.009056,-1250.3878,-0.97196984)" /><path
       style="opacity:1;fill:#5dacaf;fill-opacity:1;stroke:none;stroke-width:0.529167"
       d="m -1250.3878,201.96107 c 0,0 7.0306,3.82668 13.2439,1.36366 15.1359,-6.00009 27.2987,-14.45478 41.6237,-9.27287 43.3324,15.67488 72.9324,60.98505 149.1968,79.09221 22.9742,5.45463 49.93557,12.60594 49.93557,12.60594 h 41.47101 c 0,0 -97.98828,-14.10482 -158.75468,-54.94697 -41.5725,-34.25628 -70.606,-76.1044 -136.7163,-78.7247 v 49.61"
       id="path47"
       sodipodi:nodetypes="csssccscc" /><path
       style="opacity:1;fill:url(#linearGradient51);fill-opacity:1;stroke:none;stroke-width:0.526787;filter:url(#filter2)"
       d="m 3.4627278e-6,201.11177 c 0,0 7.0306625372722,3.79234 13.2439185372722,1.35142 15.135907,-5.94624 27.298689,-14.32505 41.623744,-9.18965 43.332333,15.53421 72.932324,60.43773 149.196794,78.38238 22.97415,5.40568 49.93553,12.49281 49.93553,12.49281 H 295.471 c 0,0 -97.98824,-13.97823 -158.75471,-54.45384 C 95.143813,195.74605 66.110298,154.27351 3.4627278e-6,151.67673 v 49.16476"
       id="path51"
       sodipodi:nodetypes="csssccscc"
       transform="matrix(1,0,0,1.009056,-1250.3878,-0.97196984)" /></g></svg>
