<?xml version="1.0" encoding="UTF-8" standalone="no"?>
<!-- Created with Inkscape (http://www.inkscape.org/) -->

<svg
   width="1920.0002"
   height="1080.0001"
   viewBox="0 0 508.00004 285.75002"
   version="1.1"
   id="svg1"
   xml:space="preserve"
   sodipodi:docname="idea 7.svg"
   inkscape:version="1.3.2 (091e20e, 2023-11-25, custom)"
   inkscape:export-filename="idea 7.png"
   inkscape:export-xdpi="96"
   inkscape:export-ydpi="96"
   xmlns:inkscape="http://www.inkscape.org/namespaces/inkscape"
   xmlns:sodipodi="http://sodipodi.sourceforge.net/DTD/sodipodi-0.dtd"
   xmlns:xlink="http://www.w3.org/1999/xlink"
   xmlns="http://www.w3.org/2000/svg"
   xmlns:svg="http://www.w3.org/2000/svg"><sodipodi:namedview
     id="namedview1"
     pagecolor="#ffffff"
     bordercolor="#cccccc"
     borderopacity="1"
     inkscape:showpageshadow="0"
     inkscape:pageopacity="1"
     inkscape:pagecheckerboard="0"
     inkscape:deskcolor="#d1d1d1"
     inkscape:document-units="px"
     inkscape:zoom="0.553125"
     inkscape:cx="858.75706"
     inkscape:cy="512.54237"
     inkscape:window-width="1920"
     inkscape:window-height="991"
     inkscape:window-x="-9"
     inkscape:window-y="-9"
     inkscape:window-maximized="1"
     inkscape:current-layer="layer1"
     showguides="false" /><defs
     id="defs1"><linearGradient
       id="linearGradient63"
       inkscape:collect="always"><stop
         style="stop-color:#5dacaf;stop-opacity:1;"
         offset="0"
         id="stop62" /><stop
         style="stop-color:#337174;stop-opacity:0;"
         offset="1"
         id="stop63" /></linearGradient><linearGradient
       id="linearGradient30"
       inkscape:collect="always"><stop
         style="stop-color:#b6f5db;stop-opacity:1;"
         offset="0"
         id="stop30" /><stop
         style="stop-color:#5dacaf;stop-opacity:0;"
         offset="1"
         id="stop31" /></linearGradient><filter
       style="color-interpolation-filters:sRGB"
       inkscape:label="Noise Fill"
       id="filter2"
       x="0"
       y="0"
       width="1"
       height="1"><feTurbulence
         type="fractalNoise"
         baseFrequency="21.5873 40"
         numOctaves="5"
         seed="1"
         result="turbulence"
         id="feTurbulence1" /><feComposite
         in="SourceGraphic"
         in2="turbulence"
         operator="in"
         result="composite1"
         id="feComposite1" /><feColorMatrix
         values="1 0 0 0 0 0 1 0 0 0 0 0 1 0 0 0 0 0 3.73065 -1 "
         result="color"
         id="feColorMatrix1" /><feFlood
         flood-opacity="0"
         flood-color="rgb(21,40,57)"
         result="flood"
         id="feFlood1" /><feMerge
         result="merge"
         id="feMerge2"><feMergeNode
           in="flood"
           id="feMergeNode1" /><feMergeNode
           in="color"
           id="feMergeNode2" /></feMerge><feComposite
         in2="SourceGraphic"
         operator="in"
         result="composite2"
         id="feComposite2" /></filter><linearGradient
       inkscape:collect="always"
       xlink:href="#linearGradient30"
       id="linearGradient60"
       gradientUnits="userSpaceOnUse"
       gradientTransform="translate(3.4627278e-6,-1.6012463)"
       x1="148.56879"
       y1="116.94721"
       x2="84.215561"
       y2="285.75" /><linearGradient
       inkscape:collect="always"
       xlink:href="#linearGradient63"
       id="linearGradient64"
       gradientUnits="userSpaceOnUse"
       gradientTransform="translate(3.4627278e-6,-1.6012463)"
       x1="177.27745"
       y1="131.16138"
       x2="276.55008"
       y2="536.34705" /></defs><g
     inkscape:label="Layer 1"
     inkscape:groupmode="layer"
     id="layer1"
     transform="translate(1250.3878)"><rect
       style="opacity:1;fill:none;fill-opacity:1;stroke:none;stroke-width:0.529167"
       id="rect72"
       width="507.99997"
       height="285.75"
       x="-1250.3878"
       y="0" /><path
       style="opacity:1;fill:#337174;fill-opacity:1;stroke:none;stroke-width:0.529167"
       d="m -1250.3878,187.56283 c 0,0 109.6964,-59.64051 126.139,-61.10662 118.9942,-10.61019 115.1968,63.90832 88.2973,46.83568 -35.7779,-22.70752 -8.6823,73.3971 91.73742,62.09785 100.2633,-11.28165 201.82624,0 201.82624,0 v 50.36027 h -507.99996 z"
       id="path25"
       sodipodi:nodetypes="cssscccc" /><path
       style="opacity:1;fill:url(#linearGradient64);fill-opacity:1;stroke:none;stroke-width:0.526787;filter:url(#filter2)"
       d="m 3.4627278e-6,186.84275 c 0,0 62.8523175372722,-61.49371 126.1389965372722,-59.17975 119.3567,4.36406 115.19686,61.95631 88.29729,45.03689 -35.77785,-22.50373 -8.68225,72.73838 91.73745,61.54054 100.2633,-11.1804 201.82624,0 201.82624,0 v 49.9083 H 3.4627278e-6 Z"
       id="path26"
       sodipodi:nodetypes="cssscccc"
       transform="matrix(1,0,0,1.009056,-1250.3878,-0.97196984)" /><path
       style="opacity:1;fill:#5dacaf;fill-opacity:1;stroke:none;stroke-width:0.529167"
       d="m -1250.3878,176.88334 c 0,0 75.5515,-52.03759 126.139,-52.96117 125.56646,-2.29247 119.6336,67.3548 88.2973,49.36972 -9.3465,-5.3643 -2.8039,-10.33146 -13.8856,-9.51326 -11.0816,0.81819 -7.0873,-2.52399 -13.5142,-1.63639 -26.6597,3.68187 6.1333,-16.97175 -24.5958,-20.56109 -16.1652,-1.88819 -32.7044,-6.08134 -43.3806,-3.98478 -14.2658,2.80151 -86.3557,67.23318 -86.3557,67.23318 h -32.7044 z"
       id="path36"
       sodipodi:nodetypes="cssssssccc" /><path
       style="opacity:1;fill:url(#linearGradient60);fill-opacity:1;stroke:none;stroke-width:0.526787;filter:url(#filter2)"
       d="m 3.4627278e-6,176.25911 c 0,0 75.5624995372722,-51.08909 126.1389965372722,-52.48586 125.56648,-3.46776 119.63359,66.75031 88.29729,48.92664 -9.3465,-5.31616 -2.80387,-10.23874 -13.88552,-9.42788 -11.08164,0.81085 -7.0873,-2.50134 -13.5142,-1.62171 -26.65973,3.64883 6.13326,-16.81943 -24.59585,-20.37656 -16.16517,-1.87124 -32.70437,-6.02676 -43.38059,-3.94901 -14.26585,2.77636 -86.355757,66.62978 -86.355757,66.62978 H 3.4627278e-6 Z"
       id="path38"
       sodipodi:nodetypes="cssssssccc"
       transform="matrix(1,0,0,1.009056,-1250.3878,-0.97196984)" /></g></svg>
