<?xml version="1.0" encoding="UTF-8" standalone="no"?>
<!-- Created with Inkscape (http://www.inkscape.org/) -->

<svg
   width="1920.0007"
   height="1080"
   viewBox="0 0 508.00017 285.74999"
   version="1.1"
   id="svg1"
   xml:space="preserve"
   sodipodi:docname="wave-five.svg"
   inkscape:version="1.3.2 (091e20e, 2023-11-25, custom)"
   inkscape:export-filename="idea 7.png"
   inkscape:export-xdpi="96"
   inkscape:export-ydpi="96"
   xmlns:inkscape="http://www.inkscape.org/namespaces/inkscape"
   xmlns:sodipodi="http://sodipodi.sourceforge.net/DTD/sodipodi-0.dtd"
   xmlns:xlink="http://www.w3.org/1999/xlink"
   xmlns="http://www.w3.org/2000/svg"
   xmlns:svg="http://www.w3.org/2000/svg"><sodipodi:namedview
     id="namedview1"
     pagecolor="#ffffff"
     bordercolor="#cccccc"
     borderopacity="1"
     inkscape:showpageshadow="0"
     inkscape:pageopacity="1"
     inkscape:pagecheckerboard="0"
     inkscape:deskcolor="#d1d1d1"
     inkscape:document-units="px"
     inkscape:zoom="0.553125"
     inkscape:cx="1253.7853"
     inkscape:cy="326.32768"
     inkscape:window-width="1920"
     inkscape:window-height="991"
     inkscape:window-x="-9"
     inkscape:window-y="-9"
     inkscape:window-maximized="1"
     inkscape:current-layer="layer1"
     showguides="false" /><defs
     id="defs1"><linearGradient
       id="linearGradient65"
       inkscape:collect="always"><stop
         style="stop-color:#204b51;stop-opacity:1;"
         offset="0"
         id="stop64" /><stop
         style="stop-color:#337174;stop-opacity:0;"
         offset="1"
         id="stop65" /></linearGradient><linearGradient
       id="linearGradient30"
       inkscape:collect="always"><stop
         style="stop-color:#b6f5db;stop-opacity:1;"
         offset="0"
         id="stop30" /><stop
         style="stop-color:#5dacaf;stop-opacity:0;"
         offset="1"
         id="stop31" /></linearGradient><filter
       style="color-interpolation-filters:sRGB"
       inkscape:label="Noise Fill"
       id="filter2"
       x="0"
       y="0"
       width="1"
       height="1"><feTurbulence
         type="fractalNoise"
         baseFrequency="21.5873 40"
         numOctaves="5"
         seed="1"
         result="turbulence"
         id="feTurbulence1" /><feComposite
         in="SourceGraphic"
         in2="turbulence"
         operator="in"
         result="composite1"
         id="feComposite1" /><feColorMatrix
         values="1 0 0 0 0 0 1 0 0 0 0 0 1 0 0 0 0 0 3.73065 -1 "
         result="color"
         id="feColorMatrix1" /><feFlood
         flood-opacity="0"
         flood-color="rgb(21,40,57)"
         result="flood"
         id="feFlood1" /><feMerge
         result="merge"
         id="feMerge2"><feMergeNode
           in="flood"
           id="feMergeNode1" /><feMergeNode
           in="color"
           id="feMergeNode2" /></feMerge><feComposite
         in2="SourceGraphic"
         operator="in"
         result="composite2"
         id="feComposite2" /></filter><linearGradient
       inkscape:collect="always"
       xlink:href="#linearGradient30"
       id="linearGradient67"
       gradientUnits="userSpaceOnUse"
       gradientTransform="translate(-705.07718,2.9621451)"
       x1="352.06024"
       y1="10.045197"
       x2="477.86438"
       y2="270.32376" /><linearGradient
       inkscape:collect="always"
       xlink:href="#linearGradient65"
       id="linearGradient68"
       gradientUnits="userSpaceOnUse"
       gradientTransform="translate(-705.07718,2.9621451)"
       x1="309.20496"
       y1="32.569229"
       x2="296.57248"
       y2="472.45312" /></defs><g
     inkscape:label="Layer 1"
     inkscape:groupmode="layer"
     id="layer1"
     transform="translate(705.07733)"><rect
       style="opacity:1;fill:none;fill-opacity:1;stroke:none;stroke-width:0.529167"
       id="rect6"
       width="507.99997"
       height="281.28699"
       x="-705.07715"
       y="4.4916697" /><path
       id="path17"
       style="opacity:1;fill:#337174;fill-opacity:1;stroke:none;stroke-width:0.529167"
       d="m -400.74658,4.4916699 c -30.85443,10.8870031 -67.85468,76.6745711 -115.12217,101.1454901 -51.60227,26.7151 -189.2084,39.498 -189.2084,39.498 l -2e-4,139.06705 h 507.99998 V 47.314986 c 0,0 2.4e-4,-1.12876 -22.55573,8.277965 -22.55593,9.406724 -36.31271,43.647189 -46.25092,46.657339 -9.93822,3.01015 -20.64098,-10.535121 -17.96531,-16.555421 2.67568,-6.020295 1.52891,-12.4172 -9.55601,-12.4172 -11.08493,0 -23.72289,-19.220794 -16.05431,-22.575803 5.16025,-2.257613 10.1297,-9.218914 -0.38189,-12.417201 -6.92902,-2.108244 -8.46103,1.545256 -20.25871,2.634014 -12.23165,1.128806 -22.3995,-14.695407 -23.69881,-23.328669 -1.02303,-6.797494 -3.62886,-11.0162282 -14.83217,-13.0983401 z"
       sodipodi:nodetypes="csccccsssssssscc" /><path
       id="path20"
       style="opacity:1;fill:url(#linearGradient68);fill-opacity:1;stroke:none;stroke-width:0.533348;filter:url(#filter2)"
       d="M -400.74658,4.5633914 C -431.60101,15.623132 -468.60126,82.454513 -515.86875,107.3137 c -51.60227,27.13897 -189.2086,34.96815 -189.2086,34.96815 v 146.43008 h 507.99998 V 48.06616 c 0,0 2.4e-4,-1.14667 -22.55573,8.409306 -22.55593,9.555975 -36.31271,44.339714 -46.25092,47.397624 -9.93822,3.05791 -20.64098,-10.702276 -17.96531,-16.818096 2.67568,-6.115816 1.52891,-12.614217 -9.55601,-12.614217 -11.08493,0 -23.72289,-19.525759 -16.05431,-22.934 5.16025,-2.293433 10.1297,-9.365185 -0.38189,-12.614217 -6.92902,-2.141694 -8.46103,1.569774 -20.25871,2.675806 -12.23165,1.146717 -22.3995,-14.92857 -23.69881,-23.698811 -1.02303,-6.905346 -3.62886,-11.191016 -14.83217,-13.3061636 z"
       sodipodi:nodetypes="csccccsssssssscc"
       transform="matrix(1,0,0,0.9843814,0,-4.4773644e-4)" /><path
       id="path21"
       style="opacity:1;fill:#5dacaf;fill-opacity:1;stroke:none;stroke-width:0.529167"
       d="m -382.38073,0.01838887 c -9.74132,0.35679357 -20.62916,5.34113243 -21.74498,5.82945693 -40.74495,17.8315232 -41.30291,45.5152862 -93.93173,88.4444462 -53.40073,43.558828 -207.01991,32.026808 -207.01991,32.026808 v 27.48011 c 73.60076,-5.83273 120.33601,15.55035 194.0333,13.59958 18.61164,0.12628 13.93062,-27.9925 36.11388,-28.65842 4.5927,-0.13786 13.40612,-0.0141 22.83892,-6.91772 l 7.56801,-5.53865 c 11.37047,-8.32173 -19.31561,-10.86415 -19.31561,-10.86415 0,0 10.36573,-6.82573 17.51882,-4.28931 23.23755,8.23985 5.3965,-14.838247 8.82427,-23.607429 2.03955,-5.217706 3.32912,-6.473945 9.81594,-9.666696 6.4868,-3.192746 6.6078,-1.682289 2.09651,-5.317369 -2.85158,-2.297725 -5.03014,0.521592 -11.23704,0.424758 -7.3429,-0.114558 2.02703,-30.405244 6.35155,-36.524677 4.32454,-6.119434 9.32511,-2.261481 16.08222,-0.79814 6.75708,1.463346 9.45968,-3.72485 12.97337,-4.656068 3.51369,-0.931218 2.43248,-1.463071 5.54075,3.991206 3.10826,5.454277 5.1355,5.720317 11.75742,4.656068 6.62196,-1.064251 5.27048,4.788832 5.27048,9.17886 0,4.390029 2.56816,10.775836 11.96051,7.58309 9.39236,-3.19275 -1.5357,3.620274 -0.10232,18.576965 1.43341,14.956676 10.70271,4.138944 15.48071,1.12879 4.77797,-3.01015 6.02023,-16.367858 9.4604,-17.872935 3.44016,-1.505077 4.01319,-3.951019 4.01319,-3.951019 0,0 -13.7603,36.874744 5.44722,51.078896 19.20751,14.20414 28.16985,-10.182 28.16985,-10.182 l 2.02727,-3.857929 c 2.02713,-3.857905 5.97999,-5.920171 5.97999,-5.920171 0,0 0.9458,24.74366 5.47305,30.13142 4.52726,5.38777 11.75004,5.58148 14.1826,3.9851 2.43255,-1.59637 -0.60049,-7.24414 -2.83032,-9.90476 -2.22986,-2.66062 -3.4463,-6.98436 -3.4463,-6.98436 0,0 14.0867,10.16369 22.87819,10.16369 8.79148,0 17.67876,-25.398153 32.49052,-25.680355 5.35036,-0.101933 5.73319,-7.807423 14.5247,-7.807423 8.79148,0 16.05793,25.962688 16.05793,25.962688 V 47.314986 c 0,0 -0.68636,-0.625037 -9.30434,1.270716 -21.19693,4.662825 -29.20652,13.400671 -46.35376,38.94504 -14.12684,21.044888 -32.09887,4.789928 -31.53037,0.389659 0.4763,-3.686601 2.1636,-5.992126 1.96422,-8.044982 -0.52843,-5.440836 -6.53694,-6.911182 -13.89786,-7.963591 -6.04759,-0.86464 -17.3551,-9.577657 -12.30416,-20.457605 1.45637,-3.137084 4.29541,-3.001997 4.82658,-7.166978 0.64891,-5.08825 -4.42949,-9.370254 -15.31844,-5.633777 -9.09765,3.121804 -33.69098,-10.065064 -34.80356,-21.063458 -0.62369,-6.165465 -4.25656,-10.4198446 -9.4878,-13.0983401 0,0 -9.35255,-4.83007459 -19.09387,-4.47328103 z"
       sodipodi:nodetypes="zsscccscccssssssssssssssscscccssscsssccssssssssscz" /><path
       id="path22"
       style="opacity:1;fill:url(#linearGradient67);fill-opacity:1;stroke:none;stroke-width:0.533348;filter:url(#filter2)"
       d="m -382.38073,0.01913548 c -11.32743,0.5940139 -20.62916,5.42587702 -21.74498,5.92194952 -40.74495,18.114445 -41.30291,46.23745 -93.93173,89.847742 -53.40073,44.249953 -207.01991,32.534963 -207.01991,32.534963 v 27.91612 c 73.60076,-5.92528 120.336,15.79707 194.03329,13.81535 18.10428,0.12829 16.29831,-29.95872 36.11389,-29.11312 4.59065,0.1959 13.40612,-0.0143 22.83892,-7.02748 l 7.56801,-5.62653 c 11.37047,-8.45377 -19.31561,-11.03653 -19.31561,-11.03653 0,0 10.36573,-6.93403 17.51882,-4.35736 23.23755,8.37058 5.3965,-15.073679 8.82427,-23.981996 2.03955,-5.300493 3.32912,-6.576664 9.81594,-9.820072 6.4868,-3.243404 6.6078,-1.708981 2.09651,-5.401737 -2.85158,-2.334181 -5.03014,0.529868 -11.23704,0.431498 -7.3429,-0.116376 2.02703,-30.887667 6.35155,-37.104193 4.32454,-6.216527 9.32511,-2.297363 16.08222,-0.810804 6.75708,1.486564 9.45968,-3.78395 12.97337,-4.729943 3.51369,-0.945993 2.43248,-1.486284 5.54075,4.054532 3.10826,5.540817 5.1355,5.811078 11.75742,4.729944 6.62196,-1.081137 5.27048,4.864813 5.27048,9.324495 0,4.459683 2.56816,10.94681 11.96051,7.703406 9.39236,-3.243407 -1.5357,3.677715 -0.10232,18.871715 1.43341,15.193985 10.70271,4.204614 15.48071,1.1467 4.77797,-3.05791 6.02023,-16.627557 9.4604,-18.156514 3.44016,-1.528957 4.01319,-4.013708 4.01319,-4.013708 0,0 -13.7603,37.459814 5.44722,51.889337 19.20751,14.42951 28.16985,-10.343554 28.16985,-10.343554 l 2.02727,-3.91914 c 2.02713,-3.919116 5.97999,-6.014103 5.97999,-6.014103 0,0 0.9458,25.136257 5.47305,30.609497 4.52726,5.47325 11.75004,5.67004 14.1826,4.04833 2.43255,-1.6217 -0.60049,-7.35908 -2.83032,-10.06191 -2.22986,-2.70284 -3.4463,-7.09518 -3.4463,-7.09518 0,0 14.0867,10.32495 22.87819,10.32495 8.79148,0 17.67876,-25.801129 32.49052,-26.087809 5.35036,-0.10355 5.73319,-7.931299 14.5247,-7.931299 8.79148,0 16.05793,26.374618 16.05793,26.374618 V 48.06616 c 0,0 -0.68636,-0.634954 -9.30434,1.290878 -21.19693,4.736807 -29.20652,13.613291 -46.35376,39.562958 -14.12684,21.378794 -32.09887,4.865927 -31.53037,0.395841 0.4763,-3.745094 2.1636,-6.087199 1.96422,-8.172627 -0.52843,-5.527162 -6.53694,-7.020838 -13.89786,-8.089945 -6.04759,-0.878358 -17.3551,-9.72962 -12.30416,-20.782193 1.45637,-3.186859 4.29541,-3.049628 4.82658,-7.280693 0.64891,-5.168982 -4.42949,-9.518926 -15.31844,-5.723164 -9.09765,3.171335 -33.69098,-10.224761 -34.80356,-21.39766 -0.62369,-6.263289 -4.25656,-10.58517 -9.4878,-13.3061636 0,0 -7.76644,-5.13826982 -19.09387,-4.54425592 z"
       sodipodi:nodetypes="zsscccscccssssssssssssssscscccssscsssccssssssssscz"
       transform="matrix(1,0,0,0.9843814,0,-4.4773644e-4)" /></g></svg>
