<?xml version="1.0" encoding="UTF-8" standalone="no"?>
<!-- Created with Inkscape (http://www.inkscape.org/) -->

<svg
   width="1920"
   height="1080"
   viewBox="0 0 507.99998 285.74999"
   version="1.1"
   id="svg1"
   xml:space="preserve"
   sodipodi:docname="idea 7.svg"
   inkscape:version="1.3.2 (091e20e, 2023-11-25, custom)"
   inkscape:export-filename="idea 7.png"
   inkscape:export-xdpi="96"
   inkscape:export-ydpi="96"
   xmlns:inkscape="http://www.inkscape.org/namespaces/inkscape"
   xmlns:sodipodi="http://sodipodi.sourceforge.net/DTD/sodipodi-0.dtd"
   xmlns:xlink="http://www.w3.org/1999/xlink"
   xmlns="http://www.w3.org/2000/svg"
   xmlns:svg="http://www.w3.org/2000/svg"><sodipodi:namedview
     id="namedview1"
     pagecolor="#ffffff"
     bordercolor="#cccccc"
     borderopacity="1"
     inkscape:showpageshadow="0"
     inkscape:pageopacity="1"
     inkscape:pagecheckerboard="0"
     inkscape:deskcolor="#d1d1d1"
     inkscape:document-units="px"
     inkscape:zoom="0.553125"
     inkscape:cx="858.75706"
     inkscape:cy="512.54237"
     inkscape:window-width="1920"
     inkscape:window-height="991"
     inkscape:window-x="-9"
     inkscape:window-y="-9"
     inkscape:window-maximized="1"
     inkscape:current-layer="layer1"
     showguides="false" /><defs
     id="defs1"><linearGradient
       id="linearGradient30"
       inkscape:collect="always"><stop
         style="stop-color:#b6f5db;stop-opacity:1;"
         offset="0"
         id="stop30" /><stop
         style="stop-color:#5dacaf;stop-opacity:0;"
         offset="1"
         id="stop31" /></linearGradient><linearGradient
       id="linearGradient28"
       inkscape:collect="always"><stop
         style="stop-color:#204b51;stop-opacity:1;"
         offset="0"
         id="stop28" /><stop
         style="stop-color:#337174;stop-opacity:0;"
         offset="1"
         id="stop29" /></linearGradient><filter
       style="color-interpolation-filters:sRGB"
       inkscape:label="Noise Fill"
       id="filter2"
       x="0"
       y="0"
       width="1"
       height="1"><feTurbulence
         type="fractalNoise"
         baseFrequency="21.5873 40"
         numOctaves="5"
         seed="1"
         result="turbulence"
         id="feTurbulence1" /><feComposite
         in="SourceGraphic"
         in2="turbulence"
         operator="in"
         result="composite1"
         id="feComposite1" /><feColorMatrix
         values="1 0 0 0 0 0 1 0 0 0 0 0 1 0 0 0 0 0 3.73065 -1 "
         result="color"
         id="feColorMatrix1" /><feFlood
         flood-opacity="0"
         flood-color="rgb(21,40,57)"
         result="flood"
         id="feFlood1" /><feMerge
         result="merge"
         id="feMerge2"><feMergeNode
           in="flood"
           id="feMergeNode1" /><feMergeNode
           in="color"
           id="feMergeNode2" /></feMerge><feComposite
         in2="SourceGraphic"
         operator="in"
         result="composite2"
         id="feComposite2" /></filter><linearGradient
       inkscape:collect="always"
       xlink:href="#linearGradient30"
       id="linearGradient62"
       gradientUnits="userSpaceOnUse"
       gradientTransform="translate(-1250.3878,-1.6012463)"
       x1="79.88324"
       y1="59.730709"
       x2="-40.962589"
       y2="179.07722" /><linearGradient
       inkscape:collect="always"
       xlink:href="#linearGradient28"
       id="linearGradient66"
       gradientUnits="userSpaceOnUse"
       gradientTransform="translate(-1250.3878,-1.6012463)"
       x1="62.184555"
       y1="91.749603"
       x2="17.502857"
       y2="250.32022" /></defs><g
     inkscape:label="Layer 1"
     inkscape:groupmode="layer"
     id="layer1"
     transform="translate(1250.3878)"><rect
       style="opacity:1;fill:none;fill-opacity:1;stroke:none;stroke-width:0.529167"
       id="rect72"
       width="507.99997"
       height="285.75"
       x="-1250.3878"
       y="0" /><path
       style="opacity:1;fill:#337174;fill-opacity:1;stroke:none;stroke-width:0.529167"
       d="m -1250.3878,50.383307 c 0,0 71.2087,-19.978575 107.7915,8.027026 46.4061,35.525699 54.6492,82.863407 54.6492,82.863407 l -14.7052,142.87499 h -147.7355 z"
       id="path23"
       sodipodi:nodetypes="cscccc" /><path
       style="opacity:1;fill:url(#linearGradient66);fill-opacity:1;stroke:none;stroke-width:0.529167;filter:url(#filter2)"
       d="m -1250.3878,50.383307 c 0,0 71.2087,-19.978575 107.7915,8.027026 46.4061,35.525699 54.6492,82.863407 54.6492,82.863407 l -14.7052,142.87499 h -147.7355 z"
       id="path24"
       sodipodi:nodetypes="cscccc" /><path
       style="opacity:1;fill:#5dacaf;fill-opacity:1;stroke:none;stroke-width:0.529167"
       d="m -1250.3878,50.383307 c 0,0 59.8236,-24.011281 104.7981,5.891012 38.2991,25.463999 67.9978,86.505051 48.0112,83.680231 -19.9867,-2.82482 -4.8966,-7.70398 -18.8414,-15.95616 -13.9447,-8.25217 -21.2073,-5.5765 -20.0606,-13.98576 1.1468,-8.40926 13.4713,-17.583008 3.1044,-24.081078 -10.3669,-6.498052 -32.1546,-10.32044 -32.1546,6.88031 0,17.200768 -0.7644,17.200768 -8.7915,17.200768 -8.027,0 -7.6448,-6.11584 -14.1428,0 -6.4981,6.11583 0.3206,10.70271 -6.4981,10.70271 -3.4401,0 -6.4981,-2.28048 -9.9382,0.38223 -3.4402,2.66272 -3.4573,7.84836 -10.0793,7.03751 -6.6219,-0.81085 8.1085,-26.35269 -6.8922,-40.002038 -15.0008,-13.64933 -28.515,-7.703075 -28.515,-7.703075 v -30.04666"
       id="path32"
       sodipodi:nodetypes="csssssssssssscc" /><path
       style="opacity:1;fill:url(#linearGradient62);fill-opacity:1;stroke:none;stroke-width:0.529167;filter:url(#filter2)"
       d="m -1250.3878,50.383307 c 0,0 59.8236,-24.011281 104.7981,5.891012 38.2991,25.463999 67.9978,86.505051 48.0112,83.680231 -19.9867,-2.82482 -4.8966,-7.70398 -18.8414,-15.95616 -13.9447,-8.25217 -21.2073,-5.5765 -20.0606,-13.98576 1.1468,-8.40926 13.4713,-17.583008 3.1044,-24.081078 -10.3669,-6.498052 -32.1546,-10.32044 -32.1546,6.88031 0,17.200768 -0.7644,17.200768 -8.7915,17.200768 -8.027,0 -7.6448,-6.11584 -14.1428,0 -6.4981,6.11583 0.3206,10.70271 -6.4981,10.70271 -3.4401,0 -6.4981,-2.28048 -9.9382,0.38223 -3.4402,2.66272 -3.4573,7.84836 -10.0793,7.03751 -6.6219,-0.81085 8.1085,-26.35269 -6.8922,-40.002038 -15.0008,-13.64933 -28.515,-7.703075 -28.515,-7.703075 v -30.04666"
       id="path34"
       sodipodi:nodetypes="csssssssssssscc" /></g></svg>
