<?xml version="1.0" encoding="UTF-8" standalone="no"?>
<!-- Created with Inkscape (http://www.inkscape.org/) -->

<svg
   width="1920.0002"
   height="1080.0001"
   viewBox="0 0 508.00004 285.75002"
   version="1.1"
   id="svg1"
   xml:space="preserve"
   sodipodi:docname="idea 7.svg"
   inkscape:version="1.3.2 (091e20e, 2023-11-25, custom)"
   inkscape:export-filename="idea 7.png"
   inkscape:export-xdpi="96"
   inkscape:export-ydpi="96"
   xmlns:inkscape="http://www.inkscape.org/namespaces/inkscape"
   xmlns:sodipodi="http://sodipodi.sourceforge.net/DTD/sodipodi-0.dtd"
   xmlns:xlink="http://www.w3.org/1999/xlink"
   xmlns="http://www.w3.org/2000/svg"
   xmlns:svg="http://www.w3.org/2000/svg"><sodipodi:namedview
     id="namedview1"
     pagecolor="#ffffff"
     bordercolor="#cccccc"
     borderopacity="1"
     inkscape:showpageshadow="0"
     inkscape:pageopacity="1"
     inkscape:pagecheckerboard="0"
     inkscape:deskcolor="#d1d1d1"
     inkscape:document-units="px"
     inkscape:zoom="0.553125"
     inkscape:cx="858.75706"
     inkscape:cy="512.54237"
     inkscape:window-width="1920"
     inkscape:window-height="991"
     inkscape:window-x="-9"
     inkscape:window-y="-9"
     inkscape:window-maximized="1"
     inkscape:current-layer="layer1"
     showguides="false" /><defs
     id="defs1"><linearGradient
       id="linearGradient61"
       inkscape:collect="always"><stop
         style="stop-color:#5dacaf;stop-opacity:1;"
         offset="0"
         id="stop60" /><stop
         style="stop-color:#337174;stop-opacity:0;"
         offset="1"
         id="stop61" /></linearGradient><linearGradient
       id="linearGradient30"
       inkscape:collect="always"><stop
         style="stop-color:#b6f5db;stop-opacity:1;"
         offset="0"
         id="stop30" /><stop
         style="stop-color:#5dacaf;stop-opacity:0;"
         offset="1"
         id="stop31" /></linearGradient><filter
       style="color-interpolation-filters:sRGB"
       inkscape:label="Noise Fill"
       id="filter2"
       x="0"
       y="0"
       width="1"
       height="1"><feTurbulence
         type="fractalNoise"
         baseFrequency="21.5873 40"
         numOctaves="5"
         seed="1"
         result="turbulence"
         id="feTurbulence1" /><feComposite
         in="SourceGraphic"
         in2="turbulence"
         operator="in"
         result="composite1"
         id="feComposite1" /><feColorMatrix
         values="1 0 0 0 0 0 1 0 0 0 0 0 1 0 0 0 0 0 3.73065 -1 "
         result="color"
         id="feColorMatrix1" /><feFlood
         flood-opacity="0"
         flood-color="rgb(21,40,57)"
         result="flood"
         id="feFlood1" /><feMerge
         result="merge"
         id="feMerge2"><feMergeNode
           in="flood"
           id="feMergeNode1" /><feMergeNode
           in="color"
           id="feMergeNode2" /></feMerge><feComposite
         in2="SourceGraphic"
         operator="in"
         result="composite2"
         id="feComposite2" /></filter><linearGradient
       inkscape:collect="always"
       xlink:href="#linearGradient30"
       id="linearGradient52"
       gradientUnits="userSpaceOnUse"
       gradientTransform="translate(3.4627278e-6,-1.6012463)"
       x1="437.10822"
       y1="133.89444"
       x2="548.25043"
       y2="237.71362" /><linearGradient
       inkscape:collect="always"
       xlink:href="#linearGradient61"
       id="linearGradient58"
       gradientUnits="userSpaceOnUse"
       gradientTransform="translate(3.4627278e-6,-1.6012463)"
       x1="415.63245"
       y1="166.26666"
       x2="523.30695"
       y2="348.88156" /></defs><g
     inkscape:label="Layer 1"
     inkscape:groupmode="layer"
     id="layer1"
     transform="translate(1250.3878)"><rect
       style="opacity:1;fill:none;fill-opacity:1;stroke:none;stroke-width:0.529167"
       id="rect72"
       width="507.99997"
       height="285.75"
       x="-1250.3878"
       y="0" /><path
       style="opacity:1;fill:#337174;fill-opacity:1;stroke:none;stroke-width:0.529167"
       d="m -742.38782,110.03693 c 0,0 -57.71485,11.18533 -113.14313,77.5259 -55.4283,66.34056 -116.10651,80.89316 -216.68435,77.85956 -100.5779,-3.03359 -178.1725,0 -178.1725,0 v 20.32762 h 507.99998 z"
       id="path30" /><path
       style="opacity:1;fill:url(#linearGradient58);fill-opacity:1;stroke:none;stroke-width:0.526787;filter:url(#filter2)"
       d="m 507.99998,110.01263 c 0,0 -57.71485,11.08494 -113.14313,76.83012 -55.4283,65.74517 -116.10651,80.16717 -216.68437,77.16079 -100.577886,-3.00636 -178.1724775372721,0 -178.1724775372721,0 v 20.14519 H 507.99998 Z"
       id="path40"
       transform="matrix(1,0,0,1.009056,-1250.3878,-0.97196984)" /><path
       style="opacity:1;fill:#5dacaf;fill-opacity:1;stroke:none;stroke-width:0.529167"
       d="m -937.61814,249.1373 c 0,0 84.0073,-61.08554 99.14321,-79.63131 15.13591,-18.54575 50.43536,-45.29098 70.60175,-55.35651 19.32929,-9.64771 25.48533,-6.2339 25.48533,-6.2339 v 27.22621 c 0,0 -10.02761,2.70275 -23.27154,12.79382 -13.24393,10.09108 -18.75873,32.20692 -30.65122,37.66156 -11.89252,5.45463 -78.11209,42.27342 -91.35602,46.36439 -13.24393,4.09098 -49.95151,17.17574 -49.95151,17.17574 z"
       id="path42"
       sodipodi:nodetypes="cssccsssc" /><path
       style="opacity:1;fill:url(#linearGradient52);fill-opacity:1;stroke:none;stroke-width:0.526787;filter:url(#filter2)"
       d="m 312.76969,247.86461 c 0,0 84.0073,-60.53732 99.14321,-78.91664 15.13591,-18.37931 50.43536,-44.88451 70.60175,-54.8597 19.32929,-9.56113 25.48533,-6.17796 25.48533,-6.17796 v 26.98187 c 0,0 -10.02761,2.67849 -23.27154,12.679 -13.24393,10.00051 -18.75873,31.91787 -30.65122,37.32355 -11.89252,5.40568 -78.11209,41.89403 -91.35602,45.94829 -13.24393,4.05426 -49.95151,17.02159 -49.95151,17.02159 z"
       id="path48"
       sodipodi:nodetypes="cssccsssc"
       transform="matrix(1,0,0,1.009056,-1250.3878,-0.97196984)" /></g></svg>
