<?xml version="1.0" encoding="UTF-8" standalone="no"?>
<!-- Created with Inkscape (http://www.inkscape.org/) -->

<svg
   width="1919.9999"
   height="1079.9998"
   viewBox="0 0 507.99997 285.74993"
   version="1.1"
   id="svg1"
   inkscape:version="1.3.2 (091e20e, 2023-11-25, custom)"
   sodipodi:docname="background-two.svg"
   inkscape:export-filename="idea 3.png"
   inkscape:export-xdpi="96"
   inkscape:export-ydpi="96"
   xml:space="preserve"
   xmlns:inkscape="http://www.inkscape.org/namespaces/inkscape"
   xmlns:sodipodi="http://sodipodi.sourceforge.net/DTD/sodipodi-0.dtd"
   xmlns="http://www.w3.org/2000/svg"
   xmlns:svg="http://www.w3.org/2000/svg"><sodipodi:namedview
     id="namedview1"
     pagecolor="#ffffff"
     bordercolor="#cccccc"
     borderopacity="1"
     inkscape:showpageshadow="0"
     inkscape:pageopacity="1"
     inkscape:pagecheckerboard="0"
     inkscape:deskcolor="#d1d1d1"
     inkscape:document-units="px"
     inkscape:zoom="0.4894542"
     inkscape:cx="981.70574"
     inkscape:cy="415.76924"
     inkscape:window-width="1920"
     inkscape:window-height="991"
     inkscape:window-x="-9"
     inkscape:window-y="-9"
     inkscape:window-maximized="1"
     inkscape:current-layer="layer1" /><defs
     id="defs1" /><g
     inkscape:label="Layer 1"
     inkscape:groupmode="layer"
     id="layer1"
     transform="translate(567.73687,-603.58522)"><rect
       style="fill:#30113e;stroke:#412051;stroke-width:0.529167;fill-opacity:1;stroke-opacity:1"
       id="rect127"
       width="507.47083"
       height="285.22083"
       x="-567.47229"
       y="603.84979" /><path
       id="path127"
       style="fill:#321340;fill-opacity:1;stroke-width:0.529167"
       d="m -362.45927,805.23238 c -7.16271,-0.0394 -14.4272,0.77804 -20.03175,0.77803 -11.98798,0 -22.49833,8.04715 -23.76704,16.8908 l 8.73807,1.68464 -8.50564,3.03628 c 0.17549,0.69551 0.41604,1.38776 0.72515,2.07391 l 10.26379,0.618 -7.734,3.20819 c 0.69056,0.76754 1.48548,1.51727 2.39397,2.24274 22.96213,18.3368 11.61161,40.31302 32.47359,34.07484 11.47057,-3.42994 19.26116,-7.74878 24.43331,-14.0063 l -3.62064,-4.993 5.28117,2.78639 c 0.30276,-0.44274 0.59575,-0.89373 0.877,-1.35473 l -4.05706,-3.34088 5.15824,1.38674 c 2.12863,-4.10336 3.53847,-8.89081 4.40105,-14.55306 3.99305,-26.21186 -11.27127,-30.44604 -27.02921,-30.53259 z" /><path
       id="path128"
       style="fill:#321340;fill-opacity:1;stroke-width:0.529167"
       d="m -445.6207,719.44745 c -17.93454,0 -15.1937,11.12838 -17.88519,29.75405 -3.71488,25.70772 8.38966,29.51021 22.40555,32.13618 l 8.64613,-10.80275 7.36108,13.42394 c 18.80216,0.0714 34.15049,-19.50095 26.5339,-34.75737 -0.78151,-1.56541 -1.57244,-3.04143 -2.3702,-4.44831 l -12.74967,-2.43687 9.59028,-2.67333 c -0.95676,-1.41717 -1.92507,-2.73515 -2.90373,-3.963 l -9.65795,2.72082 5.01362,-7.8212 c -10.24291,-9.70963 -21.59291,-11.13215 -33.98382,-11.13216 z" /><path
       id="path129"
       style="fill:#321340;fill-opacity:1;stroke-width:0.529167"
       d="m -346.92988,620.26679 c -0.14925,-0.002 -0.30001,0.003 -0.44947,0.003 l -4.14211,8.46652 -6.43424,-8.13398 c -1.00591,0.032 -2.01103,0.0542 -3.0135,0.0542 -14.96348,0 -17.9737,11.65054 -20.21932,27.19065 -3.83164,26.51577 13.51935,-6.43948 32.27764,28.99295 4.38402,8.28095 13.91898,1.59443 21.20659,-8.75986 l -6.34935,-9.04116 9.5503,4.01938 c 0.85061,-1.48871 1.63497,-3.01152 2.34858,-4.54189 l -5.02466,-3.98321 7.14829,-1.28366 c 1.95726,-5.76954 2.51658,-11.213 0.69337,-14.86498 -7.67033,-15.36405 -17.39851,-17.98189 -27.59212,-18.11762 z" /><path
       id="path131"
       style="fill:#321340;fill-opacity:1;stroke-width:0.529167"
       d="m -179.57629,808.1411 c 0.008,-0.14901 0.009,-0.2998 0.0154,-0.44904 l -8.29843,-4.47404 8.38686,-6.10287 c 0.008,-1.00598 0.0258,-2.01079 0.0657,-3.01206 0.59541,-14.94556 -10.93085,-18.41576 -26.3756,-21.27704 -26.35306,-4.88215 5.89904,13.75938 -30.26612,31.08532 -8.45218,4.04927 -2.14766,13.83886 7.91265,21.52975 l 9.29031,-5.98199 -4.39785,9.37894 c 1.4543,0.90883 2.94531,1.75283 4.44669,2.5265 l 4.1816,-4.86016 0.99873,7.19081 c 5.68945,2.18449 11.10853,2.95975 14.83165,1.28404 15.66333,-7.0498 18.66725,-16.66216 19.20855,-26.83816 z" /><path
       id="path132"
       style="fill:#321340;fill-opacity:1;stroke-width:0.529167"
       d="m -216.71777,648.89047 c -6.54724,2.90392 -12.83536,6.63082 -17.94568,8.93109 -10.93083,4.92026 -17.20885,16.57156 -14.73301,25.15606 l 8.65949,-2.0503 -6.50837,6.25951 c 0.4457,0.56215 0.9494,1.09463 1.5131,1.5934 l 9.61254,-3.64909 -5.73417,6.09957 c 0.94494,0.41642 1.97772,0.77378 3.1041,1.06241 28.46936,7.2954 27.14685,31.99229 43.6067,17.74179 9.05016,-7.83538 14.37971,-14.97088 16.52539,-22.7994 l -5.35231,-3.06667 5.96001,0.37312 c 0.0942,-0.52797 0.1761,-1.05944 0.24318,-1.59523 l -5.07161,-1.38111 5.27299,-0.85265 c 0.2554,-4.61517 -0.4256,-9.5591 -1.96494,-15.07605 -7.126,-25.53928 -22.78352,-23.13511 -37.18741,-16.74645 z" /><path
       id="path133"
       style="opacity:1;fill:#321340;fill-opacity:1;stroke:none;stroke-width:0.529166;stroke-opacity:1"
       d="m -269.449,667.48171 c -1.04329,-0.0353 -6.0098,3.10765 -8.86029,4.76013 -6.11803,5.49541 -10.04239,17.03013 -8.77312,26.4587 -0.84217,-0.42322 -2.09155,-1.068 -2.63892,-1.4524 -0.8438,-0.59262 -2.09875,-1.87015 -2.09875,-1.87015 0,0 0.55869,4.93718 1.05067,6.88105 0.8786,3.47133 1.7635,5.2161 4.49931,7.35778 1.24989,6.84046 4.61055,13.23206 10.69119,20.72393 3.18895,3.14088 6.76997,5.68934 10.26704,7.73623 l -9.33857,13.67002 c 10.0186,-4.21057 4.94318,-0.18591 17.27121,-1.10282 0.33569,-0.0324 6.75671,-0.71296 8.77449,-5.56532 7.68508,1.36907 19.05298,4.60434 22.39001,-4.81587 3.05177,-8.6374 -4.31694,-12.299 -11.45678,-14.63174 -0.44883,-0.14222 -0.87781,-0.25665 -1.31014,-0.37558 0.31645,-2.2048 0.38352,-1.45468 -2.52447,-7.78635 -3.13937,-6.83543 -5.19958,-5.49355 -7.17777,-13.75824 -1.19235,2.72451 -2.04729,5.5632 -2.94068,8.39364 l -4.3272,10.47264 c -2.50292,-0.72678 -5.14897,-1.93484 -8.18986,-4.11595 -3.16258,-2.52422 -6.17531,-5.62893 -8.75116,-9.10909 0.67814,-2.4004 0.42907,-4.58403 -0.0847,-6.99047 -0.48776,-2.26841 -0.67932,-5.59472 0.91049,-9.64844 0,0 -2.35322,1.23152 -3.42993,2.41981 -0.85917,0.94815 -2.22336,3.65567 -2.75747,4.74664 -1.01244,-2.50968 -1.75723,-5.10378 -2.13762,-7.74371 -0.14364,-2.69363 -0.0638,-4.93714 0.90338,-5.96405 5.87839,-4.83734 18.78919,-13.41683 4.06099,-7.71324 -1.65682,-1.20133 1.81293,-5.59123 3.52027,-7.63472 2.47469,-2.43386 3.00487,-3.32392 2.45837,-3.34243 z" /><path
       id="path134"
       style="opacity:1;fill:#321340;fill-opacity:1;stroke:none;stroke-width:0.529166;stroke-opacity:1"
       d="m -378.36779,782.29938 c 0.97526,0.37208 6.69369,-0.98823 9.92655,-1.62578 7.57183,-3.21144 15.03104,-12.84695 16.89387,-22.17651 0.65901,0.67367 1.63118,1.68909 2.02398,2.23035 0.60554,0.83442 1.3774,2.4501 1.3774,2.4501 0,0 1.07566,-4.85093 1.24189,-6.84915 0.29684,-3.56839 0.0268,-5.50584 -1.86492,-8.41957 1.04028,-6.87543 -0.0617,-14.01155 -3.3786,-23.07129 -1.99564,-4.00585 -4.55458,-7.57868 -7.19707,-10.64989 l 13.27369,-9.89746 c -10.84354,0.73 -4.73564,-1.42888 -16.69334,-4.56371 -0.32801,-0.0783 -6.6221,-1.51912 -10.10701,2.41519 -6.82372,-3.78969 -16.52431,-10.53994 -22.74102,-2.71364 -5.69259,7.1785 0.0871,13.03374 6.08201,17.55784 0.37829,0.28021 0.74683,0.52771 1.1171,0.78053 -1.01562,1.98257 -0.83536,1.25133 -0.14212,8.18382 0.74842,7.48406 3.13293,6.88373 2.31874,15.3426 2.01288,-2.18974 3.74376,-4.59704 5.50832,-6.98403 l 7.49516,-8.50024 c 2.13111,1.49992 4.24124,3.50149 6.40868,6.55154 2.17105,3.41406 4.01178,7.32851 5.31732,11.45622 -1.42125,2.05015 -1.89514,4.19627 -2.19109,6.63903 -0.27566,2.30381 -1.17519,5.51201 -3.99585,8.82989 0,0 2.62579,-0.40084 4.03021,-1.17518 1.12061,-0.61784 3.29054,-2.73574 4.15014,-3.5942 0.14218,2.70232 0.004,5.3976 -0.49413,8.01792 -0.7393,2.59425 -1.54378,4.69021 -2.79211,5.34749 -7.13138,2.66683 -22.12978,6.59004 -6.34684,5.97684 1.1767,1.67406 -3.53121,4.69962 -5.80994,6.0781 -3.13129,1.49857 -3.92191,2.16827 -3.41105,2.36318 z" /><path
       id="path135"
       style="opacity:1;fill:#321340;fill-opacity:1;stroke:none;stroke-width:0.529166;stroke-opacity:1"
       d="m -247.077,833.43314 c -0.40337,0.9624 -5.33358,4.16194 -8.02562,6.06146 -7.54946,3.26362 -19.67362,2.01386 -27.71533,-3.0745 0.0333,0.94163 0.0979,2.34564 0.21892,3.00329 0.18655,1.01384 0.82415,2.68701 0.82415,2.68701 0,0 -4.25518,-2.56822 -5.81699,-3.82648 -2.78905,-2.24699 -4.00587,-3.77904 -4.81096,-7.15805 -5.69694,-3.99052 -10.10477,-9.71103 -14.37762,-18.36143 -1.52432,-4.20769 -2.34641,-8.52424 -2.74759,-12.55519 l -16.3252,2.777 c 8.00951,-7.34302 2.23225,-4.41258 8.21144,-15.22813 0.16957,-0.29139 3.46834,-5.83993 8.72181,-5.64744 1.96306,-7.55226 3.76678,-19.22875 13.72349,-18.32803 9.126,0.83306 9.37911,9.05481 8.51968,16.51402 -0.0581,0.46704 -0.13307,0.90448 -0.20541,1.34684 2.13646,0.63281 1.48253,0.25879 6.02486,5.54307 4.9037,5.70473 2.8239,7.01605 9.5116,12.26256 -2.9745,-0.0542 -5.912,-0.46238 -8.85804,-0.83226 l -11.32677,-0.44054 c -0.38397,2.5769 -0.39017,5.48469 0.32342,9.1573 0.97472,3.92634 2.53971,7.95886 4.62836,11.75123 2.46525,0.38593 4.34642,1.52359 6.31967,2.99467 1.85862,1.38989 4.80261,2.95227 9.15139,3.20013 0,0 -2.1018,1.62355 -3.63147,2.10562 -1.22054,0.38466 -4.25135,0.49375 -5.46609,0.52354 1.85895,1.96718 3.90623,3.72663 6.14755,5.17389 2.38882,1.25478 4.46173,2.11861 5.79895,1.66874 6.8512,-3.32061 20.03964,-11.46722 8.7071,-0.46937 0.40058,2.0064 5.83966,0.68694 8.41003,-0.011 3.24553,-1.23204 4.27597,-1.34213 4.06468,-0.83799 z" /></g></svg>
